G04 #@! TF.GenerationSoftware,KiCad,Pcbnew,(5.1.2-1)-1*
G04 #@! TF.CreationDate,2019-06-02T15:15:07+01:00*
G04 #@! TF.ProjectId,DRAM Board,4452414d-2042-46f6-9172-642e6b696361,rev?*
G04 #@! TF.SameCoordinates,Original*
G04 #@! TF.FileFunction,Paste,Top*
G04 #@! TF.FilePolarity,Positive*
%FSLAX46Y46*%
G04 Gerber Fmt 4.6, Leading zero omitted, Abs format (unit mm)*
G04 Created by KiCad (PCBNEW (5.1.2-1)-1) date 2019-06-02 15:15:07*
%MOMM*%
%LPD*%
G04 APERTURE LIST*
%ADD10C,0.100000*%
%ADD11C,1.425000*%
%ADD12R,0.500000X2.200000*%
G04 APERTURE END LIST*
D10*
G36*
X167909504Y-96281204D02*
G01*
X167933773Y-96284804D01*
X167957571Y-96290765D01*
X167980671Y-96299030D01*
X168002849Y-96309520D01*
X168023893Y-96322133D01*
X168043598Y-96336747D01*
X168061777Y-96353223D01*
X168078253Y-96371402D01*
X168092867Y-96391107D01*
X168105480Y-96412151D01*
X168115970Y-96434329D01*
X168124235Y-96457429D01*
X168130196Y-96481227D01*
X168133796Y-96505496D01*
X168135000Y-96530000D01*
X168135000Y-97780000D01*
X168133796Y-97804504D01*
X168130196Y-97828773D01*
X168124235Y-97852571D01*
X168115970Y-97875671D01*
X168105480Y-97897849D01*
X168092867Y-97918893D01*
X168078253Y-97938598D01*
X168061777Y-97956777D01*
X168043598Y-97973253D01*
X168023893Y-97987867D01*
X168002849Y-98000480D01*
X167980671Y-98010970D01*
X167957571Y-98019235D01*
X167933773Y-98025196D01*
X167909504Y-98028796D01*
X167885000Y-98030000D01*
X166960000Y-98030000D01*
X166935496Y-98028796D01*
X166911227Y-98025196D01*
X166887429Y-98019235D01*
X166864329Y-98010970D01*
X166842151Y-98000480D01*
X166821107Y-97987867D01*
X166801402Y-97973253D01*
X166783223Y-97956777D01*
X166766747Y-97938598D01*
X166752133Y-97918893D01*
X166739520Y-97897849D01*
X166729030Y-97875671D01*
X166720765Y-97852571D01*
X166714804Y-97828773D01*
X166711204Y-97804504D01*
X166710000Y-97780000D01*
X166710000Y-96530000D01*
X166711204Y-96505496D01*
X166714804Y-96481227D01*
X166720765Y-96457429D01*
X166729030Y-96434329D01*
X166739520Y-96412151D01*
X166752133Y-96391107D01*
X166766747Y-96371402D01*
X166783223Y-96353223D01*
X166801402Y-96336747D01*
X166821107Y-96322133D01*
X166842151Y-96309520D01*
X166864329Y-96299030D01*
X166887429Y-96290765D01*
X166911227Y-96284804D01*
X166935496Y-96281204D01*
X166960000Y-96280000D01*
X167885000Y-96280000D01*
X167909504Y-96281204D01*
X167909504Y-96281204D01*
G37*
D11*
X167422500Y-97155000D03*
D10*
G36*
X170884504Y-96281204D02*
G01*
X170908773Y-96284804D01*
X170932571Y-96290765D01*
X170955671Y-96299030D01*
X170977849Y-96309520D01*
X170998893Y-96322133D01*
X171018598Y-96336747D01*
X171036777Y-96353223D01*
X171053253Y-96371402D01*
X171067867Y-96391107D01*
X171080480Y-96412151D01*
X171090970Y-96434329D01*
X171099235Y-96457429D01*
X171105196Y-96481227D01*
X171108796Y-96505496D01*
X171110000Y-96530000D01*
X171110000Y-97780000D01*
X171108796Y-97804504D01*
X171105196Y-97828773D01*
X171099235Y-97852571D01*
X171090970Y-97875671D01*
X171080480Y-97897849D01*
X171067867Y-97918893D01*
X171053253Y-97938598D01*
X171036777Y-97956777D01*
X171018598Y-97973253D01*
X170998893Y-97987867D01*
X170977849Y-98000480D01*
X170955671Y-98010970D01*
X170932571Y-98019235D01*
X170908773Y-98025196D01*
X170884504Y-98028796D01*
X170860000Y-98030000D01*
X169935000Y-98030000D01*
X169910496Y-98028796D01*
X169886227Y-98025196D01*
X169862429Y-98019235D01*
X169839329Y-98010970D01*
X169817151Y-98000480D01*
X169796107Y-97987867D01*
X169776402Y-97973253D01*
X169758223Y-97956777D01*
X169741747Y-97938598D01*
X169727133Y-97918893D01*
X169714520Y-97897849D01*
X169704030Y-97875671D01*
X169695765Y-97852571D01*
X169689804Y-97828773D01*
X169686204Y-97804504D01*
X169685000Y-97780000D01*
X169685000Y-96530000D01*
X169686204Y-96505496D01*
X169689804Y-96481227D01*
X169695765Y-96457429D01*
X169704030Y-96434329D01*
X169714520Y-96412151D01*
X169727133Y-96391107D01*
X169741747Y-96371402D01*
X169758223Y-96353223D01*
X169776402Y-96336747D01*
X169796107Y-96322133D01*
X169817151Y-96309520D01*
X169839329Y-96299030D01*
X169862429Y-96290765D01*
X169886227Y-96284804D01*
X169910496Y-96281204D01*
X169935000Y-96280000D01*
X170860000Y-96280000D01*
X170884504Y-96281204D01*
X170884504Y-96281204D01*
G37*
D11*
X170397500Y-97155000D03*
D10*
G36*
X174259504Y-96281204D02*
G01*
X174283773Y-96284804D01*
X174307571Y-96290765D01*
X174330671Y-96299030D01*
X174352849Y-96309520D01*
X174373893Y-96322133D01*
X174393598Y-96336747D01*
X174411777Y-96353223D01*
X174428253Y-96371402D01*
X174442867Y-96391107D01*
X174455480Y-96412151D01*
X174465970Y-96434329D01*
X174474235Y-96457429D01*
X174480196Y-96481227D01*
X174483796Y-96505496D01*
X174485000Y-96530000D01*
X174485000Y-97780000D01*
X174483796Y-97804504D01*
X174480196Y-97828773D01*
X174474235Y-97852571D01*
X174465970Y-97875671D01*
X174455480Y-97897849D01*
X174442867Y-97918893D01*
X174428253Y-97938598D01*
X174411777Y-97956777D01*
X174393598Y-97973253D01*
X174373893Y-97987867D01*
X174352849Y-98000480D01*
X174330671Y-98010970D01*
X174307571Y-98019235D01*
X174283773Y-98025196D01*
X174259504Y-98028796D01*
X174235000Y-98030000D01*
X173310000Y-98030000D01*
X173285496Y-98028796D01*
X173261227Y-98025196D01*
X173237429Y-98019235D01*
X173214329Y-98010970D01*
X173192151Y-98000480D01*
X173171107Y-97987867D01*
X173151402Y-97973253D01*
X173133223Y-97956777D01*
X173116747Y-97938598D01*
X173102133Y-97918893D01*
X173089520Y-97897849D01*
X173079030Y-97875671D01*
X173070765Y-97852571D01*
X173064804Y-97828773D01*
X173061204Y-97804504D01*
X173060000Y-97780000D01*
X173060000Y-96530000D01*
X173061204Y-96505496D01*
X173064804Y-96481227D01*
X173070765Y-96457429D01*
X173079030Y-96434329D01*
X173089520Y-96412151D01*
X173102133Y-96391107D01*
X173116747Y-96371402D01*
X173133223Y-96353223D01*
X173151402Y-96336747D01*
X173171107Y-96322133D01*
X173192151Y-96309520D01*
X173214329Y-96299030D01*
X173237429Y-96290765D01*
X173261227Y-96284804D01*
X173285496Y-96281204D01*
X173310000Y-96280000D01*
X174235000Y-96280000D01*
X174259504Y-96281204D01*
X174259504Y-96281204D01*
G37*
D11*
X173772500Y-97155000D03*
D10*
G36*
X177234504Y-96281204D02*
G01*
X177258773Y-96284804D01*
X177282571Y-96290765D01*
X177305671Y-96299030D01*
X177327849Y-96309520D01*
X177348893Y-96322133D01*
X177368598Y-96336747D01*
X177386777Y-96353223D01*
X177403253Y-96371402D01*
X177417867Y-96391107D01*
X177430480Y-96412151D01*
X177440970Y-96434329D01*
X177449235Y-96457429D01*
X177455196Y-96481227D01*
X177458796Y-96505496D01*
X177460000Y-96530000D01*
X177460000Y-97780000D01*
X177458796Y-97804504D01*
X177455196Y-97828773D01*
X177449235Y-97852571D01*
X177440970Y-97875671D01*
X177430480Y-97897849D01*
X177417867Y-97918893D01*
X177403253Y-97938598D01*
X177386777Y-97956777D01*
X177368598Y-97973253D01*
X177348893Y-97987867D01*
X177327849Y-98000480D01*
X177305671Y-98010970D01*
X177282571Y-98019235D01*
X177258773Y-98025196D01*
X177234504Y-98028796D01*
X177210000Y-98030000D01*
X176285000Y-98030000D01*
X176260496Y-98028796D01*
X176236227Y-98025196D01*
X176212429Y-98019235D01*
X176189329Y-98010970D01*
X176167151Y-98000480D01*
X176146107Y-97987867D01*
X176126402Y-97973253D01*
X176108223Y-97956777D01*
X176091747Y-97938598D01*
X176077133Y-97918893D01*
X176064520Y-97897849D01*
X176054030Y-97875671D01*
X176045765Y-97852571D01*
X176039804Y-97828773D01*
X176036204Y-97804504D01*
X176035000Y-97780000D01*
X176035000Y-96530000D01*
X176036204Y-96505496D01*
X176039804Y-96481227D01*
X176045765Y-96457429D01*
X176054030Y-96434329D01*
X176064520Y-96412151D01*
X176077133Y-96391107D01*
X176091747Y-96371402D01*
X176108223Y-96353223D01*
X176126402Y-96336747D01*
X176146107Y-96322133D01*
X176167151Y-96309520D01*
X176189329Y-96299030D01*
X176212429Y-96290765D01*
X176236227Y-96284804D01*
X176260496Y-96281204D01*
X176285000Y-96280000D01*
X177210000Y-96280000D01*
X177234504Y-96281204D01*
X177234504Y-96281204D01*
G37*
D11*
X176747500Y-97155000D03*
D10*
G36*
X167909504Y-79771204D02*
G01*
X167933773Y-79774804D01*
X167957571Y-79780765D01*
X167980671Y-79789030D01*
X168002849Y-79799520D01*
X168023893Y-79812133D01*
X168043598Y-79826747D01*
X168061777Y-79843223D01*
X168078253Y-79861402D01*
X168092867Y-79881107D01*
X168105480Y-79902151D01*
X168115970Y-79924329D01*
X168124235Y-79947429D01*
X168130196Y-79971227D01*
X168133796Y-79995496D01*
X168135000Y-80020000D01*
X168135000Y-81270000D01*
X168133796Y-81294504D01*
X168130196Y-81318773D01*
X168124235Y-81342571D01*
X168115970Y-81365671D01*
X168105480Y-81387849D01*
X168092867Y-81408893D01*
X168078253Y-81428598D01*
X168061777Y-81446777D01*
X168043598Y-81463253D01*
X168023893Y-81477867D01*
X168002849Y-81490480D01*
X167980671Y-81500970D01*
X167957571Y-81509235D01*
X167933773Y-81515196D01*
X167909504Y-81518796D01*
X167885000Y-81520000D01*
X166960000Y-81520000D01*
X166935496Y-81518796D01*
X166911227Y-81515196D01*
X166887429Y-81509235D01*
X166864329Y-81500970D01*
X166842151Y-81490480D01*
X166821107Y-81477867D01*
X166801402Y-81463253D01*
X166783223Y-81446777D01*
X166766747Y-81428598D01*
X166752133Y-81408893D01*
X166739520Y-81387849D01*
X166729030Y-81365671D01*
X166720765Y-81342571D01*
X166714804Y-81318773D01*
X166711204Y-81294504D01*
X166710000Y-81270000D01*
X166710000Y-80020000D01*
X166711204Y-79995496D01*
X166714804Y-79971227D01*
X166720765Y-79947429D01*
X166729030Y-79924329D01*
X166739520Y-79902151D01*
X166752133Y-79881107D01*
X166766747Y-79861402D01*
X166783223Y-79843223D01*
X166801402Y-79826747D01*
X166821107Y-79812133D01*
X166842151Y-79799520D01*
X166864329Y-79789030D01*
X166887429Y-79780765D01*
X166911227Y-79774804D01*
X166935496Y-79771204D01*
X166960000Y-79770000D01*
X167885000Y-79770000D01*
X167909504Y-79771204D01*
X167909504Y-79771204D01*
G37*
D11*
X167422500Y-80645000D03*
D10*
G36*
X170884504Y-79771204D02*
G01*
X170908773Y-79774804D01*
X170932571Y-79780765D01*
X170955671Y-79789030D01*
X170977849Y-79799520D01*
X170998893Y-79812133D01*
X171018598Y-79826747D01*
X171036777Y-79843223D01*
X171053253Y-79861402D01*
X171067867Y-79881107D01*
X171080480Y-79902151D01*
X171090970Y-79924329D01*
X171099235Y-79947429D01*
X171105196Y-79971227D01*
X171108796Y-79995496D01*
X171110000Y-80020000D01*
X171110000Y-81270000D01*
X171108796Y-81294504D01*
X171105196Y-81318773D01*
X171099235Y-81342571D01*
X171090970Y-81365671D01*
X171080480Y-81387849D01*
X171067867Y-81408893D01*
X171053253Y-81428598D01*
X171036777Y-81446777D01*
X171018598Y-81463253D01*
X170998893Y-81477867D01*
X170977849Y-81490480D01*
X170955671Y-81500970D01*
X170932571Y-81509235D01*
X170908773Y-81515196D01*
X170884504Y-81518796D01*
X170860000Y-81520000D01*
X169935000Y-81520000D01*
X169910496Y-81518796D01*
X169886227Y-81515196D01*
X169862429Y-81509235D01*
X169839329Y-81500970D01*
X169817151Y-81490480D01*
X169796107Y-81477867D01*
X169776402Y-81463253D01*
X169758223Y-81446777D01*
X169741747Y-81428598D01*
X169727133Y-81408893D01*
X169714520Y-81387849D01*
X169704030Y-81365671D01*
X169695765Y-81342571D01*
X169689804Y-81318773D01*
X169686204Y-81294504D01*
X169685000Y-81270000D01*
X169685000Y-80020000D01*
X169686204Y-79995496D01*
X169689804Y-79971227D01*
X169695765Y-79947429D01*
X169704030Y-79924329D01*
X169714520Y-79902151D01*
X169727133Y-79881107D01*
X169741747Y-79861402D01*
X169758223Y-79843223D01*
X169776402Y-79826747D01*
X169796107Y-79812133D01*
X169817151Y-79799520D01*
X169839329Y-79789030D01*
X169862429Y-79780765D01*
X169886227Y-79774804D01*
X169910496Y-79771204D01*
X169935000Y-79770000D01*
X170860000Y-79770000D01*
X170884504Y-79771204D01*
X170884504Y-79771204D01*
G37*
D11*
X170397500Y-80645000D03*
D10*
G36*
X211524504Y-96281204D02*
G01*
X211548773Y-96284804D01*
X211572571Y-96290765D01*
X211595671Y-96299030D01*
X211617849Y-96309520D01*
X211638893Y-96322133D01*
X211658598Y-96336747D01*
X211676777Y-96353223D01*
X211693253Y-96371402D01*
X211707867Y-96391107D01*
X211720480Y-96412151D01*
X211730970Y-96434329D01*
X211739235Y-96457429D01*
X211745196Y-96481227D01*
X211748796Y-96505496D01*
X211750000Y-96530000D01*
X211750000Y-97780000D01*
X211748796Y-97804504D01*
X211745196Y-97828773D01*
X211739235Y-97852571D01*
X211730970Y-97875671D01*
X211720480Y-97897849D01*
X211707867Y-97918893D01*
X211693253Y-97938598D01*
X211676777Y-97956777D01*
X211658598Y-97973253D01*
X211638893Y-97987867D01*
X211617849Y-98000480D01*
X211595671Y-98010970D01*
X211572571Y-98019235D01*
X211548773Y-98025196D01*
X211524504Y-98028796D01*
X211500000Y-98030000D01*
X210575000Y-98030000D01*
X210550496Y-98028796D01*
X210526227Y-98025196D01*
X210502429Y-98019235D01*
X210479329Y-98010970D01*
X210457151Y-98000480D01*
X210436107Y-97987867D01*
X210416402Y-97973253D01*
X210398223Y-97956777D01*
X210381747Y-97938598D01*
X210367133Y-97918893D01*
X210354520Y-97897849D01*
X210344030Y-97875671D01*
X210335765Y-97852571D01*
X210329804Y-97828773D01*
X210326204Y-97804504D01*
X210325000Y-97780000D01*
X210325000Y-96530000D01*
X210326204Y-96505496D01*
X210329804Y-96481227D01*
X210335765Y-96457429D01*
X210344030Y-96434329D01*
X210354520Y-96412151D01*
X210367133Y-96391107D01*
X210381747Y-96371402D01*
X210398223Y-96353223D01*
X210416402Y-96336747D01*
X210436107Y-96322133D01*
X210457151Y-96309520D01*
X210479329Y-96299030D01*
X210502429Y-96290765D01*
X210526227Y-96284804D01*
X210550496Y-96281204D01*
X210575000Y-96280000D01*
X211500000Y-96280000D01*
X211524504Y-96281204D01*
X211524504Y-96281204D01*
G37*
D11*
X211037500Y-97155000D03*
D10*
G36*
X208549504Y-96281204D02*
G01*
X208573773Y-96284804D01*
X208597571Y-96290765D01*
X208620671Y-96299030D01*
X208642849Y-96309520D01*
X208663893Y-96322133D01*
X208683598Y-96336747D01*
X208701777Y-96353223D01*
X208718253Y-96371402D01*
X208732867Y-96391107D01*
X208745480Y-96412151D01*
X208755970Y-96434329D01*
X208764235Y-96457429D01*
X208770196Y-96481227D01*
X208773796Y-96505496D01*
X208775000Y-96530000D01*
X208775000Y-97780000D01*
X208773796Y-97804504D01*
X208770196Y-97828773D01*
X208764235Y-97852571D01*
X208755970Y-97875671D01*
X208745480Y-97897849D01*
X208732867Y-97918893D01*
X208718253Y-97938598D01*
X208701777Y-97956777D01*
X208683598Y-97973253D01*
X208663893Y-97987867D01*
X208642849Y-98000480D01*
X208620671Y-98010970D01*
X208597571Y-98019235D01*
X208573773Y-98025196D01*
X208549504Y-98028796D01*
X208525000Y-98030000D01*
X207600000Y-98030000D01*
X207575496Y-98028796D01*
X207551227Y-98025196D01*
X207527429Y-98019235D01*
X207504329Y-98010970D01*
X207482151Y-98000480D01*
X207461107Y-97987867D01*
X207441402Y-97973253D01*
X207423223Y-97956777D01*
X207406747Y-97938598D01*
X207392133Y-97918893D01*
X207379520Y-97897849D01*
X207369030Y-97875671D01*
X207360765Y-97852571D01*
X207354804Y-97828773D01*
X207351204Y-97804504D01*
X207350000Y-97780000D01*
X207350000Y-96530000D01*
X207351204Y-96505496D01*
X207354804Y-96481227D01*
X207360765Y-96457429D01*
X207369030Y-96434329D01*
X207379520Y-96412151D01*
X207392133Y-96391107D01*
X207406747Y-96371402D01*
X207423223Y-96353223D01*
X207441402Y-96336747D01*
X207461107Y-96322133D01*
X207482151Y-96309520D01*
X207504329Y-96299030D01*
X207527429Y-96290765D01*
X207551227Y-96284804D01*
X207575496Y-96281204D01*
X207600000Y-96280000D01*
X208525000Y-96280000D01*
X208549504Y-96281204D01*
X208549504Y-96281204D01*
G37*
D11*
X208062500Y-97155000D03*
D10*
G36*
X217874504Y-96281204D02*
G01*
X217898773Y-96284804D01*
X217922571Y-96290765D01*
X217945671Y-96299030D01*
X217967849Y-96309520D01*
X217988893Y-96322133D01*
X218008598Y-96336747D01*
X218026777Y-96353223D01*
X218043253Y-96371402D01*
X218057867Y-96391107D01*
X218070480Y-96412151D01*
X218080970Y-96434329D01*
X218089235Y-96457429D01*
X218095196Y-96481227D01*
X218098796Y-96505496D01*
X218100000Y-96530000D01*
X218100000Y-97780000D01*
X218098796Y-97804504D01*
X218095196Y-97828773D01*
X218089235Y-97852571D01*
X218080970Y-97875671D01*
X218070480Y-97897849D01*
X218057867Y-97918893D01*
X218043253Y-97938598D01*
X218026777Y-97956777D01*
X218008598Y-97973253D01*
X217988893Y-97987867D01*
X217967849Y-98000480D01*
X217945671Y-98010970D01*
X217922571Y-98019235D01*
X217898773Y-98025196D01*
X217874504Y-98028796D01*
X217850000Y-98030000D01*
X216925000Y-98030000D01*
X216900496Y-98028796D01*
X216876227Y-98025196D01*
X216852429Y-98019235D01*
X216829329Y-98010970D01*
X216807151Y-98000480D01*
X216786107Y-97987867D01*
X216766402Y-97973253D01*
X216748223Y-97956777D01*
X216731747Y-97938598D01*
X216717133Y-97918893D01*
X216704520Y-97897849D01*
X216694030Y-97875671D01*
X216685765Y-97852571D01*
X216679804Y-97828773D01*
X216676204Y-97804504D01*
X216675000Y-97780000D01*
X216675000Y-96530000D01*
X216676204Y-96505496D01*
X216679804Y-96481227D01*
X216685765Y-96457429D01*
X216694030Y-96434329D01*
X216704520Y-96412151D01*
X216717133Y-96391107D01*
X216731747Y-96371402D01*
X216748223Y-96353223D01*
X216766402Y-96336747D01*
X216786107Y-96322133D01*
X216807151Y-96309520D01*
X216829329Y-96299030D01*
X216852429Y-96290765D01*
X216876227Y-96284804D01*
X216900496Y-96281204D01*
X216925000Y-96280000D01*
X217850000Y-96280000D01*
X217874504Y-96281204D01*
X217874504Y-96281204D01*
G37*
D11*
X217387500Y-97155000D03*
D10*
G36*
X214899504Y-96281204D02*
G01*
X214923773Y-96284804D01*
X214947571Y-96290765D01*
X214970671Y-96299030D01*
X214992849Y-96309520D01*
X215013893Y-96322133D01*
X215033598Y-96336747D01*
X215051777Y-96353223D01*
X215068253Y-96371402D01*
X215082867Y-96391107D01*
X215095480Y-96412151D01*
X215105970Y-96434329D01*
X215114235Y-96457429D01*
X215120196Y-96481227D01*
X215123796Y-96505496D01*
X215125000Y-96530000D01*
X215125000Y-97780000D01*
X215123796Y-97804504D01*
X215120196Y-97828773D01*
X215114235Y-97852571D01*
X215105970Y-97875671D01*
X215095480Y-97897849D01*
X215082867Y-97918893D01*
X215068253Y-97938598D01*
X215051777Y-97956777D01*
X215033598Y-97973253D01*
X215013893Y-97987867D01*
X214992849Y-98000480D01*
X214970671Y-98010970D01*
X214947571Y-98019235D01*
X214923773Y-98025196D01*
X214899504Y-98028796D01*
X214875000Y-98030000D01*
X213950000Y-98030000D01*
X213925496Y-98028796D01*
X213901227Y-98025196D01*
X213877429Y-98019235D01*
X213854329Y-98010970D01*
X213832151Y-98000480D01*
X213811107Y-97987867D01*
X213791402Y-97973253D01*
X213773223Y-97956777D01*
X213756747Y-97938598D01*
X213742133Y-97918893D01*
X213729520Y-97897849D01*
X213719030Y-97875671D01*
X213710765Y-97852571D01*
X213704804Y-97828773D01*
X213701204Y-97804504D01*
X213700000Y-97780000D01*
X213700000Y-96530000D01*
X213701204Y-96505496D01*
X213704804Y-96481227D01*
X213710765Y-96457429D01*
X213719030Y-96434329D01*
X213729520Y-96412151D01*
X213742133Y-96391107D01*
X213756747Y-96371402D01*
X213773223Y-96353223D01*
X213791402Y-96336747D01*
X213811107Y-96322133D01*
X213832151Y-96309520D01*
X213854329Y-96299030D01*
X213877429Y-96290765D01*
X213901227Y-96284804D01*
X213925496Y-96281204D01*
X213950000Y-96280000D01*
X214875000Y-96280000D01*
X214899504Y-96281204D01*
X214899504Y-96281204D01*
G37*
D11*
X214412500Y-97155000D03*
D10*
G36*
X210889504Y-79771204D02*
G01*
X210913773Y-79774804D01*
X210937571Y-79780765D01*
X210960671Y-79789030D01*
X210982849Y-79799520D01*
X211003893Y-79812133D01*
X211023598Y-79826747D01*
X211041777Y-79843223D01*
X211058253Y-79861402D01*
X211072867Y-79881107D01*
X211085480Y-79902151D01*
X211095970Y-79924329D01*
X211104235Y-79947429D01*
X211110196Y-79971227D01*
X211113796Y-79995496D01*
X211115000Y-80020000D01*
X211115000Y-81270000D01*
X211113796Y-81294504D01*
X211110196Y-81318773D01*
X211104235Y-81342571D01*
X211095970Y-81365671D01*
X211085480Y-81387849D01*
X211072867Y-81408893D01*
X211058253Y-81428598D01*
X211041777Y-81446777D01*
X211023598Y-81463253D01*
X211003893Y-81477867D01*
X210982849Y-81490480D01*
X210960671Y-81500970D01*
X210937571Y-81509235D01*
X210913773Y-81515196D01*
X210889504Y-81518796D01*
X210865000Y-81520000D01*
X209940000Y-81520000D01*
X209915496Y-81518796D01*
X209891227Y-81515196D01*
X209867429Y-81509235D01*
X209844329Y-81500970D01*
X209822151Y-81490480D01*
X209801107Y-81477867D01*
X209781402Y-81463253D01*
X209763223Y-81446777D01*
X209746747Y-81428598D01*
X209732133Y-81408893D01*
X209719520Y-81387849D01*
X209709030Y-81365671D01*
X209700765Y-81342571D01*
X209694804Y-81318773D01*
X209691204Y-81294504D01*
X209690000Y-81270000D01*
X209690000Y-80020000D01*
X209691204Y-79995496D01*
X209694804Y-79971227D01*
X209700765Y-79947429D01*
X209709030Y-79924329D01*
X209719520Y-79902151D01*
X209732133Y-79881107D01*
X209746747Y-79861402D01*
X209763223Y-79843223D01*
X209781402Y-79826747D01*
X209801107Y-79812133D01*
X209822151Y-79799520D01*
X209844329Y-79789030D01*
X209867429Y-79780765D01*
X209891227Y-79774804D01*
X209915496Y-79771204D01*
X209940000Y-79770000D01*
X210865000Y-79770000D01*
X210889504Y-79771204D01*
X210889504Y-79771204D01*
G37*
D11*
X210402500Y-80645000D03*
D10*
G36*
X207914504Y-79771204D02*
G01*
X207938773Y-79774804D01*
X207962571Y-79780765D01*
X207985671Y-79789030D01*
X208007849Y-79799520D01*
X208028893Y-79812133D01*
X208048598Y-79826747D01*
X208066777Y-79843223D01*
X208083253Y-79861402D01*
X208097867Y-79881107D01*
X208110480Y-79902151D01*
X208120970Y-79924329D01*
X208129235Y-79947429D01*
X208135196Y-79971227D01*
X208138796Y-79995496D01*
X208140000Y-80020000D01*
X208140000Y-81270000D01*
X208138796Y-81294504D01*
X208135196Y-81318773D01*
X208129235Y-81342571D01*
X208120970Y-81365671D01*
X208110480Y-81387849D01*
X208097867Y-81408893D01*
X208083253Y-81428598D01*
X208066777Y-81446777D01*
X208048598Y-81463253D01*
X208028893Y-81477867D01*
X208007849Y-81490480D01*
X207985671Y-81500970D01*
X207962571Y-81509235D01*
X207938773Y-81515196D01*
X207914504Y-81518796D01*
X207890000Y-81520000D01*
X206965000Y-81520000D01*
X206940496Y-81518796D01*
X206916227Y-81515196D01*
X206892429Y-81509235D01*
X206869329Y-81500970D01*
X206847151Y-81490480D01*
X206826107Y-81477867D01*
X206806402Y-81463253D01*
X206788223Y-81446777D01*
X206771747Y-81428598D01*
X206757133Y-81408893D01*
X206744520Y-81387849D01*
X206734030Y-81365671D01*
X206725765Y-81342571D01*
X206719804Y-81318773D01*
X206716204Y-81294504D01*
X206715000Y-81270000D01*
X206715000Y-80020000D01*
X206716204Y-79995496D01*
X206719804Y-79971227D01*
X206725765Y-79947429D01*
X206734030Y-79924329D01*
X206744520Y-79902151D01*
X206757133Y-79881107D01*
X206771747Y-79861402D01*
X206788223Y-79843223D01*
X206806402Y-79826747D01*
X206826107Y-79812133D01*
X206847151Y-79799520D01*
X206869329Y-79789030D01*
X206892429Y-79780765D01*
X206916227Y-79774804D01*
X206940496Y-79771204D01*
X206965000Y-79770000D01*
X207890000Y-79770000D01*
X207914504Y-79771204D01*
X207914504Y-79771204D01*
G37*
D11*
X207427500Y-80645000D03*
D12*
X160655000Y-83820000D03*
X160655000Y-93980000D03*
X161925000Y-83820000D03*
X161925000Y-93980000D03*
X163195000Y-83820000D03*
X163195000Y-93980000D03*
X164465000Y-83820000D03*
X164465000Y-93980000D03*
X165735000Y-83820000D03*
X165735000Y-93980000D03*
X167005000Y-83820000D03*
X167005000Y-93980000D03*
X168275000Y-83820000D03*
X168275000Y-93980000D03*
X169545000Y-83820000D03*
X169545000Y-93980000D03*
X170815000Y-83820000D03*
X170815000Y-93980000D03*
X172085000Y-83820000D03*
X172085000Y-93980000D03*
X173355000Y-83820000D03*
X173355000Y-93980000D03*
X174625000Y-83820000D03*
X174625000Y-93980000D03*
X175895000Y-83820000D03*
X175895000Y-93980000D03*
X177165000Y-83820000D03*
X177165000Y-93980000D03*
X178435000Y-83820000D03*
X178435000Y-93980000D03*
X179705000Y-83820000D03*
X179705000Y-93980000D03*
X180975000Y-83820000D03*
X180975000Y-93980000D03*
X182245000Y-83820000D03*
X182245000Y-93980000D03*
X183515000Y-83820000D03*
X183515000Y-93980000D03*
X184785000Y-83820000D03*
X184785000Y-93980000D03*
X225425000Y-93980000D03*
X225425000Y-83820000D03*
X224155000Y-93980000D03*
X224155000Y-83820000D03*
X222885000Y-93980000D03*
X222885000Y-83820000D03*
X221615000Y-93980000D03*
X221615000Y-83820000D03*
X220345000Y-93980000D03*
X220345000Y-83820000D03*
X219075000Y-93980000D03*
X219075000Y-83820000D03*
X217805000Y-93980000D03*
X217805000Y-83820000D03*
X216535000Y-93980000D03*
X216535000Y-83820000D03*
X215265000Y-93980000D03*
X215265000Y-83820000D03*
X213995000Y-93980000D03*
X213995000Y-83820000D03*
X212725000Y-93980000D03*
X212725000Y-83820000D03*
X211455000Y-93980000D03*
X211455000Y-83820000D03*
X210185000Y-93980000D03*
X210185000Y-83820000D03*
X208915000Y-93980000D03*
X208915000Y-83820000D03*
X207645000Y-93980000D03*
X207645000Y-83820000D03*
X206375000Y-93980000D03*
X206375000Y-83820000D03*
X205105000Y-93980000D03*
X205105000Y-83820000D03*
X203835000Y-93980000D03*
X203835000Y-83820000D03*
X202565000Y-93980000D03*
X202565000Y-83820000D03*
X201295000Y-93980000D03*
X201295000Y-83820000D03*
M02*
