M48
; DRILL file {KiCad (5.1.2-1)-1} date Monday, 13 May 2019 at 19:02:57
; FORMAT={3:3/ absolute / metric / suppress leading zeros}
; #@! TF.CreationDate,2019-05-13T19:02:57+01:00
; #@! TF.GenerationSoftware,Kicad,Pcbnew,(5.1.2-1)-1
FMAT,2
METRIC,TZ
T1C0.400
T2C0.800
%
G90
G05
T1
X181414Y-68026
X181979Y-74870
X183775Y-62898
X184873Y-61777
X189813Y-62443
X190022Y-66621
X191104Y-53694
X191442Y-67363
X191524Y-64071
X191540Y-48729
X191643Y-52724
X191713Y-61916
X191719Y-63006
X191974Y-60298
X191995Y-65191
X192158Y-56912
X192159Y-55462
X192165Y-51765
X194916Y-63223
X194982Y-57137
X195059Y-49850
X195346Y-53520
X195632Y-55674
X195797Y-64420
X196608Y-49961
X196926Y-64054
X197505Y-53931
X197757Y-48807
X200428Y-61763
X200732Y-52364
X201023Y-62582
X201324Y-54820
X201369Y-64381
X202317Y-61118
X202380Y-52364
X202474Y-62797
X203474Y-53322
X204103Y-58286
X204117Y-51914
X204629Y-56632
X205043Y-59019
X205797Y-56445
X208643Y-53813
X208643Y-66719
X211782Y-64420
X211868Y-56775
X212580Y-55104
X212600Y-66161
X212963Y-65161
X213162Y-56636
X213514Y-54601
X213855Y-61233
X216868Y-67938
X217005Y-64432
X217262Y-51431
X217375Y-54814
X217526Y-52901
X217883Y-67907
X218092Y-50023
X218233Y-66631
X218403Y-65604
X218742Y-52163
X219667Y-57112
X221440Y-51709
X221539Y-65591
X221810Y-63571
X222441Y-51709
X222501Y-50000
X223405Y-51259
X223690Y-65220
X223994Y-49318
X224853Y-56582
X225113Y-54598
X225201Y-64338
X227966Y-65626
X228329Y-60420
X228669Y-54428
X228975Y-52399
X229025Y-62835
X229760Y-56357
X229767Y-58258
X229886Y-53593
X230242Y-61220
X230404Y-66466
X230438Y-54456
X230510Y-64420
X230673Y-69519
X233362Y-52118
X234705Y-76874
X235129Y-73131
X235168Y-59014
X235168Y-66159
X235894Y-63620
X237318Y-64014
X237323Y-70112
X238211Y-54820
X238436Y-67229
X238439Y-66201
X238607Y-53293
X238973Y-63242
X239437Y-67255
X239980Y-55620
X247521Y-61952
T2
X143002Y-74473
X143002Y-77013
X143002Y-79553
X143002Y-82093
X143002Y-84633
X143002Y-87173
X143002Y-89713
X143002Y-92253
X143002Y-94793
X143002Y-97333
X150622Y-74473
X150622Y-77013
X150622Y-79553
X150622Y-82093
X150622Y-84633
X150622Y-87173
X150622Y-89713
X150622Y-92253
X150622Y-94793
X150622Y-97333
X218948Y-74422
X218948Y-76962
X218948Y-79502
X218948Y-82042
X218948Y-84582
X218948Y-87122
X218948Y-89662
X218948Y-92202
X218948Y-94742
X218948Y-97282
X226568Y-74422
X226568Y-76962
X226568Y-79502
X226568Y-82042
X226568Y-84582
X226568Y-87122
X226568Y-89662
X226568Y-92202
X226568Y-94742
X226568Y-97282
X179832Y-74473
X179832Y-77013
X179832Y-79553
X179832Y-82093
X179832Y-84633
X179832Y-87173
X179832Y-89713
X179832Y-92253
X179832Y-94793
X179832Y-97333
X187452Y-74473
X187452Y-77013
X187452Y-79553
X187452Y-82093
X187452Y-84633
X187452Y-87173
X187452Y-89713
X187452Y-92253
X187452Y-94793
X187452Y-97333
X230378Y-74422
X230378Y-76962
X230378Y-79502
X230378Y-82042
X230378Y-84582
X230378Y-87122
X230378Y-89662
X230378Y-92202
X230378Y-94742
X230378Y-97282
X237998Y-74422
X237998Y-76962
X237998Y-79502
X237998Y-82042
X237998Y-84582
X237998Y-87122
X237998Y-89662
X237998Y-92202
X237998Y-94742
X237998Y-97282
X193650Y-74397
X193650Y-76937
X193650Y-79477
X193650Y-82017
X193650Y-84557
X193650Y-87097
X193650Y-89637
X193650Y-92177
X193650Y-94717
X193650Y-97257
X201270Y-74397
X201270Y-76937
X201270Y-79477
X201270Y-82017
X201270Y-84557
X201270Y-87097
X201270Y-89637
X201270Y-92177
X201270Y-94717
X201270Y-97257
X205080Y-74397
X205080Y-76937
X205080Y-79477
X205080Y-82017
X205080Y-84557
X205080Y-87097
X205080Y-89637
X205080Y-92177
X205080Y-94717
X205080Y-97257
X212700Y-74397
X212700Y-76937
X212700Y-79477
X212700Y-82017
X212700Y-84557
X212700Y-87097
X212700Y-89637
X212700Y-92177
X212700Y-94717
X212700Y-97257
X154432Y-74473
X154432Y-77013
X154432Y-79553
X154432Y-82093
X154432Y-84633
X154432Y-87173
X154432Y-89713
X154432Y-92253
X154432Y-94793
X154432Y-97333
X162052Y-74473
X162052Y-77013
X162052Y-79553
X162052Y-82093
X162052Y-84633
X162052Y-87173
X162052Y-89713
X162052Y-92253
X162052Y-94793
X162052Y-97333
X168402Y-74473
X168402Y-77013
X168402Y-79553
X168402Y-82093
X168402Y-84633
X168402Y-87173
X168402Y-89713
X168402Y-92253
X168402Y-94793
X168402Y-97333
X176022Y-74473
X176022Y-77013
X176022Y-79553
X176022Y-82093
X176022Y-84633
X176022Y-87173
X176022Y-89713
X176022Y-92253
X176022Y-94793
X176022Y-97333
T0
M30
