M48
; DRILL file {KiCad (5.1.2-1)-1} date Sunday, 02 June 2019 at 15:14:39
; FORMAT={3:3/ absolute / metric / suppress leading zeros}
; #@! TF.CreationDate,2019-06-02T15:14:39+01:00
; #@! TF.GenerationSoftware,Kicad,Pcbnew,(5.1.2-1)-1
FMAT,2
METRIC,TZ
T1C0.400
T2C1.000
%
G90
G05
T1
X160424Y-82081
X163363Y-96369
X169062Y-80645
X169196Y-82097
X171454Y-95553
X173434Y-80478
X173769Y-75256
X175428Y-96154
X175926Y-91576
X176765Y-92152
X177474Y-82065
X177991Y-92130
X180013Y-73022
X180558Y-92266
X181844Y-92259
X183466Y-95698
X184325Y-85544
X194824Y-80081
X197884Y-89001
X199187Y-89733
X199899Y-83568
X202565Y-95716
X204568Y-95686
X206042Y-89577
X206345Y-95700
X206749Y-96801
X207238Y-89798
X208259Y-92103
X209118Y-95695
X209259Y-92252
X210553Y-92266
X212096Y-91456
X212629Y-82091
X217722Y-82118
T2
X176022Y-77013
X150622Y-89726
X237998Y-82042
X237998Y-76962
X201270Y-76937
X143002Y-94806
X237998Y-74422
X143002Y-77026
X230378Y-82042
X201270Y-74397
X168402Y-77013
X150622Y-92266
X150622Y-74473
X143002Y-92266
X150622Y-82106
X230378Y-76962
X193650Y-76937
X143002Y-97333
X150622Y-79566
X143002Y-82106
X201270Y-79477
X176022Y-79553
X150622Y-94806
X143002Y-74473
X162052Y-74473
X237998Y-79502
X193650Y-97257
X168402Y-74473
X150622Y-87186
X143002Y-89726
X143002Y-87186
X193650Y-74397
X150622Y-97346
X143002Y-79566
X230378Y-97282
X230378Y-74422
X150622Y-77026
X154432Y-97333
T0
M30
