G04 #@! TF.GenerationSoftware,KiCad,Pcbnew,(5.1.2-1)-1*
G04 #@! TF.CreationDate,2019-05-13T19:01:55+01:00*
G04 #@! TF.ProjectId,DRAM Board,4452414d-2042-46f6-9172-642e6b696361,rev?*
G04 #@! TF.SameCoordinates,Original*
G04 #@! TF.FileFunction,Copper,L2,Bot*
G04 #@! TF.FilePolarity,Positive*
%FSLAX46Y46*%
G04 Gerber Fmt 4.6, Leading zero omitted, Abs format (unit mm)*
G04 Created by KiCad (PCBNEW (5.1.2-1)-1) date 2019-05-13 19:01:55*
%MOMM*%
%LPD*%
G04 APERTURE LIST*
%ADD10O,1.600000X1.600000*%
%ADD11R,1.600000X1.600000*%
%ADD12C,0.800000*%
%ADD13C,0.250000*%
G04 APERTURE END LIST*
D10*
X226568000Y-74422000D03*
X218948000Y-97282000D03*
X226568000Y-76962000D03*
X218948000Y-94742000D03*
X226568000Y-79502000D03*
X218948000Y-92202000D03*
X226568000Y-82042000D03*
X218948000Y-89662000D03*
X226568000Y-84582000D03*
X218948000Y-87122000D03*
X226568000Y-87122000D03*
X218948000Y-84582000D03*
X226568000Y-89662000D03*
X218948000Y-82042000D03*
X226568000Y-92202000D03*
X218948000Y-79502000D03*
X226568000Y-94742000D03*
X218948000Y-76962000D03*
X226568000Y-97282000D03*
D11*
X218948000Y-74422000D03*
D10*
X201270000Y-74396600D03*
X193650000Y-97256600D03*
X201270000Y-76936600D03*
X193650000Y-94716600D03*
X201270000Y-79476600D03*
X193650000Y-92176600D03*
X201270000Y-82016600D03*
X193650000Y-89636600D03*
X201270000Y-84556600D03*
X193650000Y-87096600D03*
X201270000Y-87096600D03*
X193650000Y-84556600D03*
X201270000Y-89636600D03*
X193650000Y-82016600D03*
X201270000Y-92176600D03*
X193650000Y-79476600D03*
X201270000Y-94716600D03*
X193650000Y-76936600D03*
X201270000Y-97256600D03*
D11*
X193650000Y-74396600D03*
D10*
X176022000Y-74473000D03*
X168402000Y-97333000D03*
X176022000Y-77013000D03*
X168402000Y-94793000D03*
X176022000Y-79553000D03*
X168402000Y-92253000D03*
X176022000Y-82093000D03*
X168402000Y-89713000D03*
X176022000Y-84633000D03*
X168402000Y-87173000D03*
X176022000Y-87173000D03*
X168402000Y-84633000D03*
X176022000Y-89713000D03*
X168402000Y-82093000D03*
X176022000Y-92253000D03*
X168402000Y-79553000D03*
X176022000Y-94793000D03*
X168402000Y-77013000D03*
X176022000Y-97333000D03*
D11*
X168402000Y-74473000D03*
D10*
X150622000Y-74473000D03*
X143002000Y-97333000D03*
X150622000Y-77013000D03*
X143002000Y-94793000D03*
X150622000Y-79553000D03*
X143002000Y-92253000D03*
X150622000Y-82093000D03*
X143002000Y-89713000D03*
X150622000Y-84633000D03*
X143002000Y-87173000D03*
X150622000Y-87173000D03*
X143002000Y-84633000D03*
X150622000Y-89713000D03*
X143002000Y-82093000D03*
X150622000Y-92253000D03*
X143002000Y-79553000D03*
X150622000Y-94793000D03*
X143002000Y-77013000D03*
X150622000Y-97333000D03*
D11*
X143002000Y-74473000D03*
D10*
X237998000Y-74422000D03*
X230378000Y-97282000D03*
X237998000Y-76962000D03*
X230378000Y-94742000D03*
X237998000Y-79502000D03*
X230378000Y-92202000D03*
X237998000Y-82042000D03*
X230378000Y-89662000D03*
X237998000Y-84582000D03*
X230378000Y-87122000D03*
X237998000Y-87122000D03*
X230378000Y-84582000D03*
X237998000Y-89662000D03*
X230378000Y-82042000D03*
X237998000Y-92202000D03*
X230378000Y-79502000D03*
X237998000Y-94742000D03*
X230378000Y-76962000D03*
X237998000Y-97282000D03*
D11*
X230378000Y-74422000D03*
D10*
X212700000Y-74396600D03*
X205080000Y-97256600D03*
X212700000Y-76936600D03*
X205080000Y-94716600D03*
X212700000Y-79476600D03*
X205080000Y-92176600D03*
X212700000Y-82016600D03*
X205080000Y-89636600D03*
X212700000Y-84556600D03*
X205080000Y-87096600D03*
X212700000Y-87096600D03*
X205080000Y-84556600D03*
X212700000Y-89636600D03*
X205080000Y-82016600D03*
X212700000Y-92176600D03*
X205080000Y-79476600D03*
X212700000Y-94716600D03*
X205080000Y-76936600D03*
X212700000Y-97256600D03*
D11*
X205080000Y-74396600D03*
D10*
X187452000Y-74473000D03*
X179832000Y-97333000D03*
X187452000Y-77013000D03*
X179832000Y-94793000D03*
X187452000Y-79553000D03*
X179832000Y-92253000D03*
X187452000Y-82093000D03*
X179832000Y-89713000D03*
X187452000Y-84633000D03*
X179832000Y-87173000D03*
X187452000Y-87173000D03*
X179832000Y-84633000D03*
X187452000Y-89713000D03*
X179832000Y-82093000D03*
X187452000Y-92253000D03*
X179832000Y-79553000D03*
X187452000Y-94793000D03*
X179832000Y-77013000D03*
X187452000Y-97333000D03*
D11*
X179832000Y-74473000D03*
D10*
X162052000Y-74473000D03*
X154432000Y-97333000D03*
X162052000Y-77013000D03*
X154432000Y-94793000D03*
X162052000Y-79553000D03*
X154432000Y-92253000D03*
X162052000Y-82093000D03*
X154432000Y-89713000D03*
X162052000Y-84633000D03*
X154432000Y-87173000D03*
X162052000Y-87173000D03*
X154432000Y-84633000D03*
X162052000Y-89713000D03*
X154432000Y-82093000D03*
X162052000Y-92253000D03*
X154432000Y-79553000D03*
X162052000Y-94793000D03*
X154432000Y-77013000D03*
X162052000Y-97333000D03*
D11*
X154432000Y-74473000D03*
D12*
X228974800Y-52399100D03*
X197757400Y-48806600D03*
X218091500Y-50023400D03*
X191539900Y-48728900D03*
X217262100Y-51431400D03*
X228668700Y-54428000D03*
X234704800Y-76873600D03*
X196607900Y-49961300D03*
X218742400Y-52162700D03*
X229885700Y-53593300D03*
X235129500Y-73130700D03*
X230437500Y-54456400D03*
X195059000Y-49850200D03*
X217525500Y-52900800D03*
X211868100Y-56775000D03*
X205797300Y-56444800D03*
X191974500Y-60298400D03*
X229760300Y-56357400D03*
X213162200Y-56635600D03*
X204102600Y-58286100D03*
X205043100Y-59019000D03*
X195797000Y-64420000D03*
X230242000Y-61220000D03*
X213855400Y-61232700D03*
X184873100Y-61776500D03*
X191719300Y-63006400D03*
X183775200Y-62897800D03*
X200428300Y-61762500D03*
X235894000Y-63620000D03*
X191442200Y-67362800D03*
X218403000Y-65603700D03*
X230509500Y-64420000D03*
X217004600Y-64432500D03*
X237317600Y-64014400D03*
X218232500Y-66631400D03*
X238972800Y-63242400D03*
X216867800Y-67937500D03*
X208642800Y-53812600D03*
X190021700Y-66620900D03*
X197504900Y-53930700D03*
X208642800Y-66718900D03*
X225112900Y-54597800D03*
X196925500Y-64054000D03*
X201369300Y-64380900D03*
X230673000Y-69518800D03*
X212599700Y-66161200D03*
X217882700Y-67907000D03*
X191994500Y-65190700D03*
X201023000Y-62582500D03*
X212962500Y-65160800D03*
X223689900Y-65220000D03*
X227965700Y-65625800D03*
X211781800Y-64420000D03*
X239436800Y-67254800D03*
X202473700Y-62796700D03*
X194916100Y-63223200D03*
X238436400Y-67229400D03*
X238438900Y-66201000D03*
X191524100Y-64071400D03*
X225201300Y-64337600D03*
X202316600Y-61117700D03*
X191712700Y-61916000D03*
X230403900Y-66466000D03*
X189813000Y-62442600D03*
X228329300Y-60420000D03*
X194981600Y-57137400D03*
X219666500Y-57111500D03*
X204629100Y-56632200D03*
X192157900Y-56912300D03*
X212580000Y-55103600D03*
X229767000Y-58258400D03*
X224852900Y-56582100D03*
X239980400Y-55620000D03*
X221440200Y-51709300D03*
X195631700Y-55673500D03*
X181979300Y-74870400D03*
X217374800Y-54813500D03*
X213513500Y-54600900D03*
X238210700Y-54820000D03*
X223405100Y-51259000D03*
X201323900Y-54820000D03*
X192159300Y-55461600D03*
X238607100Y-53292500D03*
X222501400Y-50000500D03*
X203473900Y-53321900D03*
X195346200Y-53520300D03*
X200731600Y-52363800D03*
X191643400Y-52724400D03*
X223993600Y-49317700D03*
X204117200Y-51913500D03*
X192165500Y-51765300D03*
X181414100Y-68026200D03*
X202380200Y-52363800D03*
X191104200Y-53694500D03*
X229025200Y-62835400D03*
X221810200Y-63571400D03*
X221538500Y-65591000D03*
X237322700Y-70112000D03*
X235167800Y-59013800D03*
X235167800Y-66158600D03*
X222440600Y-51709300D03*
X233362200Y-52117700D03*
X247521000Y-61952200D03*
D13*
X197757400Y-48806600D02*
X216874700Y-48806600D01*
X216874700Y-48806600D02*
X218091500Y-50023400D01*
X228974800Y-52408800D02*
X224365300Y-52408800D01*
X224365300Y-52408800D02*
X224283400Y-52490700D01*
X224283400Y-52490700D02*
X221112400Y-52490700D01*
X221112400Y-52490700D02*
X218645100Y-50023400D01*
X218645100Y-50023400D02*
X218091500Y-50023400D01*
X237998000Y-78376700D02*
X238279300Y-78376700D01*
X238279300Y-78376700D02*
X239138400Y-77517600D01*
X239138400Y-77517600D02*
X239138400Y-73254200D01*
X239138400Y-73254200D02*
X235751500Y-69867300D01*
X235751500Y-69867300D02*
X235751500Y-68086600D01*
X235751500Y-68086600D02*
X234442500Y-66777600D01*
X234442500Y-66777600D02*
X234442500Y-56748100D01*
X234442500Y-56748100D02*
X230103200Y-52408800D01*
X230103200Y-52408800D02*
X228974800Y-52408800D01*
X228974800Y-52408800D02*
X228974800Y-52399100D01*
X237998000Y-79502000D02*
X237998000Y-78376700D01*
X228668700Y-54428000D02*
X229422400Y-55181700D01*
X229422400Y-55181700D02*
X230288200Y-55181700D01*
X230288200Y-55181700D02*
X233091600Y-57985100D01*
X233091600Y-57985100D02*
X233091600Y-67655700D01*
X233091600Y-67655700D02*
X234400600Y-68964700D01*
X234400600Y-68964700D02*
X234400600Y-76569400D01*
X234400600Y-76569400D02*
X234704800Y-76873600D01*
X194333700Y-49391000D02*
X194639400Y-49085300D01*
X194639400Y-49085300D02*
X196908400Y-49085300D01*
X196908400Y-49085300D02*
X197355000Y-49531900D01*
X197355000Y-49531900D02*
X215362600Y-49531900D01*
X215362600Y-49531900D02*
X217262100Y-51431400D01*
X194333700Y-49391000D02*
X194333700Y-50150600D01*
X194333700Y-50150600D02*
X195371200Y-51188100D01*
X195371200Y-51188100D02*
X211778000Y-51188100D01*
X211778000Y-51188100D02*
X214216100Y-53626200D01*
X214216100Y-53626200D02*
X219721800Y-53626200D01*
X219721800Y-53626200D02*
X220040700Y-53945100D01*
X220040700Y-53945100D02*
X224739700Y-53945100D01*
X224739700Y-53945100D02*
X224836600Y-53848200D01*
X224836600Y-53848200D02*
X228088900Y-53848200D01*
X228088900Y-53848200D02*
X228668700Y-54428000D01*
X194333700Y-49391000D02*
X192202000Y-49391000D01*
X192202000Y-49391000D02*
X191539900Y-48728900D01*
X218742400Y-52162700D02*
X219594100Y-52162700D01*
X219594100Y-52162700D02*
X220372500Y-52941100D01*
X220372500Y-52941100D02*
X224469900Y-52941100D01*
X224469900Y-52941100D02*
X224526200Y-52884800D01*
X224526200Y-52884800D02*
X228434800Y-52884800D01*
X228434800Y-52884800D02*
X228674400Y-53124400D01*
X228674400Y-53124400D02*
X229416800Y-53124400D01*
X229416800Y-53124400D02*
X229885700Y-53593300D01*
X229885700Y-53593300D02*
X230620900Y-53593300D01*
X230620900Y-53593300D02*
X233992200Y-56964600D01*
X233992200Y-56964600D02*
X233992200Y-67282500D01*
X233992200Y-67282500D02*
X235301200Y-68591500D01*
X235301200Y-68591500D02*
X235301200Y-70392100D01*
X235301200Y-70392100D02*
X236212900Y-71303800D01*
X236212900Y-71303800D02*
X236212900Y-74228400D01*
X236212900Y-74228400D02*
X237821200Y-75836700D01*
X237821200Y-75836700D02*
X237998000Y-75836700D01*
X218742400Y-52162700D02*
X216509100Y-52162700D01*
X216509100Y-52162700D02*
X214595400Y-50249000D01*
X214595400Y-50249000D02*
X196895600Y-50249000D01*
X196895600Y-50249000D02*
X196607900Y-49961300D01*
X237998000Y-76962000D02*
X237998000Y-75836700D01*
X217525500Y-52900800D02*
X219633300Y-52900800D01*
X219633300Y-52900800D02*
X220145000Y-53412500D01*
X220145000Y-53412500D02*
X224635400Y-53412500D01*
X224635400Y-53412500D02*
X224688700Y-53359200D01*
X224688700Y-53359200D02*
X228272300Y-53359200D01*
X228272300Y-53359200D02*
X228487800Y-53574700D01*
X228487800Y-53574700D02*
X228841400Y-53574700D01*
X228841400Y-53574700D02*
X229723100Y-54456400D01*
X229723100Y-54456400D02*
X230437500Y-54456400D01*
X230437500Y-54456400D02*
X233541900Y-57560800D01*
X233541900Y-57560800D02*
X233541900Y-67469100D01*
X233541900Y-67469100D02*
X234850900Y-68778100D01*
X234850900Y-68778100D02*
X234850900Y-72852100D01*
X234850900Y-72852100D02*
X235129500Y-73130700D01*
X195059000Y-49850200D02*
X195908200Y-50699400D01*
X195908200Y-50699400D02*
X212012000Y-50699400D01*
X212012000Y-50699400D02*
X214213400Y-52900800D01*
X214213400Y-52900800D02*
X217525500Y-52900800D01*
X203050300Y-59799800D02*
X203050300Y-58256400D01*
X203050300Y-58256400D02*
X203827000Y-57479700D01*
X203827000Y-57479700D02*
X204843300Y-57479700D01*
X204843300Y-57479700D02*
X205797300Y-56525700D01*
X191974500Y-60298400D02*
X192473100Y-59799800D01*
X192473100Y-59799800D02*
X203050300Y-59799800D01*
X201832700Y-79476600D02*
X200106100Y-77750000D01*
X200106100Y-77750000D02*
X200106100Y-73215500D01*
X200106100Y-73215500D02*
X203718400Y-69603200D01*
X203718400Y-69603200D02*
X203718400Y-60467900D01*
X203718400Y-60467900D02*
X203050300Y-59799800D01*
X201832700Y-79476600D02*
X202395300Y-79476600D01*
X201270000Y-79476600D02*
X201832700Y-79476600D01*
X212700000Y-79476600D02*
X211574700Y-79476600D01*
X211574700Y-79476600D02*
X210449400Y-78351300D01*
X210449400Y-78351300D02*
X203520600Y-78351300D01*
X203520600Y-78351300D02*
X202395300Y-79476600D01*
X205797300Y-56525700D02*
X211618800Y-56525700D01*
X211618800Y-56525700D02*
X211868100Y-56775000D01*
X205797300Y-56525700D02*
X205797300Y-56444800D01*
X205080000Y-76936600D02*
X205080000Y-75811300D01*
X205080000Y-75811300D02*
X205783400Y-75811300D01*
X205783400Y-75811300D02*
X206205300Y-75389400D01*
X206205300Y-75389400D02*
X206205300Y-63592500D01*
X206205300Y-63592500D02*
X213162200Y-56635600D01*
X213162200Y-56635600D02*
X215210200Y-58683600D01*
X215210200Y-58683600D02*
X229166500Y-58683600D01*
X229166500Y-58683600D02*
X229466600Y-58983700D01*
X229466600Y-58983700D02*
X230067500Y-58983700D01*
X230067500Y-58983700D02*
X230492300Y-58558900D01*
X230492300Y-58558900D02*
X230492300Y-57089400D01*
X230492300Y-57089400D02*
X229760300Y-56357400D01*
X201270000Y-75811300D02*
X201551300Y-75811300D01*
X201551300Y-75811300D02*
X204228300Y-73134300D01*
X204228300Y-73134300D02*
X204228300Y-58411800D01*
X204228300Y-58411800D02*
X204102600Y-58286100D01*
X201270000Y-76936600D02*
X201270000Y-75811300D01*
X205080000Y-73271300D02*
X205080000Y-59055900D01*
X205080000Y-59055900D02*
X205043100Y-59019000D01*
X205080000Y-74396600D02*
X205080000Y-73271300D01*
X193650000Y-79476600D02*
X193650000Y-78351300D01*
X193650000Y-78351300D02*
X193931300Y-78351300D01*
X193931300Y-78351300D02*
X195797000Y-76485600D01*
X195797000Y-76485600D02*
X195797000Y-64420000D01*
X213855400Y-61232700D02*
X215393500Y-59694600D01*
X215393500Y-59694600D02*
X228716600Y-59694600D01*
X228716600Y-59694600D02*
X230242000Y-61220000D01*
X218948000Y-78376700D02*
X218666600Y-78376700D01*
X218666600Y-78376700D02*
X211053300Y-70763400D01*
X211053300Y-70763400D02*
X211053300Y-64034800D01*
X211053300Y-64034800D02*
X213855400Y-61232700D01*
X179832000Y-78427700D02*
X179550700Y-78427700D01*
X179550700Y-78427700D02*
X178652200Y-77529200D01*
X178652200Y-77529200D02*
X178652200Y-73540000D01*
X178652200Y-73540000D02*
X184873100Y-67319100D01*
X184873100Y-67319100D02*
X184873100Y-61776500D01*
X218948000Y-79502000D02*
X218948000Y-78376700D01*
X179832000Y-79553000D02*
X179832000Y-78427700D01*
X191719300Y-63006400D02*
X192873000Y-61852700D01*
X192873000Y-61852700D02*
X200428300Y-61852700D01*
X199600000Y-80634000D02*
X199600000Y-67465000D01*
X199600000Y-67465000D02*
X203235300Y-63829700D01*
X203235300Y-63829700D02*
X203235300Y-62532300D01*
X203235300Y-62532300D02*
X202555700Y-61852700D01*
X202555700Y-61852700D02*
X200428300Y-61852700D01*
X200428300Y-61852700D02*
X200428300Y-61762500D01*
X168402000Y-82093000D02*
X169527300Y-82093000D01*
X169527300Y-82093000D02*
X169527300Y-81811700D01*
X169527300Y-81811700D02*
X175451400Y-75887600D01*
X175451400Y-75887600D02*
X176199000Y-75887600D01*
X176199000Y-75887600D02*
X177515300Y-74571300D01*
X177515300Y-74571300D02*
X177515300Y-73954400D01*
X177515300Y-73954400D02*
X183775200Y-67694500D01*
X183775200Y-67694500D02*
X183775200Y-62897800D01*
X199600000Y-80634000D02*
X216414700Y-80634000D01*
X216414700Y-80634000D02*
X217822700Y-82042000D01*
X193650000Y-80891300D02*
X199342700Y-80891300D01*
X199342700Y-80891300D02*
X199600000Y-80634000D01*
X218948000Y-82042000D02*
X217822700Y-82042000D01*
X193650000Y-82016600D02*
X193650000Y-80891300D01*
X230378000Y-85996700D02*
X230096600Y-85996700D01*
X230096600Y-85996700D02*
X229252700Y-85152800D01*
X229252700Y-85152800D02*
X229252700Y-82478600D01*
X229252700Y-82478600D02*
X228802400Y-82028300D01*
X228802400Y-82028300D02*
X228802400Y-77598900D01*
X228802400Y-77598900D02*
X226895500Y-75692000D01*
X226895500Y-75692000D02*
X226169000Y-75692000D01*
X226169000Y-75692000D02*
X220764600Y-70287600D01*
X220764600Y-70287600D02*
X220764600Y-67965300D01*
X220764600Y-67965300D02*
X218403000Y-65603700D01*
X230378000Y-86559300D02*
X229247600Y-87689700D01*
X229247600Y-87689700D02*
X229247600Y-90152900D01*
X229247600Y-90152900D02*
X230169200Y-91074500D01*
X230169200Y-91074500D02*
X230865000Y-91074500D01*
X230865000Y-91074500D02*
X235599600Y-95809100D01*
X235599600Y-95809100D02*
X235599600Y-96486100D01*
X235599600Y-96486100D02*
X237571800Y-98458300D01*
X237571800Y-98458300D02*
X238506500Y-98458300D01*
X238506500Y-98458300D02*
X240970800Y-95994000D01*
X240970800Y-95994000D02*
X240970800Y-67662500D01*
X240970800Y-67662500D02*
X238279600Y-64971300D01*
X238279600Y-64971300D02*
X237245300Y-64971300D01*
X237245300Y-64971300D02*
X235894000Y-63620000D01*
X230378000Y-86559300D02*
X230378000Y-85996700D01*
X230378000Y-87122000D02*
X230378000Y-86559300D01*
X191442200Y-86017800D02*
X191445900Y-86017800D01*
X191445900Y-86017800D02*
X192524700Y-87096600D01*
X180957300Y-87173000D02*
X182112500Y-86017800D01*
X182112500Y-86017800D02*
X191442200Y-86017800D01*
X191442200Y-86017800D02*
X191442200Y-67362800D01*
X193650000Y-87096600D02*
X192524700Y-87096600D01*
X179832000Y-87173000D02*
X180957300Y-87173000D01*
X168402000Y-87173000D02*
X167276700Y-87173000D01*
X154432000Y-87173000D02*
X155557300Y-87173000D01*
X155557300Y-87173000D02*
X156682600Y-88298300D01*
X156682600Y-88298300D02*
X166151400Y-88298300D01*
X166151400Y-88298300D02*
X167276700Y-87173000D01*
X153869400Y-87173000D02*
X154432000Y-87173000D01*
X153869400Y-87173000D02*
X153306700Y-87173000D01*
X143002000Y-87173000D02*
X144127300Y-87173000D01*
X153306700Y-87173000D02*
X152181400Y-88298300D01*
X152181400Y-88298300D02*
X145252600Y-88298300D01*
X145252600Y-88298300D02*
X144127300Y-87173000D01*
X218948000Y-87122000D02*
X217822700Y-87122000D01*
X205080000Y-87096600D02*
X206205300Y-87096600D01*
X206205300Y-87096600D02*
X207356000Y-88247300D01*
X207356000Y-88247300D02*
X216697400Y-88247300D01*
X216697400Y-88247300D02*
X217822700Y-87122000D01*
X224078000Y-64370100D02*
X224839300Y-63608800D01*
X224839300Y-63608800D02*
X229698300Y-63608800D01*
X229698300Y-63608800D02*
X230509500Y-64420000D01*
X230378000Y-88536700D02*
X230659300Y-88536700D01*
X230659300Y-88536700D02*
X231546500Y-87649500D01*
X231546500Y-87649500D02*
X231546500Y-71838600D01*
X231546500Y-71838600D02*
X224078000Y-64370100D01*
X217004600Y-64432500D02*
X217067000Y-64370100D01*
X217067000Y-64370100D02*
X224078000Y-64370100D01*
X230378000Y-89662000D02*
X230378000Y-88536700D01*
X168402000Y-89713000D02*
X167276700Y-89713000D01*
X154432000Y-89713000D02*
X155557300Y-89713000D01*
X155557300Y-89713000D02*
X156682600Y-90838300D01*
X156682600Y-90838300D02*
X166151400Y-90838300D01*
X166151400Y-90838300D02*
X167276700Y-89713000D01*
X153869400Y-89713000D02*
X154432000Y-89713000D01*
X153869400Y-89713000D02*
X153306700Y-89713000D01*
X143002000Y-89713000D02*
X144127300Y-89713000D01*
X153306700Y-89713000D02*
X152181400Y-90838300D01*
X152181400Y-90838300D02*
X145252600Y-90838300D01*
X145252600Y-90838300D02*
X144127300Y-89713000D01*
X193650000Y-89636600D02*
X194775300Y-89636600D01*
X194775300Y-89636600D02*
X195900600Y-90761900D01*
X195900600Y-90761900D02*
X202829400Y-90761900D01*
X202829400Y-90761900D02*
X203954700Y-89636600D01*
X180957300Y-89713000D02*
X182112700Y-88557600D01*
X182112700Y-88557600D02*
X188462700Y-88557600D01*
X188462700Y-88557600D02*
X189541700Y-89636600D01*
X189541700Y-89636600D02*
X193650000Y-89636600D01*
X205080000Y-89636600D02*
X203954700Y-89636600D01*
X179832000Y-89713000D02*
X178706700Y-89713000D01*
X168402000Y-89713000D02*
X169527300Y-89713000D01*
X169527300Y-89713000D02*
X170652600Y-90838300D01*
X170652600Y-90838300D02*
X177581400Y-90838300D01*
X177581400Y-90838300D02*
X178706700Y-89713000D01*
X218948000Y-89662000D02*
X217822700Y-89662000D01*
X205080000Y-89636600D02*
X206205300Y-89636600D01*
X206205300Y-89636600D02*
X207356000Y-90787300D01*
X207356000Y-90787300D02*
X216697400Y-90787300D01*
X216697400Y-90787300D02*
X217822700Y-89662000D01*
X179832000Y-89713000D02*
X180957300Y-89713000D01*
X230378000Y-91681400D02*
X230139200Y-91681400D01*
X230139200Y-91681400D02*
X228736600Y-90278800D01*
X228736600Y-90278800D02*
X228736600Y-82599400D01*
X228736600Y-82599400D02*
X228352100Y-82214900D01*
X228352100Y-82214900D02*
X228352100Y-79641200D01*
X228352100Y-79641200D02*
X226942900Y-78232000D01*
X226942900Y-78232000D02*
X226222900Y-78232000D01*
X226222900Y-78232000D02*
X218710600Y-70719700D01*
X218710600Y-70719700D02*
X218710600Y-67109500D01*
X218710600Y-67109500D02*
X218232500Y-66631400D01*
X230378000Y-92202000D02*
X237084700Y-98908700D01*
X237084700Y-98908700D02*
X238693000Y-98908700D01*
X238693000Y-98908700D02*
X241492600Y-96109100D01*
X241492600Y-96109100D02*
X241492600Y-67526900D01*
X241492600Y-67526900D02*
X237980100Y-64014400D01*
X237980100Y-64014400D02*
X237317600Y-64014400D01*
X230378000Y-92202000D02*
X230378000Y-92071800D01*
X230378000Y-92071800D02*
X230378000Y-91681400D01*
X168402000Y-92253000D02*
X167276700Y-92253000D01*
X154432000Y-92253000D02*
X155557300Y-92253000D01*
X155557300Y-92253000D02*
X156682600Y-93378300D01*
X156682600Y-93378300D02*
X166151400Y-93378300D01*
X166151400Y-93378300D02*
X167276700Y-92253000D01*
X153869400Y-92253000D02*
X154432000Y-92253000D01*
X153869400Y-92253000D02*
X153306700Y-92253000D01*
X143002000Y-92253000D02*
X144127300Y-92253000D01*
X153306700Y-92253000D02*
X152181400Y-93378300D01*
X152181400Y-93378300D02*
X145252600Y-93378300D01*
X145252600Y-93378300D02*
X144127300Y-92253000D01*
X180957300Y-92253000D02*
X182112600Y-91097700D01*
X182112600Y-91097700D02*
X191445800Y-91097700D01*
X191445800Y-91097700D02*
X192524700Y-92176600D01*
X193650000Y-92176600D02*
X192524700Y-92176600D01*
X179832000Y-92253000D02*
X180957300Y-92253000D01*
X179269400Y-92253000D02*
X179832000Y-92253000D01*
X179269400Y-92253000D02*
X178706700Y-92253000D01*
X168402000Y-92253000D02*
X169527300Y-92253000D01*
X169527300Y-92253000D02*
X170652600Y-93378300D01*
X170652600Y-93378300D02*
X177581400Y-93378300D01*
X177581400Y-93378300D02*
X178706700Y-92253000D01*
X218948000Y-92202000D02*
X217822700Y-92202000D01*
X205080000Y-92176600D02*
X206205300Y-92176600D01*
X206205300Y-92176600D02*
X207356000Y-93327300D01*
X207356000Y-93327300D02*
X216697400Y-93327300D01*
X216697400Y-93327300D02*
X217822700Y-92202000D01*
X204517400Y-92176600D02*
X205080000Y-92176600D01*
X204517400Y-92176600D02*
X203954700Y-92176600D01*
X193650000Y-92176600D02*
X194775300Y-92176600D01*
X203954700Y-92176600D02*
X202829400Y-93301900D01*
X202829400Y-93301900D02*
X195900600Y-93301900D01*
X195900600Y-93301900D02*
X194775300Y-92176600D01*
X231503300Y-94742000D02*
X236120300Y-99359000D01*
X236120300Y-99359000D02*
X238879600Y-99359000D01*
X238879600Y-99359000D02*
X241942900Y-96295700D01*
X241942900Y-96295700D02*
X241942900Y-66212500D01*
X241942900Y-66212500D02*
X238972800Y-63242400D01*
X230378000Y-94742000D02*
X229252700Y-94742000D01*
X228168300Y-93553500D02*
X229252700Y-94637900D01*
X229252700Y-94637900D02*
X229252700Y-94742000D01*
X216867800Y-67937500D02*
X216867800Y-69513800D01*
X216867800Y-69513800D02*
X225026800Y-77672800D01*
X225026800Y-77672800D02*
X225026800Y-79633600D01*
X225026800Y-79633600D02*
X226165200Y-80772000D01*
X226165200Y-80772000D02*
X226909100Y-80772000D01*
X226909100Y-80772000D02*
X227759900Y-81622800D01*
X227759900Y-81622800D02*
X227759900Y-82722100D01*
X227759900Y-82722100D02*
X228168300Y-83130500D01*
X228168300Y-83130500D02*
X228168300Y-93553500D01*
X220073300Y-94742000D02*
X221261800Y-93553500D01*
X221261800Y-93553500D02*
X228168300Y-93553500D01*
X230378000Y-94742000D02*
X231503300Y-94742000D01*
X218948000Y-94742000D02*
X220073300Y-94742000D01*
X218385400Y-94742000D02*
X218948000Y-94742000D01*
X168402000Y-94793000D02*
X167276700Y-94793000D01*
X154432000Y-94793000D02*
X155557300Y-94793000D01*
X155557300Y-94793000D02*
X156682600Y-95918300D01*
X156682600Y-95918300D02*
X166151400Y-95918300D01*
X166151400Y-95918300D02*
X167276700Y-94793000D01*
X153869400Y-94793000D02*
X154432000Y-94793000D01*
X153869400Y-94793000D02*
X153306700Y-94793000D01*
X143002000Y-94793000D02*
X144127300Y-94793000D01*
X153306700Y-94793000D02*
X152181400Y-95918300D01*
X152181400Y-95918300D02*
X145252600Y-95918300D01*
X145252600Y-95918300D02*
X144127300Y-94793000D01*
X218385400Y-94742000D02*
X217822700Y-94742000D01*
X179832000Y-94793000D02*
X178706700Y-94793000D01*
X168402000Y-94793000D02*
X169527300Y-94793000D01*
X169527300Y-94793000D02*
X170652600Y-95918300D01*
X170652600Y-95918300D02*
X177581400Y-95918300D01*
X177581400Y-95918300D02*
X178706700Y-94793000D01*
X205080000Y-94716600D02*
X206205300Y-94716600D01*
X206205300Y-94716600D02*
X207356000Y-95867300D01*
X207356000Y-95867300D02*
X216697400Y-95867300D01*
X216697400Y-95867300D02*
X217822700Y-94742000D01*
X204517400Y-94716600D02*
X205080000Y-94716600D01*
X204517400Y-94716600D02*
X203954700Y-94716600D01*
X193650000Y-94716600D02*
X192524700Y-94716600D01*
X179832000Y-94793000D02*
X180957300Y-94793000D01*
X180957300Y-94793000D02*
X182112600Y-93637700D01*
X182112600Y-93637700D02*
X191445800Y-93637700D01*
X191445800Y-93637700D02*
X192524700Y-94716600D01*
X193650000Y-94716600D02*
X194775300Y-94716600D01*
X203954700Y-94716600D02*
X202829400Y-95841900D01*
X202829400Y-95841900D02*
X195900600Y-95841900D01*
X195900600Y-95841900D02*
X194775300Y-94716600D01*
X208642800Y-53812600D02*
X208408200Y-54047200D01*
X208408200Y-54047200D02*
X197621400Y-54047200D01*
X197621400Y-54047200D02*
X197504900Y-53930700D01*
X225112900Y-54597800D02*
X220056500Y-54597800D01*
X220056500Y-54597800D02*
X219535300Y-54076600D01*
X219535300Y-54076600D02*
X214029600Y-54076600D01*
X214029600Y-54076600D02*
X213765600Y-53812600D01*
X213765600Y-53812600D02*
X208642800Y-53812600D01*
X208642800Y-66718900D02*
X208642800Y-65417500D01*
X208642800Y-65417500D02*
X214838100Y-59222200D01*
X214838100Y-59222200D02*
X229068200Y-59222200D01*
X229068200Y-59222200D02*
X229280000Y-59434000D01*
X229280000Y-59434000D02*
X230254100Y-59434000D01*
X230254100Y-59434000D02*
X230957600Y-58730500D01*
X230957600Y-58730500D02*
X230957600Y-56511200D01*
X230957600Y-56511200D02*
X230078400Y-55632000D01*
X230078400Y-55632000D02*
X226147100Y-55632000D01*
X226147100Y-55632000D02*
X225112900Y-54597800D01*
X212700000Y-73271300D02*
X208642800Y-69214100D01*
X208642800Y-69214100D02*
X208642800Y-66718900D01*
X187452000Y-74473000D02*
X187452000Y-73347700D01*
X187452000Y-73347700D02*
X190021600Y-70778100D01*
X190021600Y-70778100D02*
X190021600Y-66620900D01*
X190021600Y-66620900D02*
X190021700Y-66620900D01*
X212700000Y-74396600D02*
X212700000Y-73271300D01*
X150622000Y-74473000D02*
X151747300Y-74473000D01*
X162052000Y-74473000D02*
X160926700Y-74473000D01*
X160926700Y-74473000D02*
X159801400Y-75598300D01*
X159801400Y-75598300D02*
X152872600Y-75598300D01*
X152872600Y-75598300D02*
X151747300Y-74473000D01*
X196925500Y-64054000D02*
X197252300Y-64380800D01*
X197252300Y-64380800D02*
X201369300Y-64380800D01*
X201369300Y-64380800D02*
X201369300Y-64380900D01*
X187452000Y-97333000D02*
X186326700Y-97333000D01*
X176022000Y-97333000D02*
X177147300Y-97333000D01*
X177147300Y-97333000D02*
X178272600Y-98458300D01*
X178272600Y-98458300D02*
X185201400Y-98458300D01*
X185201400Y-98458300D02*
X186326700Y-97333000D01*
X237998000Y-97282000D02*
X237998000Y-96156700D01*
X237998000Y-96156700D02*
X237716700Y-96156700D01*
X237716700Y-96156700D02*
X232060400Y-90500400D01*
X232060400Y-90500400D02*
X232060400Y-70906200D01*
X232060400Y-70906200D02*
X230673000Y-69518800D01*
X212599700Y-66161200D02*
X216136900Y-66161200D01*
X216136900Y-66161200D02*
X217882700Y-67907000D01*
X223689900Y-65220000D02*
X223335600Y-64865700D01*
X223335600Y-64865700D02*
X217689100Y-64865700D01*
X217689100Y-64865700D02*
X217394000Y-65160800D01*
X217394000Y-65160800D02*
X212962500Y-65160800D01*
X227965700Y-65625800D02*
X227965700Y-65785700D01*
X227965700Y-65785700D02*
X232599400Y-70419400D01*
X232599400Y-70419400D02*
X232599400Y-88499500D01*
X232599400Y-88499500D02*
X237716600Y-93616700D01*
X237716600Y-93616700D02*
X237998000Y-93616700D01*
X191994500Y-65190700D02*
X191994500Y-65113600D01*
X191994500Y-65113600D02*
X194610300Y-62497800D01*
X194610300Y-62497800D02*
X200938300Y-62497800D01*
X200938300Y-62497800D02*
X201023000Y-62582500D01*
X237998000Y-94742000D02*
X237998000Y-93616700D01*
X237998000Y-91076700D02*
X238279300Y-91076700D01*
X238279300Y-91076700D02*
X240490900Y-88865100D01*
X240490900Y-88865100D02*
X240490900Y-68308900D01*
X240490900Y-68308900D02*
X239436800Y-67254800D01*
X226568000Y-91076700D02*
X226849300Y-91076700D01*
X226849300Y-91076700D02*
X227716800Y-90209200D01*
X227716800Y-90209200D02*
X227716800Y-84138900D01*
X227716800Y-84138900D02*
X226889900Y-83312000D01*
X226889900Y-83312000D02*
X226160800Y-83312000D01*
X226160800Y-83312000D02*
X220166800Y-77318000D01*
X220166800Y-77318000D02*
X220166800Y-73521800D01*
X220166800Y-73521800D02*
X214796100Y-68151100D01*
X214796100Y-68151100D02*
X213517700Y-68151100D01*
X213517700Y-68151100D02*
X211781800Y-66415200D01*
X211781800Y-66415200D02*
X211781800Y-64420000D01*
X226568000Y-92202000D02*
X226568000Y-91076700D01*
X237998000Y-92202000D02*
X237998000Y-91076700D01*
X237998000Y-88536700D02*
X238220700Y-88536700D01*
X238220700Y-88536700D02*
X240039100Y-86718300D01*
X240039100Y-86718300D02*
X240039100Y-68882800D01*
X240039100Y-68882800D02*
X238436400Y-67280100D01*
X238436400Y-67280100D02*
X238436400Y-67229400D01*
X203572100Y-88459800D02*
X205665400Y-88459800D01*
X205665400Y-88459800D02*
X206842200Y-89636600D01*
X206842200Y-89636600D02*
X212700000Y-89636600D01*
X202395300Y-89636600D02*
X203572100Y-88459800D01*
X203572100Y-88459800D02*
X203572100Y-87748500D01*
X203572100Y-87748500D02*
X201650200Y-85826600D01*
X201650200Y-85826600D02*
X198192200Y-85826600D01*
X198192200Y-85826600D02*
X195652200Y-83286600D01*
X195652200Y-83286600D02*
X193306500Y-83286600D01*
X193306500Y-83286600D02*
X192524600Y-82504700D01*
X192524600Y-82504700D02*
X192524600Y-70859300D01*
X192524600Y-70859300D02*
X194916000Y-68467900D01*
X194916000Y-68467900D02*
X194916000Y-63328600D01*
X194916000Y-63328600D02*
X194916100Y-63328600D01*
X194916100Y-63328600D02*
X201941800Y-63328600D01*
X201941800Y-63328600D02*
X202473700Y-62796700D01*
X194916100Y-63223200D02*
X194916100Y-63328600D01*
X201270000Y-89636600D02*
X202395300Y-89636600D01*
X237998000Y-89662000D02*
X237998000Y-88536700D01*
X237998000Y-86156300D02*
X237954900Y-86156300D01*
X237954900Y-86156300D02*
X233049700Y-81251100D01*
X233049700Y-81251100D02*
X233049700Y-70137500D01*
X233049700Y-70137500D02*
X229344100Y-66431900D01*
X229344100Y-66431900D02*
X229344100Y-65953200D01*
X229344100Y-65953200D02*
X227728500Y-64337600D01*
X227728500Y-64337600D02*
X225201300Y-64337600D01*
X237998000Y-86156300D02*
X238015300Y-86156300D01*
X238015300Y-86156300D02*
X239588800Y-84582800D01*
X239588800Y-84582800D02*
X239588800Y-69407500D01*
X239588800Y-69407500D02*
X237711100Y-67529800D01*
X237711100Y-67529800D02*
X237711100Y-66928800D01*
X237711100Y-66928800D02*
X238438900Y-66201000D01*
X191524100Y-64071400D02*
X191269200Y-64326300D01*
X191269200Y-64326300D02*
X191269200Y-65553100D01*
X191269200Y-65553100D02*
X192213200Y-66497100D01*
X192213200Y-66497100D02*
X192213200Y-67772900D01*
X192213200Y-67772900D02*
X192054800Y-67931300D01*
X192054800Y-67931300D02*
X192054800Y-84586400D01*
X192054800Y-84586400D02*
X193295000Y-85826600D01*
X193295000Y-85826600D02*
X194038000Y-85826600D01*
X194038000Y-85826600D02*
X194831700Y-86620300D01*
X194831700Y-86620300D02*
X194831700Y-87096600D01*
X237998000Y-86156300D02*
X237998000Y-86199400D01*
X237998000Y-87122000D02*
X237998000Y-86199400D01*
X194831700Y-87096600D02*
X200144700Y-87096600D01*
X188577300Y-87173000D02*
X189626200Y-88221900D01*
X189626200Y-88221900D02*
X194128500Y-88221900D01*
X194128500Y-88221900D02*
X194831700Y-87518700D01*
X194831700Y-87518700D02*
X194831700Y-87096600D01*
X201270000Y-87096600D02*
X200144700Y-87096600D01*
X187452000Y-87173000D02*
X188577300Y-87173000D01*
X230403900Y-66466000D02*
X233500000Y-69562100D01*
X233500000Y-69562100D02*
X233500000Y-79240000D01*
X233500000Y-79240000D02*
X237716700Y-83456700D01*
X237716700Y-83456700D02*
X237998000Y-83456700D01*
X191712700Y-61916000D02*
X192614100Y-61014600D01*
X192614100Y-61014600D02*
X202213500Y-61014600D01*
X202213500Y-61014600D02*
X202316600Y-61117700D01*
X186889400Y-84633000D02*
X190716900Y-80805500D01*
X190716900Y-80805500D02*
X190716900Y-67062400D01*
X190716900Y-67062400D02*
X190798800Y-66980500D01*
X190798800Y-66980500D02*
X190798800Y-63119500D01*
X190798800Y-63119500D02*
X190988600Y-62929700D01*
X190988600Y-62929700D02*
X190988600Y-62640100D01*
X190988600Y-62640100D02*
X191712700Y-61916000D01*
X226568000Y-84582000D02*
X225442700Y-84582000D01*
X212700000Y-84556600D02*
X213825300Y-84556600D01*
X213825300Y-84556600D02*
X214925200Y-83456700D01*
X214925200Y-83456700D02*
X224317400Y-83456700D01*
X224317400Y-83456700D02*
X225442700Y-84582000D01*
X186889400Y-84633000D02*
X186326700Y-84633000D01*
X187452000Y-84633000D02*
X186889400Y-84633000D01*
X237998000Y-84582000D02*
X237998000Y-83456700D01*
X176022000Y-84633000D02*
X174896700Y-84633000D01*
X162052000Y-84633000D02*
X163177300Y-84633000D01*
X163177300Y-84633000D02*
X164302600Y-85758300D01*
X164302600Y-85758300D02*
X173771400Y-85758300D01*
X173771400Y-85758300D02*
X174896700Y-84633000D01*
X161489400Y-84633000D02*
X162052000Y-84633000D01*
X161489400Y-84633000D02*
X160926700Y-84633000D01*
X176022000Y-84633000D02*
X177147300Y-84633000D01*
X186326700Y-84633000D02*
X185201400Y-83507700D01*
X185201400Y-83507700D02*
X178272600Y-83507700D01*
X178272600Y-83507700D02*
X177147300Y-84633000D01*
X150622000Y-84633000D02*
X151747300Y-84633000D01*
X160926700Y-84633000D02*
X159801400Y-85758300D01*
X159801400Y-85758300D02*
X152872600Y-85758300D01*
X152872600Y-85758300D02*
X151747300Y-84633000D01*
X185279600Y-80370900D02*
X185279600Y-73774100D01*
X185279600Y-73774100D02*
X187893800Y-71159900D01*
X187893800Y-71159900D02*
X187893800Y-64361800D01*
X187893800Y-64361800D02*
X189813000Y-62442600D01*
X185279600Y-80370900D02*
X185876400Y-80967700D01*
X185876400Y-80967700D02*
X187452000Y-80967700D01*
X177147300Y-82093000D02*
X178272600Y-80967700D01*
X178272600Y-80967700D02*
X184682800Y-80967700D01*
X184682800Y-80967700D02*
X185279600Y-80370900D01*
X176022000Y-82093000D02*
X177147300Y-82093000D01*
X187452000Y-82093000D02*
X187452000Y-80967700D01*
X150622000Y-82093000D02*
X151747300Y-82093000D01*
X162052000Y-82093000D02*
X160926700Y-82093000D01*
X160926700Y-82093000D02*
X159801400Y-80967700D01*
X159801400Y-80967700D02*
X152872600Y-80967700D01*
X152872600Y-80967700D02*
X151747300Y-82093000D01*
X228329300Y-60420000D02*
X232641300Y-64732000D01*
X232641300Y-64732000D02*
X232641300Y-67842300D01*
X232641300Y-67842300D02*
X233950300Y-69151300D01*
X233950300Y-69151300D02*
X233950300Y-77150300D01*
X233950300Y-77150300D02*
X237716700Y-80916700D01*
X237716700Y-80916700D02*
X237998000Y-80916700D01*
X201270000Y-82016600D02*
X202395300Y-82016600D01*
X212700000Y-82016600D02*
X211574700Y-82016600D01*
X211574700Y-82016600D02*
X210449400Y-83141900D01*
X210449400Y-83141900D02*
X203520600Y-83141900D01*
X203520600Y-83141900D02*
X202395300Y-82016600D01*
X237998000Y-82042000D02*
X237998000Y-80916700D01*
X187452000Y-78427700D02*
X187215300Y-78427700D01*
X187215300Y-78427700D02*
X186326600Y-77539000D01*
X186326600Y-77539000D02*
X186326600Y-73364000D01*
X186326600Y-73364000D02*
X188851100Y-70839500D01*
X188851100Y-70839500D02*
X188851100Y-64430300D01*
X188851100Y-64430300D02*
X190538300Y-62743100D01*
X190538300Y-62743100D02*
X190538300Y-60667600D01*
X190538300Y-60667600D02*
X194068500Y-57137400D01*
X194068500Y-57137400D02*
X194981600Y-57137400D01*
X204629100Y-56632200D02*
X204231900Y-57029400D01*
X204231900Y-57029400D02*
X195089600Y-57029400D01*
X195089600Y-57029400D02*
X194981600Y-57137400D01*
X219666500Y-57111500D02*
X214663900Y-57111500D01*
X214663900Y-57111500D02*
X213462700Y-55910300D01*
X213462700Y-55910300D02*
X212136500Y-55910300D01*
X212136500Y-55910300D02*
X211945700Y-55719500D01*
X211945700Y-55719500D02*
X205496900Y-55719500D01*
X205496900Y-55719500D02*
X204629100Y-56587300D01*
X204629100Y-56587300D02*
X204629100Y-56632200D01*
X187452000Y-79553000D02*
X187452000Y-78427700D01*
X192157900Y-56912300D02*
X187443400Y-61626800D01*
X187443400Y-61626800D02*
X187443400Y-70526900D01*
X187443400Y-70526900D02*
X180957300Y-77013000D01*
X224852900Y-56582100D02*
X228090700Y-56582100D01*
X228090700Y-56582100D02*
X229767000Y-58258400D01*
X192157900Y-56912300D02*
X192371300Y-56912300D01*
X192371300Y-56912300D02*
X192871500Y-56412100D01*
X192871500Y-56412100D02*
X203518200Y-56412100D01*
X203518200Y-56412100D02*
X204826700Y-55103600D01*
X204826700Y-55103600D02*
X212580000Y-55103600D01*
X179832000Y-77013000D02*
X180957300Y-77013000D01*
X224852900Y-56582100D02*
X223914900Y-55644100D01*
X223914900Y-55644100D02*
X213833400Y-55644100D01*
X213833400Y-55644100D02*
X213649300Y-55460000D01*
X213649300Y-55460000D02*
X212936400Y-55460000D01*
X212936400Y-55460000D02*
X212580000Y-55103600D01*
X239980400Y-55620000D02*
X239980400Y-55563900D01*
X239980400Y-55563900D02*
X238434300Y-54017800D01*
X238434300Y-54017800D02*
X238306700Y-54017800D01*
X238306700Y-54017800D02*
X234782300Y-50493400D01*
X234782300Y-50493400D02*
X223034500Y-50493400D01*
X223034500Y-50493400D02*
X222543900Y-50984000D01*
X222543900Y-50984000D02*
X222133100Y-50984000D01*
X222133100Y-50984000D02*
X221440300Y-51676800D01*
X221440300Y-51676800D02*
X221440300Y-51709300D01*
X221440300Y-51709300D02*
X221440200Y-51709300D01*
X195631700Y-55673500D02*
X192973200Y-55673500D01*
X192973200Y-55673500D02*
X192459800Y-56186900D01*
X192459800Y-56186900D02*
X191820200Y-56186900D01*
X191820200Y-56186900D02*
X186993000Y-61014100D01*
X186993000Y-61014100D02*
X186993000Y-69856700D01*
X186993000Y-69856700D02*
X181979300Y-74870400D01*
X213513500Y-54600900D02*
X213726100Y-54813500D01*
X213726100Y-54813500D02*
X217374800Y-54813500D01*
X195631700Y-55673500D02*
X195631700Y-55673400D01*
X195631700Y-55673400D02*
X203620000Y-55673400D01*
X203620000Y-55673400D02*
X204736900Y-54556500D01*
X204736900Y-54556500D02*
X212101300Y-54556500D01*
X212101300Y-54556500D02*
X212279600Y-54378200D01*
X212279600Y-54378200D02*
X213290800Y-54378200D01*
X213290800Y-54378200D02*
X213513500Y-54600900D01*
X238210700Y-54820000D02*
X234614200Y-51223500D01*
X234614200Y-51223500D02*
X223440600Y-51223500D01*
X223440600Y-51223500D02*
X223405100Y-51259000D01*
X192159300Y-55461600D02*
X192397800Y-55223100D01*
X192397800Y-55223100D02*
X194669300Y-55223100D01*
X194669300Y-55223100D02*
X195072400Y-54820000D01*
X195072400Y-54820000D02*
X201323900Y-54820000D01*
X179832000Y-73347700D02*
X186542700Y-66637000D01*
X186542700Y-66637000D02*
X186542700Y-60803100D01*
X186542700Y-60803100D02*
X191884200Y-55461600D01*
X191884200Y-55461600D02*
X192159300Y-55461600D01*
X179832000Y-74473000D02*
X179832000Y-73347700D01*
X195346200Y-53520300D02*
X195668400Y-53198100D01*
X195668400Y-53198100D02*
X199903300Y-53198100D01*
X199903300Y-53198100D02*
X200244600Y-53539400D01*
X200244600Y-53539400D02*
X203256400Y-53539400D01*
X203256400Y-53539400D02*
X203473900Y-53321900D01*
X238607100Y-53292500D02*
X235357700Y-50043100D01*
X235357700Y-50043100D02*
X222544000Y-50043100D01*
X222544000Y-50043100D02*
X222501400Y-50000500D01*
X195346200Y-53520300D02*
X194130300Y-54736200D01*
X194130300Y-54736200D02*
X190864200Y-54736200D01*
X190864200Y-54736200D02*
X182139500Y-63460900D01*
X182139500Y-63460900D02*
X182139500Y-68607600D01*
X182139500Y-68607600D02*
X177457900Y-73289200D01*
X177457900Y-73289200D02*
X173516700Y-73289200D01*
X173516700Y-73289200D02*
X171207500Y-75598400D01*
X171207500Y-75598400D02*
X167131900Y-75598400D01*
X167131900Y-75598400D02*
X163177300Y-79553000D01*
X162052000Y-79553000D02*
X163177300Y-79553000D01*
X191643400Y-52724400D02*
X192475900Y-52724400D01*
X192475900Y-52724400D02*
X192966600Y-52233700D01*
X192966600Y-52233700D02*
X200601500Y-52233700D01*
X200601500Y-52233700D02*
X200731600Y-52363800D01*
X191643400Y-52724400D02*
X191047500Y-52724400D01*
X191047500Y-52724400D02*
X180688800Y-63083100D01*
X180688800Y-63083100D02*
X180688800Y-69400300D01*
X180688800Y-69400300D02*
X177678800Y-72410300D01*
X177678800Y-72410300D02*
X168302300Y-72410300D01*
X168302300Y-72410300D02*
X162572300Y-78140300D01*
X162572300Y-78140300D02*
X154996700Y-78140300D01*
X154996700Y-78140300D02*
X153869400Y-77013000D01*
X153869400Y-77013000D02*
X153306700Y-77013000D01*
X154432000Y-77013000D02*
X153869400Y-77013000D01*
X143002000Y-77013000D02*
X144127300Y-77013000D01*
X153306700Y-77013000D02*
X152181400Y-78138300D01*
X152181400Y-78138300D02*
X145252600Y-78138300D01*
X145252600Y-78138300D02*
X144127300Y-77013000D01*
X192165500Y-51765300D02*
X192292400Y-51638400D01*
X192292400Y-51638400D02*
X203842100Y-51638400D01*
X203842100Y-51638400D02*
X204117200Y-51913500D01*
X191325400Y-51765300D02*
X190812400Y-51252300D01*
X190812400Y-51252300D02*
X190812400Y-48375100D01*
X190812400Y-48375100D02*
X191200900Y-47986600D01*
X191200900Y-47986600D02*
X222662500Y-47986600D01*
X222662500Y-47986600D02*
X223993600Y-49317700D01*
X191325400Y-51765300D02*
X192165500Y-51765300D01*
X162052000Y-77013000D02*
X167105100Y-71959900D01*
X167105100Y-71959900D02*
X177492300Y-71959900D01*
X177492300Y-71959900D02*
X179405400Y-70046800D01*
X179405400Y-70046800D02*
X179405400Y-63685300D01*
X179405400Y-63685300D02*
X191325400Y-51765300D01*
X191104200Y-53694500D02*
X193113600Y-53694500D01*
X193113600Y-53694500D02*
X194060500Y-52747600D01*
X194060500Y-52747600D02*
X200089700Y-52747600D01*
X200089700Y-52747600D02*
X200431200Y-53089100D01*
X200431200Y-53089100D02*
X201654900Y-53089100D01*
X201654900Y-53089100D02*
X202380200Y-52363800D01*
X191104200Y-53694500D02*
X181414100Y-63384600D01*
X181414100Y-63384600D02*
X181414100Y-68026200D01*
X221810200Y-63571400D02*
X222546200Y-62835400D01*
X222546200Y-62835400D02*
X229025200Y-62835400D01*
X230378000Y-82042000D02*
X230378000Y-80916700D01*
X230378000Y-80916700D02*
X230096600Y-80916700D01*
X230096600Y-80916700D02*
X229252700Y-80072800D01*
X229252700Y-80072800D02*
X229252700Y-73305200D01*
X229252700Y-73305200D02*
X221538500Y-65591000D01*
X154432000Y-82093000D02*
X155557300Y-82093000D01*
X155557300Y-82093000D02*
X156690500Y-83226200D01*
X156690500Y-83226200D02*
X176651000Y-83226200D01*
X176651000Y-83226200D02*
X177784200Y-82093000D01*
X177784200Y-82093000D02*
X179832000Y-82093000D01*
X233362200Y-52117700D02*
X232918300Y-51673800D01*
X232918300Y-51673800D02*
X224463300Y-51673800D01*
X224463300Y-51673800D02*
X224152700Y-51984400D01*
X224152700Y-51984400D02*
X222715700Y-51984400D01*
X222715700Y-51984400D02*
X222440600Y-51709300D01*
X237322700Y-70112000D02*
X237322700Y-68313500D01*
X237322700Y-68313500D02*
X235167800Y-66158600D01*
X235167800Y-66158600D02*
X235167800Y-59013800D01*
X235167800Y-59013800D02*
X235167800Y-53923300D01*
X235167800Y-53923300D02*
X233362200Y-52117700D01*
X231503300Y-97282000D02*
X233597200Y-99375900D01*
X233597200Y-99375900D02*
X234863400Y-99375900D01*
X234863400Y-99375900D02*
X235296800Y-99809300D01*
X235296800Y-99809300D02*
X239066200Y-99809300D01*
X239066200Y-99809300D02*
X242393200Y-96482300D01*
X242393200Y-96482300D02*
X242393200Y-95928900D01*
X242393200Y-95928900D02*
X245582400Y-92739700D01*
X245582400Y-92739700D02*
X245582400Y-63890800D01*
X245582400Y-63890800D02*
X247521000Y-61952200D01*
X143002000Y-97333000D02*
X144127300Y-97333000D01*
X154432000Y-97333000D02*
X153306700Y-97333000D01*
X153306700Y-97333000D02*
X152181400Y-98458300D01*
X152181400Y-98458300D02*
X145252600Y-98458300D01*
X145252600Y-98458300D02*
X144127300Y-97333000D01*
X230378000Y-97282000D02*
X231503300Y-97282000D01*
X193650000Y-97256600D02*
X192524700Y-97256600D01*
X179832000Y-97333000D02*
X180957300Y-97333000D01*
X180957300Y-97333000D02*
X182112600Y-96177700D01*
X182112600Y-96177700D02*
X191445800Y-96177700D01*
X191445800Y-96177700D02*
X192524700Y-97256600D01*
X205080000Y-97256600D02*
X203954700Y-97256600D01*
X193650000Y-97256600D02*
X194775300Y-97256600D01*
X194775300Y-97256600D02*
X195900600Y-98381900D01*
X195900600Y-98381900D02*
X202829400Y-98381900D01*
X202829400Y-98381900D02*
X203954700Y-97256600D01*
X218948000Y-97282000D02*
X217822700Y-97282000D01*
X205080000Y-97256600D02*
X206205300Y-97256600D01*
X206205300Y-97256600D02*
X207356000Y-98407300D01*
X207356000Y-98407300D02*
X216697400Y-98407300D01*
X216697400Y-98407300D02*
X217822700Y-97282000D01*
M02*
