G04 #@! TF.GenerationSoftware,KiCad,Pcbnew,(5.1.2-1)-1*
G04 #@! TF.CreationDate,2019-06-02T15:15:07+01:00*
G04 #@! TF.ProjectId,DRAM Board,4452414d-2042-46f6-9172-642e6b696361,rev?*
G04 #@! TF.SameCoordinates,Original*
G04 #@! TF.FileFunction,Legend,Top*
G04 #@! TF.FilePolarity,Positive*
%FSLAX46Y46*%
G04 Gerber Fmt 4.6, Leading zero omitted, Abs format (unit mm)*
G04 Created by KiCad (PCBNEW (5.1.2-1)-1) date 2019-06-02 15:15:07*
%MOMM*%
%LPD*%
G04 APERTURE LIST*
%ADD10C,0.075000*%
%ADD11C,0.150000*%
%ADD12C,0.125000*%
%ADD13C,0.120000*%
G04 APERTURE END LIST*
D10*
X235551714Y-74293428D02*
X235551714Y-74779142D01*
X235523142Y-74836285D01*
X235494571Y-74864857D01*
X235437428Y-74893428D01*
X235351714Y-74893428D01*
X235294571Y-74864857D01*
X235551714Y-74664857D02*
X235494571Y-74693428D01*
X235380285Y-74693428D01*
X235323142Y-74664857D01*
X235294571Y-74636285D01*
X235266000Y-74579142D01*
X235266000Y-74407714D01*
X235294571Y-74350571D01*
X235323142Y-74322000D01*
X235380285Y-74293428D01*
X235494571Y-74293428D01*
X235551714Y-74322000D01*
X235837428Y-74293428D02*
X235837428Y-74693428D01*
X235837428Y-74350571D02*
X235866000Y-74322000D01*
X235923142Y-74293428D01*
X236008857Y-74293428D01*
X236066000Y-74322000D01*
X236094571Y-74379142D01*
X236094571Y-74693428D01*
X236637428Y-74693428D02*
X236637428Y-74093428D01*
X236637428Y-74664857D02*
X236580285Y-74693428D01*
X236466000Y-74693428D01*
X236408857Y-74664857D01*
X236380285Y-74636285D01*
X236351714Y-74579142D01*
X236351714Y-74407714D01*
X236380285Y-74350571D01*
X236408857Y-74322000D01*
X236466000Y-74293428D01*
X236580285Y-74293428D01*
X236637428Y-74322000D01*
X229720857Y-98613928D02*
X229863714Y-99013928D01*
X230006571Y-98613928D01*
X230492285Y-98985357D02*
X230435142Y-99013928D01*
X230320857Y-99013928D01*
X230263714Y-98985357D01*
X230235142Y-98956785D01*
X230206571Y-98899642D01*
X230206571Y-98728214D01*
X230235142Y-98671071D01*
X230263714Y-98642500D01*
X230320857Y-98613928D01*
X230435142Y-98613928D01*
X230492285Y-98642500D01*
X231006571Y-98985357D02*
X230949428Y-99013928D01*
X230835142Y-99013928D01*
X230778000Y-98985357D01*
X230749428Y-98956785D01*
X230720857Y-98899642D01*
X230720857Y-98728214D01*
X230749428Y-98671071D01*
X230778000Y-98642500D01*
X230835142Y-98613928D01*
X230949428Y-98613928D01*
X231006571Y-98642500D01*
X193017857Y-98613928D02*
X193160714Y-99013928D01*
X193303571Y-98613928D01*
X193789285Y-98985357D02*
X193732142Y-99013928D01*
X193617857Y-99013928D01*
X193560714Y-98985357D01*
X193532142Y-98956785D01*
X193503571Y-98899642D01*
X193503571Y-98728214D01*
X193532142Y-98671071D01*
X193560714Y-98642500D01*
X193617857Y-98613928D01*
X193732142Y-98613928D01*
X193789285Y-98642500D01*
X194303571Y-98985357D02*
X194246428Y-99013928D01*
X194132142Y-99013928D01*
X194075000Y-98985357D01*
X194046428Y-98956785D01*
X194017857Y-98899642D01*
X194017857Y-98728214D01*
X194046428Y-98671071D01*
X194075000Y-98642500D01*
X194132142Y-98613928D01*
X194246428Y-98613928D01*
X194303571Y-98642500D01*
X161637714Y-75817428D02*
X161637714Y-76303142D01*
X161609142Y-76360285D01*
X161580571Y-76388857D01*
X161523428Y-76417428D01*
X161437714Y-76417428D01*
X161380571Y-76388857D01*
X161637714Y-76188857D02*
X161580571Y-76217428D01*
X161466285Y-76217428D01*
X161409142Y-76188857D01*
X161380571Y-76160285D01*
X161352000Y-76103142D01*
X161352000Y-75931714D01*
X161380571Y-75874571D01*
X161409142Y-75846000D01*
X161466285Y-75817428D01*
X161580571Y-75817428D01*
X161637714Y-75846000D01*
X161923428Y-75817428D02*
X161923428Y-76217428D01*
X161923428Y-75874571D02*
X161952000Y-75846000D01*
X162009142Y-75817428D01*
X162094857Y-75817428D01*
X162152000Y-75846000D01*
X162180571Y-75903142D01*
X162180571Y-76217428D01*
X162723428Y-76217428D02*
X162723428Y-75617428D01*
X162723428Y-76188857D02*
X162666285Y-76217428D01*
X162552000Y-76217428D01*
X162494857Y-76188857D01*
X162466285Y-76160285D01*
X162437714Y-76103142D01*
X162437714Y-75931714D01*
X162466285Y-75874571D01*
X162494857Y-75846000D01*
X162552000Y-75817428D01*
X162666285Y-75817428D01*
X162723428Y-75846000D01*
X151996857Y-74356928D02*
X152139714Y-74756928D01*
X152282571Y-74356928D01*
X152768285Y-74728357D02*
X152711142Y-74756928D01*
X152596857Y-74756928D01*
X152539714Y-74728357D01*
X152511142Y-74699785D01*
X152482571Y-74642642D01*
X152482571Y-74471214D01*
X152511142Y-74414071D01*
X152539714Y-74385500D01*
X152596857Y-74356928D01*
X152711142Y-74356928D01*
X152768285Y-74385500D01*
X153282571Y-74728357D02*
X153225428Y-74756928D01*
X153111142Y-74756928D01*
X153054000Y-74728357D01*
X153025428Y-74699785D01*
X152996857Y-74642642D01*
X152996857Y-74471214D01*
X153025428Y-74414071D01*
X153054000Y-74385500D01*
X153111142Y-74356928D01*
X153225428Y-74356928D01*
X153282571Y-74385500D01*
X155806857Y-97153428D02*
X155949714Y-97553428D01*
X156092571Y-97153428D01*
X156578285Y-97524857D02*
X156521142Y-97553428D01*
X156406857Y-97553428D01*
X156349714Y-97524857D01*
X156321142Y-97496285D01*
X156292571Y-97439142D01*
X156292571Y-97267714D01*
X156321142Y-97210571D01*
X156349714Y-97182000D01*
X156406857Y-97153428D01*
X156521142Y-97153428D01*
X156578285Y-97182000D01*
X157092571Y-97524857D02*
X157035428Y-97553428D01*
X156921142Y-97553428D01*
X156864000Y-97524857D01*
X156835428Y-97496285D01*
X156806857Y-97439142D01*
X156806857Y-97267714D01*
X156835428Y-97210571D01*
X156864000Y-97182000D01*
X156921142Y-97153428D01*
X157035428Y-97153428D01*
X157092571Y-97182000D01*
X144376857Y-97153428D02*
X144519714Y-97553428D01*
X144662571Y-97153428D01*
X145148285Y-97524857D02*
X145091142Y-97553428D01*
X144976857Y-97553428D01*
X144919714Y-97524857D01*
X144891142Y-97496285D01*
X144862571Y-97439142D01*
X144862571Y-97267714D01*
X144891142Y-97210571D01*
X144919714Y-97182000D01*
X144976857Y-97153428D01*
X145091142Y-97153428D01*
X145148285Y-97182000D01*
X145662571Y-97524857D02*
X145605428Y-97553428D01*
X145491142Y-97553428D01*
X145434000Y-97524857D01*
X145405428Y-97496285D01*
X145376857Y-97439142D01*
X145376857Y-97267714D01*
X145405428Y-97210571D01*
X145434000Y-97182000D01*
X145491142Y-97153428D01*
X145605428Y-97153428D01*
X145662571Y-97182000D01*
D11*
X209050476Y-89352380D02*
X209050476Y-88352380D01*
X209479047Y-89304761D02*
X209621904Y-89352380D01*
X209860000Y-89352380D01*
X209955238Y-89304761D01*
X210002857Y-89257142D01*
X210050476Y-89161904D01*
X210050476Y-89066666D01*
X210002857Y-88971428D01*
X209955238Y-88923809D01*
X209860000Y-88876190D01*
X209669523Y-88828571D01*
X209574285Y-88780952D01*
X209526666Y-88733333D01*
X209479047Y-88638095D01*
X209479047Y-88542857D01*
X209526666Y-88447619D01*
X209574285Y-88400000D01*
X209669523Y-88352380D01*
X209907619Y-88352380D01*
X210050476Y-88400000D01*
X210907619Y-88685714D02*
X210907619Y-89352380D01*
X210669523Y-88304761D02*
X210431428Y-89019047D01*
X211050476Y-89019047D01*
X211955238Y-89352380D02*
X211383809Y-89352380D01*
X211669523Y-89352380D02*
X211669523Y-88352380D01*
X211574285Y-88495238D01*
X211479047Y-88590476D01*
X211383809Y-88638095D01*
X212955238Y-89257142D02*
X212907619Y-89304761D01*
X212764761Y-89352380D01*
X212669523Y-89352380D01*
X212526666Y-89304761D01*
X212431428Y-89209523D01*
X212383809Y-89114285D01*
X212336190Y-88923809D01*
X212336190Y-88780952D01*
X212383809Y-88590476D01*
X212431428Y-88495238D01*
X212526666Y-88400000D01*
X212669523Y-88352380D01*
X212764761Y-88352380D01*
X212907619Y-88400000D01*
X212955238Y-88447619D01*
X213907619Y-89352380D02*
X213336190Y-89352380D01*
X213621904Y-89352380D02*
X213621904Y-88352380D01*
X213526666Y-88495238D01*
X213431428Y-88590476D01*
X213336190Y-88638095D01*
X214764761Y-88352380D02*
X214574285Y-88352380D01*
X214479047Y-88400000D01*
X214431428Y-88447619D01*
X214336190Y-88590476D01*
X214288571Y-88780952D01*
X214288571Y-89161904D01*
X214336190Y-89257142D01*
X214383809Y-89304761D01*
X214479047Y-89352380D01*
X214669523Y-89352380D01*
X214764761Y-89304761D01*
X214812380Y-89257142D01*
X214860000Y-89161904D01*
X214860000Y-88923809D01*
X214812380Y-88828571D01*
X214764761Y-88780952D01*
X214669523Y-88733333D01*
X214479047Y-88733333D01*
X214383809Y-88780952D01*
X214336190Y-88828571D01*
X214288571Y-88923809D01*
X215240952Y-88447619D02*
X215288571Y-88400000D01*
X215383809Y-88352380D01*
X215621904Y-88352380D01*
X215717142Y-88400000D01*
X215764761Y-88447619D01*
X215812380Y-88542857D01*
X215812380Y-88638095D01*
X215764761Y-88780952D01*
X215193333Y-89352380D01*
X215812380Y-89352380D01*
X216717142Y-88352380D02*
X216240952Y-88352380D01*
X216193333Y-88828571D01*
X216240952Y-88780952D01*
X216336190Y-88733333D01*
X216574285Y-88733333D01*
X216669523Y-88780952D01*
X216717142Y-88828571D01*
X216764761Y-88923809D01*
X216764761Y-89161904D01*
X216717142Y-89257142D01*
X216669523Y-89304761D01*
X216574285Y-89352380D01*
X216336190Y-89352380D01*
X216240952Y-89304761D01*
X216193333Y-89257142D01*
X217098095Y-88352380D02*
X217764761Y-88352380D01*
X217336190Y-89352380D01*
X168310491Y-89352380D02*
X168435491Y-88352380D01*
X168745014Y-89304761D02*
X168881919Y-89352380D01*
X169120014Y-89352380D01*
X169221205Y-89304761D01*
X169274776Y-89257142D01*
X169334300Y-89161904D01*
X169346205Y-89066666D01*
X169310491Y-88971428D01*
X169268824Y-88923809D01*
X169179538Y-88876190D01*
X168995014Y-88828571D01*
X168905729Y-88780952D01*
X168864062Y-88733333D01*
X168828348Y-88638095D01*
X168840252Y-88542857D01*
X168899776Y-88447619D01*
X168953348Y-88400000D01*
X169054538Y-88352380D01*
X169292633Y-88352380D01*
X169429538Y-88400000D01*
X170250967Y-88685714D02*
X170167633Y-89352380D01*
X170060491Y-88304761D02*
X169733110Y-89019047D01*
X170352157Y-89019047D01*
X171215252Y-89352380D02*
X170643824Y-89352380D01*
X170929538Y-89352380D02*
X171054538Y-88352380D01*
X170941443Y-88495238D01*
X170834300Y-88590476D01*
X170733110Y-88638095D01*
X172227157Y-89257142D02*
X172173586Y-89304761D01*
X172024776Y-89352380D01*
X171929538Y-89352380D01*
X171792633Y-89304761D01*
X171709300Y-89209523D01*
X171673586Y-89114285D01*
X171649776Y-88923809D01*
X171667633Y-88780952D01*
X171739062Y-88590476D01*
X171798586Y-88495238D01*
X171905729Y-88400000D01*
X172054538Y-88352380D01*
X172149776Y-88352380D01*
X172286681Y-88400000D01*
X172328348Y-88447619D01*
X173167633Y-89352380D02*
X172596205Y-89352380D01*
X172881919Y-89352380D02*
X173006919Y-88352380D01*
X172893824Y-88495238D01*
X172786681Y-88590476D01*
X172685491Y-88638095D01*
X174149776Y-88352380D02*
X173959300Y-88352380D01*
X173858110Y-88400000D01*
X173804538Y-88447619D01*
X173691443Y-88590476D01*
X173620014Y-88780952D01*
X173572395Y-89161904D01*
X173608110Y-89257142D01*
X173649776Y-89304761D01*
X173739062Y-89352380D01*
X173929538Y-89352380D01*
X174030729Y-89304761D01*
X174084300Y-89257142D01*
X174143824Y-89161904D01*
X174173586Y-88923809D01*
X174137872Y-88828571D01*
X174096205Y-88780952D01*
X174006919Y-88733333D01*
X173816443Y-88733333D01*
X173715252Y-88780952D01*
X173661681Y-88828571D01*
X173602157Y-88923809D01*
X174614062Y-88447619D02*
X174667633Y-88400000D01*
X174768824Y-88352380D01*
X175006919Y-88352380D01*
X175096205Y-88400000D01*
X175137872Y-88447619D01*
X175173586Y-88542857D01*
X175161681Y-88638095D01*
X175096205Y-88780952D01*
X174453348Y-89352380D01*
X175072395Y-89352380D01*
X176102157Y-88352380D02*
X175625967Y-88352380D01*
X175518824Y-88828571D01*
X175572395Y-88780952D01*
X175673586Y-88733333D01*
X175911681Y-88733333D01*
X176000967Y-88780952D01*
X176042633Y-88828571D01*
X176078348Y-88923809D01*
X176048586Y-89161904D01*
X175989062Y-89257142D01*
X175935491Y-89304761D01*
X175834300Y-89352380D01*
X175596205Y-89352380D01*
X175506919Y-89304761D01*
X175465252Y-89257142D01*
X176483110Y-88352380D02*
X177149776Y-88352380D01*
X176596205Y-89352380D01*
X238532142Y-98345491D02*
X237632142Y-98232991D01*
X238060714Y-98286562D02*
X238060714Y-97772276D01*
X238532142Y-97831205D02*
X237632142Y-97718705D01*
X238489285Y-97054419D02*
X238532142Y-97145491D01*
X238532142Y-97316919D01*
X238489285Y-97397276D01*
X238403571Y-97429419D01*
X238060714Y-97386562D01*
X237975000Y-97332991D01*
X237932142Y-97241919D01*
X237932142Y-97070491D01*
X237975000Y-96990133D01*
X238060714Y-96957991D01*
X238146428Y-96968705D01*
X238232142Y-97407991D01*
X238532142Y-96502633D02*
X238489285Y-96582991D01*
X238403571Y-96615133D01*
X237632142Y-96518705D01*
X238532142Y-96031205D02*
X238489285Y-96111562D01*
X238403571Y-96143705D01*
X237632142Y-96047276D01*
X238532142Y-95559776D02*
X238489285Y-95640133D01*
X238446428Y-95677633D01*
X238360714Y-95709776D01*
X238103571Y-95677633D01*
X238017857Y-95624062D01*
X237975000Y-95575848D01*
X237932142Y-95484776D01*
X237932142Y-95356205D01*
X237975000Y-95275848D01*
X238017857Y-95238348D01*
X238103571Y-95206205D01*
X238360714Y-95238348D01*
X238446428Y-95291919D01*
X238489285Y-95340133D01*
X238532142Y-95431205D01*
X238532142Y-95559776D01*
X238446428Y-93663348D02*
X238489285Y-93711562D01*
X238532142Y-93845491D01*
X238532142Y-93931205D01*
X238489285Y-94054419D01*
X238403571Y-94129419D01*
X238317857Y-94161562D01*
X238146428Y-94182991D01*
X238017857Y-94166919D01*
X237846428Y-94102633D01*
X237760714Y-94049062D01*
X237675000Y-93952633D01*
X237632142Y-93818705D01*
X237632142Y-93732991D01*
X237675000Y-93609776D01*
X237717857Y-93572276D01*
X238532142Y-92902633D02*
X238060714Y-92843705D01*
X237975000Y-92875848D01*
X237932142Y-92956205D01*
X237932142Y-93127633D01*
X237975000Y-93218705D01*
X238489285Y-92897276D02*
X238532142Y-92988348D01*
X238532142Y-93202633D01*
X238489285Y-93282991D01*
X238403571Y-93315133D01*
X238317857Y-93304419D01*
X238232142Y-93250848D01*
X238189285Y-93159776D01*
X238189285Y-92945491D01*
X238146428Y-92854419D01*
X237932142Y-92484776D02*
X238532142Y-92345491D01*
X237932142Y-92056205D01*
X238489285Y-91440133D02*
X238532142Y-91531205D01*
X238532142Y-91702633D01*
X238489285Y-91782991D01*
X238403571Y-91815133D01*
X238060714Y-91772276D01*
X237975000Y-91718705D01*
X237932142Y-91627633D01*
X237932142Y-91456205D01*
X237975000Y-91375848D01*
X238060714Y-91343705D01*
X238146428Y-91354419D01*
X238232142Y-91793705D01*
X238532142Y-90331205D02*
X237632142Y-90218705D01*
X237632142Y-90004419D01*
X237675000Y-89881205D01*
X237760714Y-89806205D01*
X237846428Y-89774062D01*
X238017857Y-89752633D01*
X238146428Y-89768705D01*
X238317857Y-89832991D01*
X238403571Y-89886562D01*
X238489285Y-89982991D01*
X238532142Y-90116919D01*
X238532142Y-90331205D01*
X237932142Y-89441919D02*
X238532142Y-89345491D01*
X238103571Y-89120491D01*
X238532142Y-89002633D01*
X237932142Y-88756205D01*
X238489285Y-88140133D02*
X238532142Y-88231205D01*
X238532142Y-88402633D01*
X238489285Y-88482991D01*
X238403571Y-88515133D01*
X238060714Y-88472276D01*
X237975000Y-88418705D01*
X237932142Y-88327633D01*
X237932142Y-88156205D01*
X237975000Y-88075848D01*
X238060714Y-88043705D01*
X238146428Y-88054419D01*
X238232142Y-88493705D01*
X238532142Y-87588348D02*
X238489285Y-87668705D01*
X238403571Y-87700848D01*
X237632142Y-87604419D01*
X238532142Y-87116919D02*
X238489285Y-87197276D01*
X238403571Y-87229419D01*
X237632142Y-87132991D01*
X238489285Y-86425848D02*
X238532142Y-86516919D01*
X238532142Y-86688348D01*
X238489285Y-86768705D01*
X238403571Y-86800848D01*
X238060714Y-86757991D01*
X237975000Y-86704419D01*
X237932142Y-86613348D01*
X237932142Y-86441919D01*
X237975000Y-86361562D01*
X238060714Y-86329419D01*
X238146428Y-86340133D01*
X238232142Y-86779419D01*
X238532142Y-86002633D02*
X237932142Y-85927633D01*
X238103571Y-85949062D02*
X238017857Y-85895491D01*
X237975000Y-85847276D01*
X237932142Y-85756205D01*
X237932142Y-85670491D01*
X238489285Y-85482991D02*
X238532142Y-85402633D01*
X238532142Y-85231205D01*
X238489285Y-85140133D01*
X238403571Y-85086562D01*
X238360714Y-85081205D01*
X238275000Y-85113348D01*
X238232142Y-85193705D01*
X238232142Y-85322276D01*
X238189285Y-85402633D01*
X238103571Y-85434776D01*
X238060714Y-85429419D01*
X237975000Y-85375848D01*
X237932142Y-85284776D01*
X237932142Y-85156205D01*
X237975000Y-85075848D01*
X238446428Y-84706205D02*
X238489285Y-84668705D01*
X238532142Y-84716919D01*
X238489285Y-84754419D01*
X238446428Y-84706205D01*
X238532142Y-84716919D01*
X238189285Y-84674062D02*
X237675000Y-84652633D01*
X237632142Y-84604419D01*
X237675000Y-84566919D01*
X238189285Y-84674062D01*
X237632142Y-84604419D01*
D12*
X192436666Y-93107061D02*
X192398571Y-93140394D01*
X192284285Y-93202299D01*
X192208095Y-93230870D01*
X192093809Y-93254680D01*
X191903333Y-93268965D01*
X191750952Y-93249918D01*
X191560476Y-93188013D01*
X191446190Y-93135632D01*
X191370000Y-93088013D01*
X191255714Y-92997537D01*
X191217619Y-92954680D01*
X192055714Y-92297537D02*
X192093809Y-92340394D01*
X192131904Y-92459441D01*
X192131904Y-92535632D01*
X192093809Y-92645156D01*
X192017619Y-92711822D01*
X191941428Y-92740394D01*
X191789047Y-92759441D01*
X191674761Y-92745156D01*
X191522380Y-92688013D01*
X191446190Y-92640394D01*
X191370000Y-92554680D01*
X191331904Y-92435632D01*
X191331904Y-92359441D01*
X191370000Y-92249918D01*
X191408095Y-92216584D01*
X192436666Y-92078489D02*
X192398571Y-92035632D01*
X192284285Y-91945156D01*
X192208095Y-91897537D01*
X192093809Y-91845156D01*
X191903333Y-91783251D01*
X191750952Y-91764203D01*
X191560476Y-91778489D01*
X191446190Y-91802299D01*
X191370000Y-91830870D01*
X191255714Y-91892775D01*
X191217619Y-91926108D01*
X191408095Y-90768965D02*
X191370000Y-90726108D01*
X191331904Y-90645156D01*
X191331904Y-90454680D01*
X191370000Y-90383251D01*
X191408095Y-90349918D01*
X191484285Y-90321346D01*
X191560476Y-90330870D01*
X191674761Y-90383251D01*
X192131904Y-90897537D01*
X192131904Y-90402299D01*
X191331904Y-89807061D02*
X191331904Y-89730870D01*
X191370000Y-89659441D01*
X191408095Y-89626108D01*
X191484285Y-89597537D01*
X191636666Y-89578489D01*
X191827142Y-89602299D01*
X191979523Y-89659441D01*
X192055714Y-89707061D01*
X192093809Y-89749918D01*
X192131904Y-89830870D01*
X192131904Y-89907061D01*
X192093809Y-89978489D01*
X192055714Y-90011822D01*
X191979523Y-90040394D01*
X191827142Y-90059441D01*
X191636666Y-90035632D01*
X191484285Y-89978489D01*
X191408095Y-89930870D01*
X191370000Y-89888013D01*
X191331904Y-89807061D01*
X192131904Y-88878489D02*
X192131904Y-89335632D01*
X192131904Y-89107061D02*
X191331904Y-89007061D01*
X191446190Y-89097537D01*
X191522380Y-89183251D01*
X191560476Y-89264203D01*
X192131904Y-88497537D02*
X192131904Y-88345156D01*
X192093809Y-88264203D01*
X192055714Y-88221346D01*
X191941428Y-88130870D01*
X191789047Y-88073727D01*
X191484285Y-88035632D01*
X191408095Y-88064203D01*
X191370000Y-88097537D01*
X191331904Y-88168965D01*
X191331904Y-88321346D01*
X191370000Y-88402299D01*
X191408095Y-88445156D01*
X191484285Y-88492775D01*
X191674761Y-88516584D01*
X191750952Y-88488013D01*
X191789047Y-88454680D01*
X191827142Y-88383251D01*
X191827142Y-88230870D01*
X191789047Y-88149918D01*
X191750952Y-88107061D01*
X191674761Y-88059441D01*
X192131904Y-87164203D02*
X191331904Y-87064203D01*
X192131904Y-86707061D02*
X191674761Y-86992775D01*
X191331904Y-86607061D02*
X191789047Y-87121346D01*
X192131904Y-86021346D02*
X191712857Y-85968965D01*
X191636666Y-85997537D01*
X191598571Y-86068965D01*
X191598571Y-86221346D01*
X191636666Y-86302299D01*
X192093809Y-86016584D02*
X192131904Y-86097537D01*
X192131904Y-86288013D01*
X192093809Y-86359441D01*
X192017619Y-86388013D01*
X191941428Y-86378489D01*
X191865238Y-86330870D01*
X191827142Y-86249918D01*
X191827142Y-86059441D01*
X191789047Y-85978489D01*
X192131904Y-85640394D02*
X191598571Y-85573727D01*
X191331904Y-85540394D02*
X191370000Y-85583251D01*
X191408095Y-85549918D01*
X191370000Y-85507061D01*
X191331904Y-85540394D01*
X191408095Y-85549918D01*
X192131904Y-84192775D02*
X191750952Y-84411822D01*
X192131904Y-84649918D02*
X191331904Y-84549918D01*
X191331904Y-84245156D01*
X191370000Y-84173727D01*
X191408095Y-84140394D01*
X191484285Y-84111822D01*
X191598571Y-84126108D01*
X191674761Y-84173727D01*
X191712857Y-84216584D01*
X191750952Y-84297537D01*
X191750952Y-84602299D01*
X192131904Y-83735632D02*
X192093809Y-83807061D01*
X192055714Y-83840394D01*
X191979523Y-83868965D01*
X191750952Y-83840394D01*
X191674761Y-83792775D01*
X191636666Y-83749918D01*
X191598571Y-83668965D01*
X191598571Y-83554680D01*
X191636666Y-83483251D01*
X191674761Y-83449918D01*
X191750952Y-83421346D01*
X191979523Y-83449918D01*
X192055714Y-83497537D01*
X192093809Y-83540394D01*
X192131904Y-83621346D01*
X192131904Y-83735632D01*
X192131904Y-83126108D02*
X191331904Y-83026108D01*
X191636666Y-83064203D02*
X191598571Y-82983251D01*
X191598571Y-82830870D01*
X191636666Y-82759441D01*
X191674761Y-82726108D01*
X191750952Y-82697537D01*
X191979523Y-82726108D01*
X192055714Y-82773727D01*
X192093809Y-82816584D01*
X192131904Y-82897537D01*
X192131904Y-83049918D01*
X192093809Y-83121346D01*
X192131904Y-82402299D02*
X191598571Y-82335632D01*
X191331904Y-82302299D02*
X191370000Y-82345156D01*
X191408095Y-82311822D01*
X191370000Y-82268965D01*
X191331904Y-82302299D01*
X191408095Y-82311822D01*
X191598571Y-81954680D02*
X192131904Y-82021346D01*
X191674761Y-81964203D02*
X191636666Y-81921346D01*
X191598571Y-81840394D01*
X191598571Y-81726108D01*
X191636666Y-81654680D01*
X191712857Y-81626108D01*
X192131904Y-81678489D01*
X192093809Y-81330870D02*
X192131904Y-81259441D01*
X192131904Y-81107061D01*
X192093809Y-81026108D01*
X192017619Y-80978489D01*
X191979523Y-80973727D01*
X191903333Y-81002299D01*
X191865238Y-81073727D01*
X191865238Y-81188013D01*
X191827142Y-81259441D01*
X191750952Y-81288013D01*
X191712857Y-81283251D01*
X191636666Y-81235632D01*
X191598571Y-81154680D01*
X191598571Y-81040394D01*
X191636666Y-80968965D01*
X192131904Y-80535632D02*
X192093809Y-80607061D01*
X192055714Y-80640394D01*
X191979523Y-80668965D01*
X191750952Y-80640394D01*
X191674761Y-80592775D01*
X191636666Y-80549918D01*
X191598571Y-80468965D01*
X191598571Y-80354680D01*
X191636666Y-80283251D01*
X191674761Y-80249918D01*
X191750952Y-80221346D01*
X191979523Y-80249918D01*
X192055714Y-80297537D01*
X192093809Y-80340394D01*
X192131904Y-80421346D01*
X192131904Y-80535632D01*
X191598571Y-79859441D02*
X192131904Y-79926108D01*
X191674761Y-79868965D02*
X191636666Y-79826108D01*
X191598571Y-79745156D01*
X191598571Y-79630870D01*
X191636666Y-79559441D01*
X191712857Y-79530870D01*
X192131904Y-79583251D01*
X190226904Y-99621346D02*
X189426904Y-99521346D01*
X189426904Y-99216584D01*
X189465000Y-99145156D01*
X189503095Y-99111822D01*
X189579285Y-99083251D01*
X189693571Y-99097537D01*
X189769761Y-99145156D01*
X189807857Y-99188013D01*
X189845952Y-99268965D01*
X189845952Y-99573727D01*
X189693571Y-98411822D02*
X190226904Y-98478489D01*
X189693571Y-98754680D02*
X190112619Y-98807061D01*
X190188809Y-98778489D01*
X190226904Y-98707061D01*
X190226904Y-98592775D01*
X190188809Y-98511822D01*
X190150714Y-98468965D01*
X190226904Y-98097537D02*
X189426904Y-97997537D01*
X189731666Y-98035632D02*
X189693571Y-97954680D01*
X189693571Y-97802299D01*
X189731666Y-97730870D01*
X189769761Y-97697537D01*
X189845952Y-97668965D01*
X190074523Y-97697537D01*
X190150714Y-97745156D01*
X190188809Y-97788013D01*
X190226904Y-97868965D01*
X190226904Y-98021346D01*
X190188809Y-98092775D01*
X190226904Y-97259441D02*
X190188809Y-97330870D01*
X190112619Y-97359441D01*
X189426904Y-97273727D01*
X190226904Y-96954680D02*
X189693571Y-96888013D01*
X189426904Y-96854680D02*
X189465000Y-96897537D01*
X189503095Y-96864203D01*
X189465000Y-96821346D01*
X189426904Y-96854680D01*
X189503095Y-96864203D01*
X190188809Y-96607061D02*
X190226904Y-96535632D01*
X190226904Y-96383251D01*
X190188809Y-96302299D01*
X190112619Y-96254680D01*
X190074523Y-96249918D01*
X189998333Y-96278489D01*
X189960238Y-96349918D01*
X189960238Y-96464203D01*
X189922142Y-96535632D01*
X189845952Y-96564203D01*
X189807857Y-96559441D01*
X189731666Y-96511822D01*
X189693571Y-96430870D01*
X189693571Y-96316584D01*
X189731666Y-96245156D01*
X190226904Y-95926108D02*
X189426904Y-95826108D01*
X190226904Y-95583251D02*
X189807857Y-95530870D01*
X189731666Y-95559441D01*
X189693571Y-95630870D01*
X189693571Y-95745156D01*
X189731666Y-95826108D01*
X189769761Y-95868965D01*
X190188809Y-94892775D02*
X190226904Y-94973727D01*
X190226904Y-95126108D01*
X190188809Y-95197537D01*
X190112619Y-95226108D01*
X189807857Y-95188013D01*
X189731666Y-95140394D01*
X189693571Y-95059441D01*
X189693571Y-94907061D01*
X189731666Y-94835632D01*
X189807857Y-94807061D01*
X189884047Y-94816584D01*
X189960238Y-95207061D01*
X190226904Y-94173727D02*
X189426904Y-94073727D01*
X190188809Y-94168965D02*
X190226904Y-94249918D01*
X190226904Y-94402299D01*
X190188809Y-94473727D01*
X190150714Y-94507061D01*
X190074523Y-94535632D01*
X189845952Y-94507061D01*
X189769761Y-94459441D01*
X189731666Y-94416584D01*
X189693571Y-94335632D01*
X189693571Y-94183251D01*
X189731666Y-94111822D01*
X189693571Y-92773727D02*
X190226904Y-92840394D01*
X189693571Y-93116584D02*
X190112619Y-93168965D01*
X190188809Y-93140394D01*
X190226904Y-93068965D01*
X190226904Y-92954680D01*
X190188809Y-92873727D01*
X190150714Y-92830870D01*
X189693571Y-92392775D02*
X190226904Y-92459441D01*
X189769761Y-92402299D02*
X189731666Y-92359441D01*
X189693571Y-92278489D01*
X189693571Y-92164203D01*
X189731666Y-92092775D01*
X189807857Y-92064203D01*
X190226904Y-92116584D01*
X190226904Y-91392775D02*
X189426904Y-91292775D01*
X190188809Y-91388013D02*
X190226904Y-91468965D01*
X190226904Y-91621346D01*
X190188809Y-91692775D01*
X190150714Y-91726108D01*
X190074523Y-91754680D01*
X189845952Y-91726108D01*
X189769761Y-91678489D01*
X189731666Y-91635632D01*
X189693571Y-91554680D01*
X189693571Y-91402299D01*
X189731666Y-91330870D01*
X190188809Y-90702299D02*
X190226904Y-90783251D01*
X190226904Y-90935632D01*
X190188809Y-91007061D01*
X190112619Y-91035632D01*
X189807857Y-90997537D01*
X189731666Y-90949918D01*
X189693571Y-90868965D01*
X189693571Y-90716584D01*
X189731666Y-90645156D01*
X189807857Y-90616584D01*
X189884047Y-90626108D01*
X189960238Y-91016584D01*
X190226904Y-90326108D02*
X189693571Y-90259441D01*
X189845952Y-90278489D02*
X189769761Y-90230870D01*
X189731666Y-90188013D01*
X189693571Y-90107061D01*
X189693571Y-90030870D01*
X189693571Y-89268965D02*
X189693571Y-88964203D01*
X189426904Y-89121346D02*
X190112619Y-89207061D01*
X190188809Y-89178489D01*
X190226904Y-89107061D01*
X190226904Y-89030870D01*
X190226904Y-88764203D02*
X189426904Y-88664203D01*
X190226904Y-88421346D02*
X189807857Y-88368965D01*
X189731666Y-88397537D01*
X189693571Y-88468965D01*
X189693571Y-88583251D01*
X189731666Y-88664203D01*
X189769761Y-88707061D01*
X190188809Y-87730870D02*
X190226904Y-87811822D01*
X190226904Y-87964203D01*
X190188809Y-88035632D01*
X190112619Y-88064203D01*
X189807857Y-88026108D01*
X189731666Y-87978489D01*
X189693571Y-87897537D01*
X189693571Y-87745156D01*
X189731666Y-87673727D01*
X189807857Y-87645156D01*
X189884047Y-87654680D01*
X189960238Y-88045156D01*
X189465000Y-86230870D02*
X189426904Y-86302299D01*
X189426904Y-86416584D01*
X189465000Y-86535632D01*
X189541190Y-86621346D01*
X189617380Y-86668965D01*
X189769761Y-86726108D01*
X189884047Y-86740394D01*
X190036428Y-86721346D01*
X190112619Y-86692775D01*
X190188809Y-86626108D01*
X190226904Y-86516584D01*
X190226904Y-86440394D01*
X190188809Y-86321346D01*
X190150714Y-86278489D01*
X189884047Y-86245156D01*
X189884047Y-86397537D01*
X190226904Y-85945156D02*
X189426904Y-85845156D01*
X190226904Y-85488013D01*
X189426904Y-85388013D01*
X189426904Y-85007061D02*
X190074523Y-85088013D01*
X190150714Y-85059441D01*
X190188809Y-85026108D01*
X190226904Y-84954680D01*
X190226904Y-84802299D01*
X190188809Y-84721346D01*
X190150714Y-84678489D01*
X190074523Y-84630870D01*
X189426904Y-84549918D01*
X190226904Y-83659441D02*
X189426904Y-83559441D01*
X189426904Y-83254680D01*
X189465000Y-83183251D01*
X189503095Y-83149918D01*
X189579285Y-83121346D01*
X189693571Y-83135632D01*
X189769761Y-83183251D01*
X189807857Y-83226108D01*
X189845952Y-83307061D01*
X189845952Y-83611822D01*
X189693571Y-82449918D02*
X190226904Y-82516584D01*
X189693571Y-82792775D02*
X190112619Y-82845156D01*
X190188809Y-82816584D01*
X190226904Y-82745156D01*
X190226904Y-82630870D01*
X190188809Y-82549918D01*
X190150714Y-82507061D01*
X190226904Y-82135632D02*
X189426904Y-82035632D01*
X189731666Y-82073727D02*
X189693571Y-81992775D01*
X189693571Y-81840394D01*
X189731666Y-81768965D01*
X189769761Y-81735632D01*
X189845952Y-81707061D01*
X190074523Y-81735632D01*
X190150714Y-81783251D01*
X190188809Y-81826108D01*
X190226904Y-81907061D01*
X190226904Y-82059441D01*
X190188809Y-82130870D01*
X190226904Y-81297537D02*
X190188809Y-81368965D01*
X190112619Y-81397537D01*
X189426904Y-81311822D01*
X190226904Y-80992775D02*
X189693571Y-80926108D01*
X189426904Y-80892775D02*
X189465000Y-80935632D01*
X189503095Y-80902299D01*
X189465000Y-80859441D01*
X189426904Y-80892775D01*
X189503095Y-80902299D01*
X190188809Y-80264203D02*
X190226904Y-80345156D01*
X190226904Y-80497537D01*
X190188809Y-80568965D01*
X190150714Y-80602299D01*
X190074523Y-80630870D01*
X189845952Y-80602299D01*
X189769761Y-80554680D01*
X189731666Y-80511822D01*
X189693571Y-80430870D01*
X189693571Y-80278489D01*
X189731666Y-80207061D01*
X190226904Y-78935632D02*
X190226904Y-79316584D01*
X189426904Y-79216584D01*
X190226904Y-78668965D02*
X189693571Y-78602299D01*
X189426904Y-78568965D02*
X189465000Y-78611822D01*
X189503095Y-78578489D01*
X189465000Y-78535632D01*
X189426904Y-78568965D01*
X189503095Y-78578489D01*
X190188809Y-77940394D02*
X190226904Y-78021346D01*
X190226904Y-78173727D01*
X190188809Y-78245156D01*
X190150714Y-78278489D01*
X190074523Y-78307061D01*
X189845952Y-78278489D01*
X189769761Y-78230870D01*
X189731666Y-78188013D01*
X189693571Y-78107061D01*
X189693571Y-77954680D01*
X189731666Y-77883251D01*
X190188809Y-77292775D02*
X190226904Y-77373727D01*
X190226904Y-77526108D01*
X190188809Y-77597537D01*
X190112619Y-77626108D01*
X189807857Y-77588013D01*
X189731666Y-77540394D01*
X189693571Y-77459441D01*
X189693571Y-77307061D01*
X189731666Y-77235632D01*
X189807857Y-77207061D01*
X189884047Y-77216584D01*
X189960238Y-77607061D01*
X189693571Y-76849918D02*
X190226904Y-76916584D01*
X189769761Y-76859441D02*
X189731666Y-76816584D01*
X189693571Y-76735632D01*
X189693571Y-76621346D01*
X189731666Y-76549918D01*
X189807857Y-76521346D01*
X190226904Y-76573727D01*
X190188809Y-76226108D02*
X190226904Y-76154680D01*
X190226904Y-76002299D01*
X190188809Y-75921346D01*
X190112619Y-75873727D01*
X190074523Y-75868965D01*
X189998333Y-75897537D01*
X189960238Y-75968965D01*
X189960238Y-76083251D01*
X189922142Y-76154680D01*
X189845952Y-76183251D01*
X189807857Y-76178489D01*
X189731666Y-76130870D01*
X189693571Y-76049918D01*
X189693571Y-75935632D01*
X189731666Y-75864203D01*
X190188809Y-75235632D02*
X190226904Y-75316584D01*
X190226904Y-75468965D01*
X190188809Y-75540394D01*
X190112619Y-75568965D01*
X189807857Y-75530870D01*
X189731666Y-75483251D01*
X189693571Y-75402299D01*
X189693571Y-75249918D01*
X189731666Y-75178489D01*
X189807857Y-75149918D01*
X189884047Y-75159441D01*
X189960238Y-75549918D01*
X189693571Y-74259441D02*
X190226904Y-74135632D01*
X189693571Y-73878489D01*
X189503095Y-73588013D02*
X189465000Y-73545156D01*
X189426904Y-73464203D01*
X189426904Y-73273727D01*
X189465000Y-73202299D01*
X189503095Y-73168965D01*
X189579285Y-73140394D01*
X189655476Y-73149918D01*
X189769761Y-73202299D01*
X190226904Y-73716584D01*
X190226904Y-73221346D01*
X188093333Y-98888013D02*
X188093333Y-98507061D01*
X188321904Y-98992775D02*
X187521904Y-98626108D01*
X188321904Y-98459441D01*
X188321904Y-98192775D02*
X187788571Y-98126108D01*
X187864761Y-98135632D02*
X187826666Y-98092775D01*
X187788571Y-98011822D01*
X187788571Y-97897537D01*
X187826666Y-97826108D01*
X187902857Y-97797537D01*
X188321904Y-97849918D01*
X187902857Y-97797537D02*
X187826666Y-97749918D01*
X187788571Y-97668965D01*
X187788571Y-97554680D01*
X187826666Y-97483251D01*
X187902857Y-97454680D01*
X188321904Y-97507061D01*
X188321904Y-97126108D02*
X187788571Y-97059441D01*
X187521904Y-97026108D02*
X187560000Y-97068965D01*
X187598095Y-97035632D01*
X187560000Y-96992775D01*
X187521904Y-97026108D01*
X187598095Y-97035632D01*
X187788571Y-96335632D02*
X188436190Y-96416584D01*
X188512380Y-96464203D01*
X188550476Y-96507061D01*
X188588571Y-96588013D01*
X188588571Y-96702299D01*
X188550476Y-96773727D01*
X188283809Y-96397537D02*
X188321904Y-96478489D01*
X188321904Y-96630870D01*
X188283809Y-96702299D01*
X188245714Y-96735632D01*
X188169523Y-96764203D01*
X187940952Y-96735632D01*
X187864761Y-96688013D01*
X187826666Y-96645156D01*
X187788571Y-96564203D01*
X187788571Y-96411822D01*
X187826666Y-96340394D01*
X188321904Y-95678489D02*
X187902857Y-95626108D01*
X187826666Y-95654680D01*
X187788571Y-95726108D01*
X187788571Y-95878489D01*
X187826666Y-95959441D01*
X188283809Y-95673727D02*
X188321904Y-95754680D01*
X188321904Y-95945156D01*
X188283809Y-96016584D01*
X188207619Y-96045156D01*
X188131428Y-96035632D01*
X188055238Y-95988013D01*
X188017142Y-95907061D01*
X188017142Y-95716584D01*
X187979047Y-95635632D01*
X187521904Y-94207061D02*
X187521904Y-94588013D01*
X187902857Y-94673727D01*
X187864761Y-94630870D01*
X187826666Y-94549918D01*
X187826666Y-94359441D01*
X187864761Y-94288013D01*
X187902857Y-94254680D01*
X187979047Y-94226108D01*
X188169523Y-94249918D01*
X188245714Y-94297537D01*
X188283809Y-94340394D01*
X188321904Y-94421346D01*
X188321904Y-94611822D01*
X188283809Y-94683251D01*
X188245714Y-94716584D01*
X187521904Y-93673727D02*
X187521904Y-93597537D01*
X187560000Y-93526108D01*
X187598095Y-93492775D01*
X187674285Y-93464203D01*
X187826666Y-93445156D01*
X188017142Y-93468965D01*
X188169523Y-93526108D01*
X188245714Y-93573727D01*
X188283809Y-93616584D01*
X188321904Y-93697537D01*
X188321904Y-93773727D01*
X188283809Y-93845156D01*
X188245714Y-93878489D01*
X188169523Y-93907061D01*
X188017142Y-93926108D01*
X187826666Y-93902299D01*
X187674285Y-93845156D01*
X187598095Y-93797537D01*
X187560000Y-93754680D01*
X187521904Y-93673727D01*
X187521904Y-92911822D02*
X187521904Y-92835632D01*
X187560000Y-92764203D01*
X187598095Y-92730870D01*
X187674285Y-92702299D01*
X187826666Y-92683251D01*
X188017142Y-92707061D01*
X188169523Y-92764203D01*
X188245714Y-92811822D01*
X188283809Y-92854680D01*
X188321904Y-92935632D01*
X188321904Y-93011822D01*
X188283809Y-93083251D01*
X188245714Y-93116584D01*
X188169523Y-93145156D01*
X188017142Y-93164203D01*
X187826666Y-93140394D01*
X187674285Y-93083251D01*
X187598095Y-93035632D01*
X187560000Y-92992775D01*
X187521904Y-92911822D01*
X188245714Y-91326108D02*
X188283809Y-91368965D01*
X188321904Y-91488013D01*
X188321904Y-91564203D01*
X188283809Y-91673727D01*
X188207619Y-91740394D01*
X188131428Y-91768965D01*
X187979047Y-91788013D01*
X187864761Y-91773727D01*
X187712380Y-91716584D01*
X187636190Y-91668965D01*
X187560000Y-91583251D01*
X187521904Y-91464203D01*
X187521904Y-91388013D01*
X187560000Y-91278489D01*
X187598095Y-91245156D01*
X188321904Y-90992775D02*
X187521904Y-90892775D01*
X187902857Y-90940394D02*
X187902857Y-90483251D01*
X188321904Y-90535632D02*
X187521904Y-90435632D01*
X188321904Y-90154680D02*
X187521904Y-90054680D01*
X188321904Y-89773727D02*
X187521904Y-89673727D01*
X187521904Y-89368965D01*
X187560000Y-89297537D01*
X187598095Y-89264203D01*
X187674285Y-89235632D01*
X187788571Y-89249918D01*
X187864761Y-89297537D01*
X187902857Y-89340394D01*
X187940952Y-89421346D01*
X187940952Y-89726108D01*
X188321904Y-87907061D02*
X187940952Y-88126108D01*
X188321904Y-88364203D02*
X187521904Y-88264203D01*
X187521904Y-87959441D01*
X187560000Y-87888013D01*
X187598095Y-87854680D01*
X187674285Y-87826108D01*
X187788571Y-87840394D01*
X187864761Y-87888013D01*
X187902857Y-87930870D01*
X187940952Y-88011822D01*
X187940952Y-88316584D01*
X188093333Y-87573727D02*
X188093333Y-87192775D01*
X188321904Y-87678489D02*
X187521904Y-87311822D01*
X188321904Y-87145156D01*
X188321904Y-86878489D02*
X187521904Y-86778489D01*
X188093333Y-86583251D01*
X187521904Y-86245156D01*
X188321904Y-86345156D01*
X188321904Y-84897537D02*
X187940952Y-85116584D01*
X188321904Y-85354680D02*
X187521904Y-85254680D01*
X187521904Y-84949918D01*
X187560000Y-84878489D01*
X187598095Y-84845156D01*
X187674285Y-84816584D01*
X187788571Y-84830870D01*
X187864761Y-84878489D01*
X187902857Y-84921346D01*
X187940952Y-85002299D01*
X187940952Y-85307061D01*
X188283809Y-84245156D02*
X188321904Y-84326108D01*
X188321904Y-84478489D01*
X188283809Y-84549918D01*
X188207619Y-84578489D01*
X187902857Y-84540394D01*
X187826666Y-84492775D01*
X187788571Y-84411822D01*
X187788571Y-84259441D01*
X187826666Y-84188013D01*
X187902857Y-84159441D01*
X187979047Y-84168965D01*
X188055238Y-84559441D01*
X187788571Y-83802299D02*
X188588571Y-83902299D01*
X187826666Y-83807061D02*
X187788571Y-83726108D01*
X187788571Y-83573727D01*
X187826666Y-83502299D01*
X187864761Y-83468965D01*
X187940952Y-83440394D01*
X188169523Y-83468965D01*
X188245714Y-83516584D01*
X188283809Y-83559441D01*
X188321904Y-83640394D01*
X188321904Y-83792775D01*
X188283809Y-83864203D01*
X188321904Y-83030870D02*
X188283809Y-83102299D01*
X188207619Y-83130870D01*
X187521904Y-83045156D01*
X188321904Y-82383251D02*
X187902857Y-82330870D01*
X187826666Y-82359441D01*
X187788571Y-82430870D01*
X187788571Y-82583251D01*
X187826666Y-82664203D01*
X188283809Y-82378489D02*
X188321904Y-82459441D01*
X188321904Y-82649918D01*
X188283809Y-82721346D01*
X188207619Y-82749918D01*
X188131428Y-82740394D01*
X188055238Y-82692775D01*
X188017142Y-82611822D01*
X188017142Y-82421346D01*
X187979047Y-82340394D01*
X188283809Y-81654680D02*
X188321904Y-81735632D01*
X188321904Y-81888013D01*
X188283809Y-81959441D01*
X188245714Y-81992775D01*
X188169523Y-82021346D01*
X187940952Y-81992775D01*
X187864761Y-81945156D01*
X187826666Y-81902299D01*
X187788571Y-81821346D01*
X187788571Y-81668965D01*
X187826666Y-81597537D01*
X188283809Y-81007061D02*
X188321904Y-81088013D01*
X188321904Y-81240394D01*
X188283809Y-81311822D01*
X188207619Y-81340394D01*
X187902857Y-81302299D01*
X187826666Y-81254680D01*
X187788571Y-81173727D01*
X187788571Y-81021346D01*
X187826666Y-80949918D01*
X187902857Y-80921346D01*
X187979047Y-80930870D01*
X188055238Y-81321346D01*
X188321904Y-80630870D02*
X187788571Y-80564203D01*
X187864761Y-80573727D02*
X187826666Y-80530870D01*
X187788571Y-80449918D01*
X187788571Y-80335632D01*
X187826666Y-80264203D01*
X187902857Y-80235632D01*
X188321904Y-80288013D01*
X187902857Y-80235632D02*
X187826666Y-80188013D01*
X187788571Y-80107061D01*
X187788571Y-79992775D01*
X187826666Y-79921346D01*
X187902857Y-79892775D01*
X188321904Y-79945156D01*
X188283809Y-79254680D02*
X188321904Y-79335632D01*
X188321904Y-79488013D01*
X188283809Y-79559441D01*
X188207619Y-79588013D01*
X187902857Y-79549918D01*
X187826666Y-79502299D01*
X187788571Y-79421346D01*
X187788571Y-79268965D01*
X187826666Y-79197537D01*
X187902857Y-79168965D01*
X187979047Y-79178489D01*
X188055238Y-79568965D01*
X187788571Y-78811822D02*
X188321904Y-78878489D01*
X187864761Y-78821346D02*
X187826666Y-78778489D01*
X187788571Y-78697537D01*
X187788571Y-78583251D01*
X187826666Y-78511822D01*
X187902857Y-78483251D01*
X188321904Y-78535632D01*
X187788571Y-78202299D02*
X187788571Y-77897537D01*
X187521904Y-78054680D02*
X188207619Y-78140394D01*
X188283809Y-78111822D01*
X188321904Y-78040394D01*
X188321904Y-77964203D01*
X187902857Y-76768965D02*
X187940952Y-76659441D01*
X187979047Y-76626108D01*
X188055238Y-76597537D01*
X188169523Y-76611822D01*
X188245714Y-76659441D01*
X188283809Y-76702299D01*
X188321904Y-76783251D01*
X188321904Y-77088013D01*
X187521904Y-76988013D01*
X187521904Y-76721346D01*
X187560000Y-76649918D01*
X187598095Y-76616584D01*
X187674285Y-76588013D01*
X187750476Y-76597537D01*
X187826666Y-76645156D01*
X187864761Y-76688013D01*
X187902857Y-76768965D01*
X187902857Y-77035632D01*
X188321904Y-76173727D02*
X188283809Y-76245156D01*
X188245714Y-76278489D01*
X188169523Y-76307061D01*
X187940952Y-76278489D01*
X187864761Y-76230870D01*
X187826666Y-76188013D01*
X187788571Y-76107061D01*
X187788571Y-75992775D01*
X187826666Y-75921346D01*
X187864761Y-75888013D01*
X187940952Y-75859441D01*
X188169523Y-75888013D01*
X188245714Y-75935632D01*
X188283809Y-75978489D01*
X188321904Y-76059441D01*
X188321904Y-76173727D01*
X188321904Y-75221346D02*
X187902857Y-75168965D01*
X187826666Y-75197537D01*
X187788571Y-75268965D01*
X187788571Y-75421346D01*
X187826666Y-75502299D01*
X188283809Y-75216584D02*
X188321904Y-75297537D01*
X188321904Y-75488013D01*
X188283809Y-75559441D01*
X188207619Y-75588013D01*
X188131428Y-75578489D01*
X188055238Y-75530870D01*
X188017142Y-75449918D01*
X188017142Y-75259441D01*
X187979047Y-75178489D01*
X188321904Y-74840394D02*
X187788571Y-74773727D01*
X187940952Y-74792775D02*
X187864761Y-74745156D01*
X187826666Y-74702299D01*
X187788571Y-74621346D01*
X187788571Y-74545156D01*
X188321904Y-74002299D02*
X187521904Y-73902299D01*
X188283809Y-73997537D02*
X188321904Y-74078489D01*
X188321904Y-74230870D01*
X188283809Y-74302299D01*
X188245714Y-74335632D01*
X188169523Y-74364203D01*
X187940952Y-74335632D01*
X187864761Y-74288013D01*
X187826666Y-74245156D01*
X187788571Y-74164203D01*
X187788571Y-74011822D01*
X187826666Y-73940394D01*
D13*
X168307936Y-96245000D02*
X169512064Y-96245000D01*
X168307936Y-98065000D02*
X169512064Y-98065000D01*
X175862064Y-96245000D02*
X174657936Y-96245000D01*
X175862064Y-98065000D02*
X174657936Y-98065000D01*
X168307936Y-79735000D02*
X169512064Y-79735000D01*
X168307936Y-81555000D02*
X169512064Y-81555000D01*
X208947936Y-98065000D02*
X210152064Y-98065000D01*
X208947936Y-96245000D02*
X210152064Y-96245000D01*
X216502064Y-98065000D02*
X215297936Y-98065000D01*
X216502064Y-96245000D02*
X215297936Y-96245000D01*
X208312936Y-81555000D02*
X209517064Y-81555000D01*
X208312936Y-79735000D02*
X209517064Y-79735000D01*
X160705000Y-95580000D02*
X159905000Y-94780000D01*
X159905000Y-94780000D02*
X159905000Y-82220000D01*
X159905000Y-82220000D02*
X185535000Y-82220000D01*
X185535000Y-82220000D02*
X185535000Y-95580000D01*
X185535000Y-95580000D02*
X160705000Y-95580000D01*
X226175000Y-95580000D02*
X201345000Y-95580000D01*
X226175000Y-82220000D02*
X226175000Y-95580000D01*
X200545000Y-82220000D02*
X226175000Y-82220000D01*
X200545000Y-94780000D02*
X200545000Y-82220000D01*
X201345000Y-95580000D02*
X200545000Y-94780000D01*
D10*
X169124285Y-97255000D02*
X169152857Y-97283571D01*
X169181428Y-97369285D01*
X169181428Y-97426428D01*
X169152857Y-97512142D01*
X169095714Y-97569285D01*
X169038571Y-97597857D01*
X168924285Y-97626428D01*
X168838571Y-97626428D01*
X168724285Y-97597857D01*
X168667142Y-97569285D01*
X168610000Y-97512142D01*
X168581428Y-97426428D01*
X168581428Y-97369285D01*
X168610000Y-97283571D01*
X168638571Y-97255000D01*
X169181428Y-96683571D02*
X169181428Y-97026428D01*
X169181428Y-96855000D02*
X168581428Y-96855000D01*
X168667142Y-96912142D01*
X168724285Y-96969285D01*
X168752857Y-97026428D01*
X175474285Y-97255000D02*
X175502857Y-97283571D01*
X175531428Y-97369285D01*
X175531428Y-97426428D01*
X175502857Y-97512142D01*
X175445714Y-97569285D01*
X175388571Y-97597857D01*
X175274285Y-97626428D01*
X175188571Y-97626428D01*
X175074285Y-97597857D01*
X175017142Y-97569285D01*
X174960000Y-97512142D01*
X174931428Y-97426428D01*
X174931428Y-97369285D01*
X174960000Y-97283571D01*
X174988571Y-97255000D01*
X174988571Y-97026428D02*
X174960000Y-96997857D01*
X174931428Y-96940714D01*
X174931428Y-96797857D01*
X174960000Y-96740714D01*
X174988571Y-96712142D01*
X175045714Y-96683571D01*
X175102857Y-96683571D01*
X175188571Y-96712142D01*
X175531428Y-97055000D01*
X175531428Y-96683571D01*
X169124285Y-80745000D02*
X169152857Y-80773571D01*
X169181428Y-80859285D01*
X169181428Y-80916428D01*
X169152857Y-81002142D01*
X169095714Y-81059285D01*
X169038571Y-81087857D01*
X168924285Y-81116428D01*
X168838571Y-81116428D01*
X168724285Y-81087857D01*
X168667142Y-81059285D01*
X168610000Y-81002142D01*
X168581428Y-80916428D01*
X168581428Y-80859285D01*
X168610000Y-80773571D01*
X168638571Y-80745000D01*
X168581428Y-80545000D02*
X168581428Y-80173571D01*
X168810000Y-80373571D01*
X168810000Y-80287857D01*
X168838571Y-80230714D01*
X168867142Y-80202142D01*
X168924285Y-80173571D01*
X169067142Y-80173571D01*
X169124285Y-80202142D01*
X169152857Y-80230714D01*
X169181428Y-80287857D01*
X169181428Y-80459285D01*
X169152857Y-80516428D01*
X169124285Y-80545000D01*
X209764285Y-97255000D02*
X209792857Y-97283571D01*
X209821428Y-97369285D01*
X209821428Y-97426428D01*
X209792857Y-97512142D01*
X209735714Y-97569285D01*
X209678571Y-97597857D01*
X209564285Y-97626428D01*
X209478571Y-97626428D01*
X209364285Y-97597857D01*
X209307142Y-97569285D01*
X209250000Y-97512142D01*
X209221428Y-97426428D01*
X209221428Y-97369285D01*
X209250000Y-97283571D01*
X209278571Y-97255000D01*
X209421428Y-96740714D02*
X209821428Y-96740714D01*
X209192857Y-96883571D02*
X209621428Y-97026428D01*
X209621428Y-96655000D01*
X236113657Y-79773428D02*
X236113657Y-79173428D01*
X236113657Y-79744857D02*
X236056514Y-79773428D01*
X235942228Y-79773428D01*
X235885085Y-79744857D01*
X235856514Y-79716285D01*
X235827942Y-79659142D01*
X235827942Y-79487714D01*
X235856514Y-79430571D01*
X235885085Y-79402000D01*
X235942228Y-79373428D01*
X236056514Y-79373428D01*
X236113657Y-79402000D01*
X236513657Y-79173428D02*
X236570800Y-79173428D01*
X236627942Y-79202000D01*
X236656514Y-79230571D01*
X236685085Y-79287714D01*
X236713657Y-79402000D01*
X236713657Y-79544857D01*
X236685085Y-79659142D01*
X236656514Y-79716285D01*
X236627942Y-79744857D01*
X236570800Y-79773428D01*
X236513657Y-79773428D01*
X236456514Y-79744857D01*
X236427942Y-79716285D01*
X236399371Y-79659142D01*
X236370800Y-79544857D01*
X236370800Y-79402000D01*
X236399371Y-79287714D01*
X236427942Y-79230571D01*
X236456514Y-79202000D01*
X236513657Y-79173428D01*
X228493657Y-77233428D02*
X228493657Y-76633428D01*
X228493657Y-77204857D02*
X228436514Y-77233428D01*
X228322228Y-77233428D01*
X228265085Y-77204857D01*
X228236514Y-77176285D01*
X228207942Y-77119142D01*
X228207942Y-76947714D01*
X228236514Y-76890571D01*
X228265085Y-76862000D01*
X228322228Y-76833428D01*
X228436514Y-76833428D01*
X228493657Y-76862000D01*
X229093657Y-77233428D02*
X228750800Y-77233428D01*
X228922228Y-77233428D02*
X228922228Y-76633428D01*
X228865085Y-76719142D01*
X228807942Y-76776285D01*
X228750800Y-76804857D01*
X236113657Y-77233428D02*
X236113657Y-76633428D01*
X236113657Y-77204857D02*
X236056514Y-77233428D01*
X235942228Y-77233428D01*
X235885085Y-77204857D01*
X235856514Y-77176285D01*
X235827942Y-77119142D01*
X235827942Y-76947714D01*
X235856514Y-76890571D01*
X235885085Y-76862000D01*
X235942228Y-76833428D01*
X236056514Y-76833428D01*
X236113657Y-76862000D01*
X236370800Y-76690571D02*
X236399371Y-76662000D01*
X236456514Y-76633428D01*
X236599371Y-76633428D01*
X236656514Y-76662000D01*
X236685085Y-76690571D01*
X236713657Y-76747714D01*
X236713657Y-76804857D01*
X236685085Y-76890571D01*
X236342228Y-77233428D01*
X236713657Y-77233428D01*
X228493657Y-74693428D02*
X228493657Y-74093428D01*
X228493657Y-74664857D02*
X228436514Y-74693428D01*
X228322228Y-74693428D01*
X228265085Y-74664857D01*
X228236514Y-74636285D01*
X228207942Y-74579142D01*
X228207942Y-74407714D01*
X228236514Y-74350571D01*
X228265085Y-74322000D01*
X228322228Y-74293428D01*
X228436514Y-74293428D01*
X228493657Y-74322000D01*
X228722228Y-74093428D02*
X229093657Y-74093428D01*
X228893657Y-74322000D01*
X228979371Y-74322000D01*
X229036514Y-74350571D01*
X229065085Y-74379142D01*
X229093657Y-74436285D01*
X229093657Y-74579142D01*
X229065085Y-74636285D01*
X229036514Y-74664857D01*
X228979371Y-74693428D01*
X228807942Y-74693428D01*
X228750800Y-74664857D01*
X228722228Y-74636285D01*
X202840057Y-79722628D02*
X202840057Y-79122628D01*
X202840057Y-79694057D02*
X202782914Y-79722628D01*
X202668628Y-79722628D01*
X202611485Y-79694057D01*
X202582914Y-79665485D01*
X202554342Y-79608342D01*
X202554342Y-79436914D01*
X202582914Y-79379771D01*
X202611485Y-79351200D01*
X202668628Y-79322628D01*
X202782914Y-79322628D01*
X202840057Y-79351200D01*
X203382914Y-79322628D02*
X203382914Y-79722628D01*
X203240057Y-79094057D02*
X203097200Y-79522628D01*
X203468628Y-79522628D01*
X195220057Y-77182628D02*
X195220057Y-76582628D01*
X195220057Y-77154057D02*
X195162914Y-77182628D01*
X195048628Y-77182628D01*
X194991485Y-77154057D01*
X194962914Y-77125485D01*
X194934342Y-77068342D01*
X194934342Y-76896914D01*
X194962914Y-76839771D01*
X194991485Y-76811200D01*
X195048628Y-76782628D01*
X195162914Y-76782628D01*
X195220057Y-76811200D01*
X195791485Y-76582628D02*
X195505771Y-76582628D01*
X195477200Y-76868342D01*
X195505771Y-76839771D01*
X195562914Y-76811200D01*
X195705771Y-76811200D01*
X195762914Y-76839771D01*
X195791485Y-76868342D01*
X195820057Y-76925485D01*
X195820057Y-77068342D01*
X195791485Y-77125485D01*
X195762914Y-77154057D01*
X195705771Y-77182628D01*
X195562914Y-77182628D01*
X195505771Y-77154057D01*
X195477200Y-77125485D01*
X202840057Y-77233428D02*
X202840057Y-76633428D01*
X202840057Y-77204857D02*
X202782914Y-77233428D01*
X202668628Y-77233428D01*
X202611485Y-77204857D01*
X202582914Y-77176285D01*
X202554342Y-77119142D01*
X202554342Y-76947714D01*
X202582914Y-76890571D01*
X202611485Y-76862000D01*
X202668628Y-76833428D01*
X202782914Y-76833428D01*
X202840057Y-76862000D01*
X203382914Y-76633428D02*
X203268628Y-76633428D01*
X203211485Y-76662000D01*
X203182914Y-76690571D01*
X203125771Y-76776285D01*
X203097200Y-76890571D01*
X203097200Y-77119142D01*
X203125771Y-77176285D01*
X203154342Y-77204857D01*
X203211485Y-77233428D01*
X203325771Y-77233428D01*
X203382914Y-77204857D01*
X203411485Y-77176285D01*
X203440057Y-77119142D01*
X203440057Y-76976285D01*
X203411485Y-76919142D01*
X203382914Y-76890571D01*
X203325771Y-76862000D01*
X203211485Y-76862000D01*
X203154342Y-76890571D01*
X203125771Y-76919142D01*
X203097200Y-76976285D01*
X195220057Y-74642628D02*
X195220057Y-74042628D01*
X195220057Y-74614057D02*
X195162914Y-74642628D01*
X195048628Y-74642628D01*
X194991485Y-74614057D01*
X194962914Y-74585485D01*
X194934342Y-74528342D01*
X194934342Y-74356914D01*
X194962914Y-74299771D01*
X194991485Y-74271200D01*
X195048628Y-74242628D01*
X195162914Y-74242628D01*
X195220057Y-74271200D01*
X195448628Y-74042628D02*
X195848628Y-74042628D01*
X195591485Y-74642628D01*
X177592057Y-79824228D02*
X177592057Y-79224228D01*
X177592057Y-79795657D02*
X177534914Y-79824228D01*
X177420628Y-79824228D01*
X177363485Y-79795657D01*
X177334914Y-79767085D01*
X177306342Y-79709942D01*
X177306342Y-79538514D01*
X177334914Y-79481371D01*
X177363485Y-79452800D01*
X177420628Y-79424228D01*
X177534914Y-79424228D01*
X177592057Y-79452800D01*
X177963485Y-79481371D02*
X177906342Y-79452800D01*
X177877771Y-79424228D01*
X177849200Y-79367085D01*
X177849200Y-79338514D01*
X177877771Y-79281371D01*
X177906342Y-79252800D01*
X177963485Y-79224228D01*
X178077771Y-79224228D01*
X178134914Y-79252800D01*
X178163485Y-79281371D01*
X178192057Y-79338514D01*
X178192057Y-79367085D01*
X178163485Y-79424228D01*
X178134914Y-79452800D01*
X178077771Y-79481371D01*
X177963485Y-79481371D01*
X177906342Y-79509942D01*
X177877771Y-79538514D01*
X177849200Y-79595657D01*
X177849200Y-79709942D01*
X177877771Y-79767085D01*
X177906342Y-79795657D01*
X177963485Y-79824228D01*
X178077771Y-79824228D01*
X178134914Y-79795657D01*
X178163485Y-79767085D01*
X178192057Y-79709942D01*
X178192057Y-79595657D01*
X178163485Y-79538514D01*
X178134914Y-79509942D01*
X178077771Y-79481371D01*
X170022857Y-77284228D02*
X170022857Y-76684228D01*
X170022857Y-77255657D02*
X169965714Y-77284228D01*
X169851428Y-77284228D01*
X169794285Y-77255657D01*
X169765714Y-77227085D01*
X169737142Y-77169942D01*
X169737142Y-76998514D01*
X169765714Y-76941371D01*
X169794285Y-76912800D01*
X169851428Y-76884228D01*
X169965714Y-76884228D01*
X170022857Y-76912800D01*
X170337142Y-77284228D02*
X170451428Y-77284228D01*
X170508571Y-77255657D01*
X170537142Y-77227085D01*
X170594285Y-77141371D01*
X170622857Y-77027085D01*
X170622857Y-76798514D01*
X170594285Y-76741371D01*
X170565714Y-76712800D01*
X170508571Y-76684228D01*
X170394285Y-76684228D01*
X170337142Y-76712800D01*
X170308571Y-76741371D01*
X170280000Y-76798514D01*
X170280000Y-76941371D01*
X170308571Y-76998514D01*
X170337142Y-77027085D01*
X170394285Y-77055657D01*
X170508571Y-77055657D01*
X170565714Y-77027085D01*
X170594285Y-76998514D01*
X170622857Y-76941371D01*
X177611142Y-77284228D02*
X177611142Y-76684228D01*
X177611142Y-77255657D02*
X177554000Y-77284228D01*
X177439714Y-77284228D01*
X177382571Y-77255657D01*
X177354000Y-77227085D01*
X177325428Y-77169942D01*
X177325428Y-76998514D01*
X177354000Y-76941371D01*
X177382571Y-76912800D01*
X177439714Y-76884228D01*
X177554000Y-76884228D01*
X177611142Y-76912800D01*
X178211142Y-77284228D02*
X177868285Y-77284228D01*
X178039714Y-77284228D02*
X178039714Y-76684228D01*
X177982571Y-76769942D01*
X177925428Y-76827085D01*
X177868285Y-76855657D01*
X178582571Y-76684228D02*
X178639714Y-76684228D01*
X178696857Y-76712800D01*
X178725428Y-76741371D01*
X178754000Y-76798514D01*
X178782571Y-76912800D01*
X178782571Y-77055657D01*
X178754000Y-77169942D01*
X178725428Y-77227085D01*
X178696857Y-77255657D01*
X178639714Y-77284228D01*
X178582571Y-77284228D01*
X178525428Y-77255657D01*
X178496857Y-77227085D01*
X178468285Y-77169942D01*
X178439714Y-77055657D01*
X178439714Y-76912800D01*
X178468285Y-76798514D01*
X178496857Y-76741371D01*
X178525428Y-76712800D01*
X178582571Y-76684228D01*
X169991142Y-74744228D02*
X169991142Y-74144228D01*
X169991142Y-74715657D02*
X169934000Y-74744228D01*
X169819714Y-74744228D01*
X169762571Y-74715657D01*
X169734000Y-74687085D01*
X169705428Y-74629942D01*
X169705428Y-74458514D01*
X169734000Y-74401371D01*
X169762571Y-74372800D01*
X169819714Y-74344228D01*
X169934000Y-74344228D01*
X169991142Y-74372800D01*
X170591142Y-74744228D02*
X170248285Y-74744228D01*
X170419714Y-74744228D02*
X170419714Y-74144228D01*
X170362571Y-74229942D01*
X170305428Y-74287085D01*
X170248285Y-74315657D01*
X171162571Y-74744228D02*
X170819714Y-74744228D01*
X170991142Y-74744228D02*
X170991142Y-74144228D01*
X170934000Y-74229942D01*
X170876857Y-74287085D01*
X170819714Y-74315657D01*
X152211142Y-79824228D02*
X152211142Y-79224228D01*
X152211142Y-79795657D02*
X152154000Y-79824228D01*
X152039714Y-79824228D01*
X151982571Y-79795657D01*
X151954000Y-79767085D01*
X151925428Y-79709942D01*
X151925428Y-79538514D01*
X151954000Y-79481371D01*
X151982571Y-79452800D01*
X152039714Y-79424228D01*
X152154000Y-79424228D01*
X152211142Y-79452800D01*
X152811142Y-79824228D02*
X152468285Y-79824228D01*
X152639714Y-79824228D02*
X152639714Y-79224228D01*
X152582571Y-79309942D01*
X152525428Y-79367085D01*
X152468285Y-79395657D01*
X153039714Y-79281371D02*
X153068285Y-79252800D01*
X153125428Y-79224228D01*
X153268285Y-79224228D01*
X153325428Y-79252800D01*
X153354000Y-79281371D01*
X153382571Y-79338514D01*
X153382571Y-79395657D01*
X153354000Y-79481371D01*
X153011142Y-79824228D01*
X153382571Y-79824228D01*
X144591142Y-77284228D02*
X144591142Y-76684228D01*
X144591142Y-77255657D02*
X144534000Y-77284228D01*
X144419714Y-77284228D01*
X144362571Y-77255657D01*
X144334000Y-77227085D01*
X144305428Y-77169942D01*
X144305428Y-76998514D01*
X144334000Y-76941371D01*
X144362571Y-76912800D01*
X144419714Y-76884228D01*
X144534000Y-76884228D01*
X144591142Y-76912800D01*
X145191142Y-77284228D02*
X144848285Y-77284228D01*
X145019714Y-77284228D02*
X145019714Y-76684228D01*
X144962571Y-76769942D01*
X144905428Y-76827085D01*
X144848285Y-76855657D01*
X145391142Y-76684228D02*
X145762571Y-76684228D01*
X145562571Y-76912800D01*
X145648285Y-76912800D01*
X145705428Y-76941371D01*
X145734000Y-76969942D01*
X145762571Y-77027085D01*
X145762571Y-77169942D01*
X145734000Y-77227085D01*
X145705428Y-77255657D01*
X145648285Y-77284228D01*
X145476857Y-77284228D01*
X145419714Y-77255657D01*
X145391142Y-77227085D01*
X152211142Y-77284228D02*
X152211142Y-76684228D01*
X152211142Y-77255657D02*
X152154000Y-77284228D01*
X152039714Y-77284228D01*
X151982571Y-77255657D01*
X151954000Y-77227085D01*
X151925428Y-77169942D01*
X151925428Y-76998514D01*
X151954000Y-76941371D01*
X151982571Y-76912800D01*
X152039714Y-76884228D01*
X152154000Y-76884228D01*
X152211142Y-76912800D01*
X152811142Y-77284228D02*
X152468285Y-77284228D01*
X152639714Y-77284228D02*
X152639714Y-76684228D01*
X152582571Y-76769942D01*
X152525428Y-76827085D01*
X152468285Y-76855657D01*
X153325428Y-76884228D02*
X153325428Y-77284228D01*
X153182571Y-76655657D02*
X153039714Y-77084228D01*
X153411142Y-77084228D01*
X144591142Y-74744228D02*
X144591142Y-74144228D01*
X144591142Y-74715657D02*
X144534000Y-74744228D01*
X144419714Y-74744228D01*
X144362571Y-74715657D01*
X144334000Y-74687085D01*
X144305428Y-74629942D01*
X144305428Y-74458514D01*
X144334000Y-74401371D01*
X144362571Y-74372800D01*
X144419714Y-74344228D01*
X144534000Y-74344228D01*
X144591142Y-74372800D01*
X145191142Y-74744228D02*
X144848285Y-74744228D01*
X145019714Y-74744228D02*
X145019714Y-74144228D01*
X144962571Y-74229942D01*
X144905428Y-74287085D01*
X144848285Y-74315657D01*
X145734000Y-74144228D02*
X145448285Y-74144228D01*
X145419714Y-74429942D01*
X145448285Y-74401371D01*
X145505428Y-74372800D01*
X145648285Y-74372800D01*
X145705428Y-74401371D01*
X145734000Y-74429942D01*
X145762571Y-74487085D01*
X145762571Y-74629942D01*
X145734000Y-74687085D01*
X145705428Y-74715657D01*
X145648285Y-74744228D01*
X145505428Y-74744228D01*
X145448285Y-74715657D01*
X145419714Y-74687085D01*
X144846800Y-81735657D02*
X144332514Y-82507085D01*
X145046800Y-82364228D02*
X145046800Y-81764228D01*
X145046800Y-81992800D02*
X145103942Y-81964228D01*
X145218228Y-81964228D01*
X145275371Y-81992800D01*
X145303942Y-82021371D01*
X145332514Y-82078514D01*
X145332514Y-82249942D01*
X145303942Y-82307085D01*
X145275371Y-82335657D01*
X145218228Y-82364228D01*
X145103942Y-82364228D01*
X145046800Y-82335657D01*
X145589657Y-82364228D02*
X145589657Y-81964228D01*
X145589657Y-82078514D02*
X145618228Y-82021371D01*
X145646800Y-81992800D01*
X145703942Y-81964228D01*
X145761085Y-81964228D01*
X146218228Y-82364228D02*
X146218228Y-82049942D01*
X146189657Y-81992800D01*
X146132514Y-81964228D01*
X146018228Y-81964228D01*
X145961085Y-81992800D01*
X146218228Y-82335657D02*
X146161085Y-82364228D01*
X146018228Y-82364228D01*
X145961085Y-82335657D01*
X145932514Y-82278514D01*
X145932514Y-82221371D01*
X145961085Y-82164228D01*
X146018228Y-82135657D01*
X146161085Y-82135657D01*
X146218228Y-82107085D01*
X146475371Y-82335657D02*
X146532514Y-82364228D01*
X146646800Y-82364228D01*
X146703942Y-82335657D01*
X146732514Y-82278514D01*
X146732514Y-82249942D01*
X146703942Y-82192800D01*
X146646800Y-82164228D01*
X146561085Y-82164228D01*
X146503942Y-82135657D01*
X146475371Y-82078514D01*
X146475371Y-82049942D01*
X146503942Y-81992800D01*
X146561085Y-81964228D01*
X146646800Y-81964228D01*
X146703942Y-81992800D01*
X147103942Y-81764228D02*
X147161085Y-81764228D01*
X147218228Y-81792800D01*
X147246800Y-81821371D01*
X147275371Y-81878514D01*
X147303942Y-81992800D01*
X147303942Y-82135657D01*
X147275371Y-82249942D01*
X147246800Y-82307085D01*
X147218228Y-82335657D01*
X147161085Y-82364228D01*
X147103942Y-82364228D01*
X147046800Y-82335657D01*
X147018228Y-82307085D01*
X146989657Y-82249942D01*
X146961085Y-82135657D01*
X146961085Y-81992800D01*
X146989657Y-81878514D01*
X147018228Y-81821371D01*
X147046800Y-81792800D01*
X147103942Y-81764228D01*
X229378000Y-80110057D02*
X228863714Y-80881485D01*
X229578000Y-80738628D02*
X229578000Y-80138628D01*
X229578000Y-80367200D02*
X229635142Y-80338628D01*
X229749428Y-80338628D01*
X229806571Y-80367200D01*
X229835142Y-80395771D01*
X229863714Y-80452914D01*
X229863714Y-80624342D01*
X229835142Y-80681485D01*
X229806571Y-80710057D01*
X229749428Y-80738628D01*
X229635142Y-80738628D01*
X229578000Y-80710057D01*
X230120857Y-80738628D02*
X230120857Y-80338628D01*
X230120857Y-80452914D02*
X230149428Y-80395771D01*
X230178000Y-80367200D01*
X230235142Y-80338628D01*
X230292285Y-80338628D01*
X230749428Y-80738628D02*
X230749428Y-80424342D01*
X230720857Y-80367200D01*
X230663714Y-80338628D01*
X230549428Y-80338628D01*
X230492285Y-80367200D01*
X230749428Y-80710057D02*
X230692285Y-80738628D01*
X230549428Y-80738628D01*
X230492285Y-80710057D01*
X230463714Y-80652914D01*
X230463714Y-80595771D01*
X230492285Y-80538628D01*
X230549428Y-80510057D01*
X230692285Y-80510057D01*
X230749428Y-80481485D01*
X231006571Y-80710057D02*
X231063714Y-80738628D01*
X231178000Y-80738628D01*
X231235142Y-80710057D01*
X231263714Y-80652914D01*
X231263714Y-80624342D01*
X231235142Y-80567200D01*
X231178000Y-80538628D01*
X231092285Y-80538628D01*
X231035142Y-80510057D01*
X231006571Y-80452914D01*
X231006571Y-80424342D01*
X231035142Y-80367200D01*
X231092285Y-80338628D01*
X231178000Y-80338628D01*
X231235142Y-80367200D01*
X231835142Y-80738628D02*
X231492285Y-80738628D01*
X231663714Y-80738628D02*
X231663714Y-80138628D01*
X231606571Y-80224342D01*
X231549428Y-80281485D01*
X231492285Y-80310057D01*
X152427085Y-81786457D02*
X151912800Y-82557885D01*
X152884228Y-82015028D02*
X152884228Y-82415028D01*
X152627085Y-82015028D02*
X152627085Y-82329314D01*
X152655657Y-82386457D01*
X152712800Y-82415028D01*
X152798514Y-82415028D01*
X152855657Y-82386457D01*
X152884228Y-82357885D01*
X153427085Y-82386457D02*
X153369942Y-82415028D01*
X153255657Y-82415028D01*
X153198514Y-82386457D01*
X153169942Y-82357885D01*
X153141371Y-82300742D01*
X153141371Y-82129314D01*
X153169942Y-82072171D01*
X153198514Y-82043600D01*
X153255657Y-82015028D01*
X153369942Y-82015028D01*
X153427085Y-82043600D01*
X153941371Y-82415028D02*
X153941371Y-82100742D01*
X153912800Y-82043600D01*
X153855657Y-82015028D01*
X153741371Y-82015028D01*
X153684228Y-82043600D01*
X153941371Y-82386457D02*
X153884228Y-82415028D01*
X153741371Y-82415028D01*
X153684228Y-82386457D01*
X153655657Y-82329314D01*
X153655657Y-82272171D01*
X153684228Y-82215028D01*
X153741371Y-82186457D01*
X153884228Y-82186457D01*
X153941371Y-82157885D01*
X154198514Y-82386457D02*
X154255657Y-82415028D01*
X154369942Y-82415028D01*
X154427085Y-82386457D01*
X154455657Y-82329314D01*
X154455657Y-82300742D01*
X154427085Y-82243600D01*
X154369942Y-82215028D01*
X154284228Y-82215028D01*
X154227085Y-82186457D01*
X154198514Y-82129314D01*
X154198514Y-82100742D01*
X154227085Y-82043600D01*
X154284228Y-82015028D01*
X154369942Y-82015028D01*
X154427085Y-82043600D01*
X234888171Y-81684857D02*
X234373885Y-82456285D01*
X235173885Y-82313428D02*
X235116742Y-82284857D01*
X235088171Y-82227714D01*
X235088171Y-81713428D01*
X235659600Y-82284857D02*
X235602457Y-82313428D01*
X235488171Y-82313428D01*
X235431028Y-82284857D01*
X235402457Y-82256285D01*
X235373885Y-82199142D01*
X235373885Y-82027714D01*
X235402457Y-81970571D01*
X235431028Y-81942000D01*
X235488171Y-81913428D01*
X235602457Y-81913428D01*
X235659600Y-81942000D01*
X236173885Y-82313428D02*
X236173885Y-81999142D01*
X236145314Y-81942000D01*
X236088171Y-81913428D01*
X235973885Y-81913428D01*
X235916742Y-81942000D01*
X236173885Y-82284857D02*
X236116742Y-82313428D01*
X235973885Y-82313428D01*
X235916742Y-82284857D01*
X235888171Y-82227714D01*
X235888171Y-82170571D01*
X235916742Y-82113428D01*
X235973885Y-82084857D01*
X236116742Y-82084857D01*
X236173885Y-82056285D01*
X236431028Y-82284857D02*
X236488171Y-82313428D01*
X236602457Y-82313428D01*
X236659600Y-82284857D01*
X236688171Y-82227714D01*
X236688171Y-82199142D01*
X236659600Y-82142000D01*
X236602457Y-82113428D01*
X236516742Y-82113428D01*
X236459600Y-82084857D01*
X236431028Y-82027714D01*
X236431028Y-81999142D01*
X236459600Y-81942000D01*
X236516742Y-81913428D01*
X236602457Y-81913428D01*
X236659600Y-81942000D01*
X144821314Y-79195657D02*
X144307028Y-79967085D01*
X144964171Y-79424228D02*
X145078457Y-79824228D01*
X145192742Y-79538514D01*
X145307028Y-79824228D01*
X145421314Y-79424228D01*
X145878457Y-79795657D02*
X145821314Y-79824228D01*
X145707028Y-79824228D01*
X145649885Y-79795657D01*
X145621314Y-79738514D01*
X145621314Y-79509942D01*
X145649885Y-79452800D01*
X145707028Y-79424228D01*
X145821314Y-79424228D01*
X145878457Y-79452800D01*
X145907028Y-79509942D01*
X145907028Y-79567085D01*
X145621314Y-79624228D01*
X144572057Y-87444228D02*
X144572057Y-87129942D01*
X144543485Y-87072800D01*
X144486342Y-87044228D01*
X144372057Y-87044228D01*
X144314914Y-87072800D01*
X144572057Y-87415657D02*
X144514914Y-87444228D01*
X144372057Y-87444228D01*
X144314914Y-87415657D01*
X144286342Y-87358514D01*
X144286342Y-87301371D01*
X144314914Y-87244228D01*
X144372057Y-87215657D01*
X144514914Y-87215657D01*
X144572057Y-87187085D01*
X144972057Y-86844228D02*
X145029200Y-86844228D01*
X145086342Y-86872800D01*
X145114914Y-86901371D01*
X145143485Y-86958514D01*
X145172057Y-87072800D01*
X145172057Y-87215657D01*
X145143485Y-87329942D01*
X145114914Y-87387085D01*
X145086342Y-87415657D01*
X145029200Y-87444228D01*
X144972057Y-87444228D01*
X144914914Y-87415657D01*
X144886342Y-87387085D01*
X144857771Y-87329942D01*
X144829200Y-87215657D01*
X144829200Y-87072800D01*
X144857771Y-86958514D01*
X144886342Y-86901371D01*
X144914914Y-86872800D01*
X144972057Y-86844228D01*
X144572057Y-89984228D02*
X144572057Y-89669942D01*
X144543485Y-89612800D01*
X144486342Y-89584228D01*
X144372057Y-89584228D01*
X144314914Y-89612800D01*
X144572057Y-89955657D02*
X144514914Y-89984228D01*
X144372057Y-89984228D01*
X144314914Y-89955657D01*
X144286342Y-89898514D01*
X144286342Y-89841371D01*
X144314914Y-89784228D01*
X144372057Y-89755657D01*
X144514914Y-89755657D01*
X144572057Y-89727085D01*
X145172057Y-89984228D02*
X144829200Y-89984228D01*
X145000628Y-89984228D02*
X145000628Y-89384228D01*
X144943485Y-89469942D01*
X144886342Y-89527085D01*
X144829200Y-89555657D01*
X144572057Y-92524228D02*
X144572057Y-92209942D01*
X144543485Y-92152800D01*
X144486342Y-92124228D01*
X144372057Y-92124228D01*
X144314914Y-92152800D01*
X144572057Y-92495657D02*
X144514914Y-92524228D01*
X144372057Y-92524228D01*
X144314914Y-92495657D01*
X144286342Y-92438514D01*
X144286342Y-92381371D01*
X144314914Y-92324228D01*
X144372057Y-92295657D01*
X144514914Y-92295657D01*
X144572057Y-92267085D01*
X144829200Y-91981371D02*
X144857771Y-91952800D01*
X144914914Y-91924228D01*
X145057771Y-91924228D01*
X145114914Y-91952800D01*
X145143485Y-91981371D01*
X145172057Y-92038514D01*
X145172057Y-92095657D01*
X145143485Y-92181371D01*
X144800628Y-92524228D01*
X145172057Y-92524228D01*
X144572057Y-95064228D02*
X144572057Y-94749942D01*
X144543485Y-94692800D01*
X144486342Y-94664228D01*
X144372057Y-94664228D01*
X144314914Y-94692800D01*
X144572057Y-95035657D02*
X144514914Y-95064228D01*
X144372057Y-95064228D01*
X144314914Y-95035657D01*
X144286342Y-94978514D01*
X144286342Y-94921371D01*
X144314914Y-94864228D01*
X144372057Y-94835657D01*
X144514914Y-94835657D01*
X144572057Y-94807085D01*
X144800628Y-94464228D02*
X145172057Y-94464228D01*
X144972057Y-94692800D01*
X145057771Y-94692800D01*
X145114914Y-94721371D01*
X145143485Y-94749942D01*
X145172057Y-94807085D01*
X145172057Y-94949942D01*
X145143485Y-95007085D01*
X145114914Y-95035657D01*
X145057771Y-95064228D01*
X144886342Y-95064228D01*
X144829200Y-95035657D01*
X144800628Y-95007085D01*
X148686857Y-97604228D02*
X148686857Y-97289942D01*
X148658285Y-97232800D01*
X148601142Y-97204228D01*
X148486857Y-97204228D01*
X148429714Y-97232800D01*
X148686857Y-97575657D02*
X148629714Y-97604228D01*
X148486857Y-97604228D01*
X148429714Y-97575657D01*
X148401142Y-97518514D01*
X148401142Y-97461371D01*
X148429714Y-97404228D01*
X148486857Y-97375657D01*
X148629714Y-97375657D01*
X148686857Y-97347085D01*
X149229714Y-97204228D02*
X149229714Y-97604228D01*
X149086857Y-96975657D02*
X148944000Y-97404228D01*
X149315428Y-97404228D01*
X148737657Y-95115028D02*
X148737657Y-94800742D01*
X148709085Y-94743600D01*
X148651942Y-94715028D01*
X148537657Y-94715028D01*
X148480514Y-94743600D01*
X148737657Y-95086457D02*
X148680514Y-95115028D01*
X148537657Y-95115028D01*
X148480514Y-95086457D01*
X148451942Y-95029314D01*
X148451942Y-94972171D01*
X148480514Y-94915028D01*
X148537657Y-94886457D01*
X148680514Y-94886457D01*
X148737657Y-94857885D01*
X149309085Y-94515028D02*
X149023371Y-94515028D01*
X148994800Y-94800742D01*
X149023371Y-94772171D01*
X149080514Y-94743600D01*
X149223371Y-94743600D01*
X149280514Y-94772171D01*
X149309085Y-94800742D01*
X149337657Y-94857885D01*
X149337657Y-95000742D01*
X149309085Y-95057885D01*
X149280514Y-95086457D01*
X149223371Y-95115028D01*
X149080514Y-95115028D01*
X149023371Y-95086457D01*
X148994800Y-95057885D01*
X148737657Y-92524228D02*
X148737657Y-92209942D01*
X148709085Y-92152800D01*
X148651942Y-92124228D01*
X148537657Y-92124228D01*
X148480514Y-92152800D01*
X148737657Y-92495657D02*
X148680514Y-92524228D01*
X148537657Y-92524228D01*
X148480514Y-92495657D01*
X148451942Y-92438514D01*
X148451942Y-92381371D01*
X148480514Y-92324228D01*
X148537657Y-92295657D01*
X148680514Y-92295657D01*
X148737657Y-92267085D01*
X149280514Y-91924228D02*
X149166228Y-91924228D01*
X149109085Y-91952800D01*
X149080514Y-91981371D01*
X149023371Y-92067085D01*
X148994800Y-92181371D01*
X148994800Y-92409942D01*
X149023371Y-92467085D01*
X149051942Y-92495657D01*
X149109085Y-92524228D01*
X149223371Y-92524228D01*
X149280514Y-92495657D01*
X149309085Y-92467085D01*
X149337657Y-92409942D01*
X149337657Y-92267085D01*
X149309085Y-92209942D01*
X149280514Y-92181371D01*
X149223371Y-92152800D01*
X149109085Y-92152800D01*
X149051942Y-92181371D01*
X149023371Y-92209942D01*
X148994800Y-92267085D01*
X148686857Y-90035028D02*
X148686857Y-89720742D01*
X148658285Y-89663600D01*
X148601142Y-89635028D01*
X148486857Y-89635028D01*
X148429714Y-89663600D01*
X148686857Y-90006457D02*
X148629714Y-90035028D01*
X148486857Y-90035028D01*
X148429714Y-90006457D01*
X148401142Y-89949314D01*
X148401142Y-89892171D01*
X148429714Y-89835028D01*
X148486857Y-89806457D01*
X148629714Y-89806457D01*
X148686857Y-89777885D01*
X148915428Y-89435028D02*
X149315428Y-89435028D01*
X149058285Y-90035028D01*
X148737657Y-87495028D02*
X148737657Y-87180742D01*
X148709085Y-87123600D01*
X148651942Y-87095028D01*
X148537657Y-87095028D01*
X148480514Y-87123600D01*
X148737657Y-87466457D02*
X148680514Y-87495028D01*
X148537657Y-87495028D01*
X148480514Y-87466457D01*
X148451942Y-87409314D01*
X148451942Y-87352171D01*
X148480514Y-87295028D01*
X148537657Y-87266457D01*
X148680514Y-87266457D01*
X148737657Y-87237885D01*
X149109085Y-87152171D02*
X149051942Y-87123600D01*
X149023371Y-87095028D01*
X148994800Y-87037885D01*
X148994800Y-87009314D01*
X149023371Y-86952171D01*
X149051942Y-86923600D01*
X149109085Y-86895028D01*
X149223371Y-86895028D01*
X149280514Y-86923600D01*
X149309085Y-86952171D01*
X149337657Y-87009314D01*
X149337657Y-87037885D01*
X149309085Y-87095028D01*
X149280514Y-87123600D01*
X149223371Y-87152171D01*
X149109085Y-87152171D01*
X149051942Y-87180742D01*
X149023371Y-87209314D01*
X148994800Y-87266457D01*
X148994800Y-87380742D01*
X149023371Y-87437885D01*
X149051942Y-87466457D01*
X149109085Y-87495028D01*
X149223371Y-87495028D01*
X149280514Y-87466457D01*
X149309085Y-87437885D01*
X149337657Y-87380742D01*
X149337657Y-87266457D01*
X149309085Y-87209314D01*
X149280514Y-87180742D01*
X149223371Y-87152171D01*
X201765485Y-74242628D02*
X201765485Y-74728342D01*
X201736914Y-74785485D01*
X201708342Y-74814057D01*
X201651200Y-74842628D01*
X201565485Y-74842628D01*
X201508342Y-74814057D01*
X201765485Y-74614057D02*
X201708342Y-74642628D01*
X201594057Y-74642628D01*
X201536914Y-74614057D01*
X201508342Y-74585485D01*
X201479771Y-74528342D01*
X201479771Y-74356914D01*
X201508342Y-74299771D01*
X201536914Y-74271200D01*
X201594057Y-74242628D01*
X201708342Y-74242628D01*
X201765485Y-74271200D01*
X202051200Y-74242628D02*
X202051200Y-74642628D01*
X202051200Y-74299771D02*
X202079771Y-74271200D01*
X202136914Y-74242628D01*
X202222628Y-74242628D01*
X202279771Y-74271200D01*
X202308342Y-74328342D01*
X202308342Y-74642628D01*
X202851200Y-74642628D02*
X202851200Y-74042628D01*
X202851200Y-74614057D02*
X202794057Y-74642628D01*
X202679771Y-74642628D01*
X202622628Y-74614057D01*
X202594057Y-74585485D01*
X202565485Y-74528342D01*
X202565485Y-74356914D01*
X202594057Y-74299771D01*
X202622628Y-74271200D01*
X202679771Y-74242628D01*
X202794057Y-74242628D01*
X202851200Y-74271200D01*
X202994057Y-74699771D02*
X203451200Y-74699771D01*
X203851200Y-74242628D02*
X203851200Y-74642628D01*
X203594057Y-74242628D02*
X203594057Y-74556914D01*
X203622628Y-74614057D01*
X203679771Y-74642628D01*
X203765485Y-74642628D01*
X203822628Y-74614057D01*
X203851200Y-74585485D01*
X204451200Y-74642628D02*
X204108342Y-74642628D01*
X204279771Y-74642628D02*
X204279771Y-74042628D01*
X204222628Y-74128342D01*
X204165485Y-74185485D01*
X204108342Y-74214057D01*
X204651200Y-74042628D02*
X205051200Y-74042628D01*
X204794057Y-74642628D01*
X216114285Y-97255000D02*
X216142857Y-97283571D01*
X216171428Y-97369285D01*
X216171428Y-97426428D01*
X216142857Y-97512142D01*
X216085714Y-97569285D01*
X216028571Y-97597857D01*
X215914285Y-97626428D01*
X215828571Y-97626428D01*
X215714285Y-97597857D01*
X215657142Y-97569285D01*
X215600000Y-97512142D01*
X215571428Y-97426428D01*
X215571428Y-97369285D01*
X215600000Y-97283571D01*
X215628571Y-97255000D01*
X215571428Y-96712142D02*
X215571428Y-96997857D01*
X215857142Y-97026428D01*
X215828571Y-96997857D01*
X215800000Y-96940714D01*
X215800000Y-96797857D01*
X215828571Y-96740714D01*
X215857142Y-96712142D01*
X215914285Y-96683571D01*
X216057142Y-96683571D01*
X216114285Y-96712142D01*
X216142857Y-96740714D01*
X216171428Y-96797857D01*
X216171428Y-96940714D01*
X216142857Y-96997857D01*
X216114285Y-97026428D01*
X209129285Y-80745000D02*
X209157857Y-80773571D01*
X209186428Y-80859285D01*
X209186428Y-80916428D01*
X209157857Y-81002142D01*
X209100714Y-81059285D01*
X209043571Y-81087857D01*
X208929285Y-81116428D01*
X208843571Y-81116428D01*
X208729285Y-81087857D01*
X208672142Y-81059285D01*
X208615000Y-81002142D01*
X208586428Y-80916428D01*
X208586428Y-80859285D01*
X208615000Y-80773571D01*
X208643571Y-80745000D01*
X208586428Y-80230714D02*
X208586428Y-80345000D01*
X208615000Y-80402142D01*
X208643571Y-80430714D01*
X208729285Y-80487857D01*
X208843571Y-80516428D01*
X209072142Y-80516428D01*
X209129285Y-80487857D01*
X209157857Y-80459285D01*
X209186428Y-80402142D01*
X209186428Y-80287857D01*
X209157857Y-80230714D01*
X209129285Y-80202142D01*
X209072142Y-80173571D01*
X208929285Y-80173571D01*
X208872142Y-80202142D01*
X208843571Y-80230714D01*
X208815000Y-80287857D01*
X208815000Y-80402142D01*
X208843571Y-80459285D01*
X208872142Y-80487857D01*
X208929285Y-80516428D01*
D11*
X158357380Y-89661904D02*
X159166904Y-89661904D01*
X159262142Y-89614285D01*
X159309761Y-89566666D01*
X159357380Y-89471428D01*
X159357380Y-89280952D01*
X159309761Y-89185714D01*
X159262142Y-89138095D01*
X159166904Y-89090476D01*
X158357380Y-89090476D01*
X159357380Y-88090476D02*
X159357380Y-88661904D01*
X159357380Y-88376190D02*
X158357380Y-88376190D01*
X158500238Y-88471428D01*
X158595476Y-88566666D01*
X158643095Y-88661904D01*
X198997380Y-89661904D02*
X199806904Y-89661904D01*
X199902142Y-89614285D01*
X199949761Y-89566666D01*
X199997380Y-89471428D01*
X199997380Y-89280952D01*
X199949761Y-89185714D01*
X199902142Y-89138095D01*
X199806904Y-89090476D01*
X198997380Y-89090476D01*
X199092619Y-88661904D02*
X199045000Y-88614285D01*
X198997380Y-88519047D01*
X198997380Y-88280952D01*
X199045000Y-88185714D01*
X199092619Y-88138095D01*
X199187857Y-88090476D01*
X199283095Y-88090476D01*
X199425952Y-88138095D01*
X199997380Y-88709523D01*
X199997380Y-88090476D01*
M02*
