G04 #@! TF.GenerationSoftware,KiCad,Pcbnew,(5.1.2-1)-1*
G04 #@! TF.CreationDate,2019-05-13T19:01:55+01:00*
G04 #@! TF.ProjectId,DRAM Board,4452414d-2042-46f6-9172-642e6b696361,rev?*
G04 #@! TF.SameCoordinates,Original*
G04 #@! TF.FileFunction,Legend,Top*
G04 #@! TF.FilePolarity,Positive*
%FSLAX46Y46*%
G04 Gerber Fmt 4.6, Leading zero omitted, Abs format (unit mm)*
G04 Created by KiCad (PCBNEW (5.1.2-1)-1) date 2019-05-13 19:01:55*
%MOMM*%
%LPD*%
G04 APERTURE LIST*
%ADD10C,0.150000*%
%ADD11C,0.120000*%
G04 APERTURE END LIST*
D10*
X190907142Y-93265491D02*
X190007142Y-93152991D01*
X190435714Y-93206562D02*
X190435714Y-92692276D01*
X190907142Y-92751205D02*
X190007142Y-92638705D01*
X190864285Y-91974419D02*
X190907142Y-92065491D01*
X190907142Y-92236919D01*
X190864285Y-92317276D01*
X190778571Y-92349419D01*
X190435714Y-92306562D01*
X190350000Y-92252991D01*
X190307142Y-92161919D01*
X190307142Y-91990491D01*
X190350000Y-91910133D01*
X190435714Y-91877991D01*
X190521428Y-91888705D01*
X190607142Y-92327991D01*
X190907142Y-91422633D02*
X190864285Y-91502991D01*
X190778571Y-91535133D01*
X190007142Y-91438705D01*
X190907142Y-90951205D02*
X190864285Y-91031562D01*
X190778571Y-91063705D01*
X190007142Y-90967276D01*
X190907142Y-90479776D02*
X190864285Y-90560133D01*
X190821428Y-90597633D01*
X190735714Y-90629776D01*
X190478571Y-90597633D01*
X190392857Y-90544062D01*
X190350000Y-90495848D01*
X190307142Y-90404776D01*
X190307142Y-90276205D01*
X190350000Y-90195848D01*
X190392857Y-90158348D01*
X190478571Y-90126205D01*
X190735714Y-90158348D01*
X190821428Y-90211919D01*
X190864285Y-90260133D01*
X190907142Y-90351205D01*
X190907142Y-90479776D01*
X190821428Y-88583348D02*
X190864285Y-88631562D01*
X190907142Y-88765491D01*
X190907142Y-88851205D01*
X190864285Y-88974419D01*
X190778571Y-89049419D01*
X190692857Y-89081562D01*
X190521428Y-89102991D01*
X190392857Y-89086919D01*
X190221428Y-89022633D01*
X190135714Y-88969062D01*
X190050000Y-88872633D01*
X190007142Y-88738705D01*
X190007142Y-88652991D01*
X190050000Y-88529776D01*
X190092857Y-88492276D01*
X190907142Y-87822633D02*
X190435714Y-87763705D01*
X190350000Y-87795848D01*
X190307142Y-87876205D01*
X190307142Y-88047633D01*
X190350000Y-88138705D01*
X190864285Y-87817276D02*
X190907142Y-87908348D01*
X190907142Y-88122633D01*
X190864285Y-88202991D01*
X190778571Y-88235133D01*
X190692857Y-88224419D01*
X190607142Y-88170848D01*
X190564285Y-88079776D01*
X190564285Y-87865491D01*
X190521428Y-87774419D01*
X190307142Y-87404776D02*
X190907142Y-87265491D01*
X190307142Y-86976205D01*
X190864285Y-86360133D02*
X190907142Y-86451205D01*
X190907142Y-86622633D01*
X190864285Y-86702991D01*
X190778571Y-86735133D01*
X190435714Y-86692276D01*
X190350000Y-86638705D01*
X190307142Y-86547633D01*
X190307142Y-86376205D01*
X190350000Y-86295848D01*
X190435714Y-86263705D01*
X190521428Y-86274419D01*
X190607142Y-86713705D01*
X190907142Y-85251205D02*
X190007142Y-85138705D01*
X190007142Y-84924419D01*
X190050000Y-84801205D01*
X190135714Y-84726205D01*
X190221428Y-84694062D01*
X190392857Y-84672633D01*
X190521428Y-84688705D01*
X190692857Y-84752991D01*
X190778571Y-84806562D01*
X190864285Y-84902991D01*
X190907142Y-85036919D01*
X190907142Y-85251205D01*
X190307142Y-84361919D02*
X190907142Y-84265491D01*
X190478571Y-84040491D01*
X190907142Y-83922633D01*
X190307142Y-83676205D01*
X190864285Y-83060133D02*
X190907142Y-83151205D01*
X190907142Y-83322633D01*
X190864285Y-83402991D01*
X190778571Y-83435133D01*
X190435714Y-83392276D01*
X190350000Y-83338705D01*
X190307142Y-83247633D01*
X190307142Y-83076205D01*
X190350000Y-82995848D01*
X190435714Y-82963705D01*
X190521428Y-82974419D01*
X190607142Y-83413705D01*
X190907142Y-82508348D02*
X190864285Y-82588705D01*
X190778571Y-82620848D01*
X190007142Y-82524419D01*
X190907142Y-82036919D02*
X190864285Y-82117276D01*
X190778571Y-82149419D01*
X190007142Y-82052991D01*
X190864285Y-81345848D02*
X190907142Y-81436919D01*
X190907142Y-81608348D01*
X190864285Y-81688705D01*
X190778571Y-81720848D01*
X190435714Y-81677991D01*
X190350000Y-81624419D01*
X190307142Y-81533348D01*
X190307142Y-81361919D01*
X190350000Y-81281562D01*
X190435714Y-81249419D01*
X190521428Y-81260133D01*
X190607142Y-81699419D01*
X190907142Y-80922633D02*
X190307142Y-80847633D01*
X190478571Y-80869062D02*
X190392857Y-80815491D01*
X190350000Y-80767276D01*
X190307142Y-80676205D01*
X190307142Y-80590491D01*
X190864285Y-80402991D02*
X190907142Y-80322633D01*
X190907142Y-80151205D01*
X190864285Y-80060133D01*
X190778571Y-80006562D01*
X190735714Y-80001205D01*
X190650000Y-80033348D01*
X190607142Y-80113705D01*
X190607142Y-80242276D01*
X190564285Y-80322633D01*
X190478571Y-80354776D01*
X190435714Y-80349419D01*
X190350000Y-80295848D01*
X190307142Y-80204776D01*
X190307142Y-80076205D01*
X190350000Y-79995848D01*
X190821428Y-79626205D02*
X190864285Y-79588705D01*
X190907142Y-79636919D01*
X190864285Y-79674419D01*
X190821428Y-79626205D01*
X190907142Y-79636919D01*
X190564285Y-79594062D02*
X190050000Y-79572633D01*
X190007142Y-79524419D01*
X190050000Y-79486919D01*
X190564285Y-79594062D01*
X190007142Y-79524419D01*
X245860000Y-92046205D02*
X245817142Y-92083705D01*
X245688571Y-92153348D01*
X245602857Y-92185491D01*
X245474285Y-92212276D01*
X245260000Y-92228348D01*
X245088571Y-92206919D01*
X244874285Y-92137276D01*
X244745714Y-92078348D01*
X244660000Y-92024776D01*
X244531428Y-91922991D01*
X244488571Y-91874776D01*
X245431428Y-91135491D02*
X245474285Y-91183705D01*
X245517142Y-91317633D01*
X245517142Y-91403348D01*
X245474285Y-91526562D01*
X245388571Y-91601562D01*
X245302857Y-91633705D01*
X245131428Y-91655133D01*
X245002857Y-91639062D01*
X244831428Y-91574776D01*
X244745714Y-91521205D01*
X244660000Y-91424776D01*
X244617142Y-91290848D01*
X244617142Y-91205133D01*
X244660000Y-91081919D01*
X244702857Y-91044419D01*
X245860000Y-90889062D02*
X245817142Y-90840848D01*
X245688571Y-90739062D01*
X245602857Y-90685491D01*
X245474285Y-90626562D01*
X245260000Y-90556919D01*
X245088571Y-90535491D01*
X244874285Y-90551562D01*
X244745714Y-90578348D01*
X244660000Y-90610491D01*
X244531428Y-90680133D01*
X244488571Y-90717633D01*
X244702857Y-89415848D02*
X244660000Y-89367633D01*
X244617142Y-89276562D01*
X244617142Y-89062276D01*
X244660000Y-88981919D01*
X244702857Y-88944419D01*
X244788571Y-88912276D01*
X244874285Y-88922991D01*
X245002857Y-88981919D01*
X245517142Y-89560491D01*
X245517142Y-89003348D01*
X244617142Y-88333705D02*
X244617142Y-88247991D01*
X244660000Y-88167633D01*
X244702857Y-88130133D01*
X244788571Y-88097991D01*
X244960000Y-88076562D01*
X245174285Y-88103348D01*
X245345714Y-88167633D01*
X245431428Y-88221205D01*
X245474285Y-88269419D01*
X245517142Y-88360491D01*
X245517142Y-88446205D01*
X245474285Y-88526562D01*
X245431428Y-88564062D01*
X245345714Y-88596205D01*
X245174285Y-88617633D01*
X244960000Y-88590848D01*
X244788571Y-88526562D01*
X244702857Y-88472991D01*
X244660000Y-88424776D01*
X244617142Y-88333705D01*
X245517142Y-87289062D02*
X245517142Y-87803348D01*
X245517142Y-87546205D02*
X244617142Y-87433705D01*
X244745714Y-87535491D01*
X244831428Y-87631919D01*
X244874285Y-87722991D01*
X245517142Y-86860491D02*
X245517142Y-86689062D01*
X245474285Y-86597991D01*
X245431428Y-86549776D01*
X245302857Y-86447991D01*
X245131428Y-86383705D01*
X244788571Y-86340848D01*
X244702857Y-86372991D01*
X244660000Y-86410491D01*
X244617142Y-86490848D01*
X244617142Y-86662276D01*
X244660000Y-86753348D01*
X244702857Y-86801562D01*
X244788571Y-86855133D01*
X245002857Y-86881919D01*
X245088571Y-86849776D01*
X245131428Y-86812276D01*
X245174285Y-86731919D01*
X245174285Y-86560491D01*
X245131428Y-86469419D01*
X245088571Y-86421205D01*
X245002857Y-86367633D01*
X245517142Y-85360491D02*
X244617142Y-85247991D01*
X245517142Y-84846205D02*
X245002857Y-85167633D01*
X244617142Y-84733705D02*
X245131428Y-85312276D01*
X245517142Y-84074776D02*
X245045714Y-84015848D01*
X244960000Y-84047991D01*
X244917142Y-84128348D01*
X244917142Y-84299776D01*
X244960000Y-84390848D01*
X245474285Y-84069419D02*
X245517142Y-84160491D01*
X245517142Y-84374776D01*
X245474285Y-84455133D01*
X245388571Y-84487276D01*
X245302857Y-84476562D01*
X245217142Y-84422991D01*
X245174285Y-84331919D01*
X245174285Y-84117633D01*
X245131428Y-84026562D01*
X245517142Y-83646205D02*
X244917142Y-83571205D01*
X244617142Y-83533705D02*
X244660000Y-83581919D01*
X244702857Y-83544419D01*
X244660000Y-83496205D01*
X244617142Y-83533705D01*
X244702857Y-83544419D01*
X245517142Y-82017633D02*
X245088571Y-82264062D01*
X245517142Y-82531919D02*
X244617142Y-82419419D01*
X244617142Y-82076562D01*
X244660000Y-81996205D01*
X244702857Y-81958705D01*
X244788571Y-81926562D01*
X244917142Y-81942633D01*
X245002857Y-81996205D01*
X245045714Y-82044419D01*
X245088571Y-82135491D01*
X245088571Y-82478348D01*
X245517142Y-81503348D02*
X245474285Y-81583705D01*
X245431428Y-81621205D01*
X245345714Y-81653348D01*
X245088571Y-81621205D01*
X245002857Y-81567633D01*
X244960000Y-81519419D01*
X244917142Y-81428348D01*
X244917142Y-81299776D01*
X244960000Y-81219419D01*
X245002857Y-81181919D01*
X245088571Y-81149776D01*
X245345714Y-81181919D01*
X245431428Y-81235491D01*
X245474285Y-81283705D01*
X245517142Y-81374776D01*
X245517142Y-81503348D01*
X245517142Y-80817633D02*
X244617142Y-80705133D01*
X244960000Y-80747991D02*
X244917142Y-80656919D01*
X244917142Y-80485491D01*
X244960000Y-80405133D01*
X245002857Y-80367633D01*
X245088571Y-80335491D01*
X245345714Y-80367633D01*
X245431428Y-80421205D01*
X245474285Y-80469419D01*
X245517142Y-80560491D01*
X245517142Y-80731919D01*
X245474285Y-80812276D01*
X245517142Y-80003348D02*
X244917142Y-79928348D01*
X244617142Y-79890848D02*
X244660000Y-79939062D01*
X244702857Y-79901562D01*
X244660000Y-79853348D01*
X244617142Y-79890848D01*
X244702857Y-79901562D01*
X244917142Y-79499776D02*
X245517142Y-79574776D01*
X245002857Y-79510491D02*
X244960000Y-79462276D01*
X244917142Y-79371205D01*
X244917142Y-79242633D01*
X244960000Y-79162276D01*
X245045714Y-79130133D01*
X245517142Y-79189062D01*
X245474285Y-78797991D02*
X245517142Y-78717633D01*
X245517142Y-78546205D01*
X245474285Y-78455133D01*
X245388571Y-78401562D01*
X245345714Y-78396205D01*
X245260000Y-78428348D01*
X245217142Y-78508705D01*
X245217142Y-78637276D01*
X245174285Y-78717633D01*
X245088571Y-78749776D01*
X245045714Y-78744419D01*
X244960000Y-78690848D01*
X244917142Y-78599776D01*
X244917142Y-78471205D01*
X244960000Y-78390848D01*
X245517142Y-77903348D02*
X245474285Y-77983705D01*
X245431428Y-78021205D01*
X245345714Y-78053348D01*
X245088571Y-78021205D01*
X245002857Y-77967633D01*
X244960000Y-77919419D01*
X244917142Y-77828348D01*
X244917142Y-77699776D01*
X244960000Y-77619419D01*
X245002857Y-77581919D01*
X245088571Y-77549776D01*
X245345714Y-77581919D01*
X245431428Y-77635491D01*
X245474285Y-77683705D01*
X245517142Y-77774776D01*
X245517142Y-77903348D01*
X244917142Y-77142633D02*
X245517142Y-77217633D01*
X245002857Y-77153348D02*
X244960000Y-77105133D01*
X244917142Y-77014062D01*
X244917142Y-76885491D01*
X244960000Y-76805133D01*
X245045714Y-76772991D01*
X245517142Y-76831919D01*
X243612142Y-98739776D02*
X242712142Y-98627276D01*
X242712142Y-98284419D01*
X242755000Y-98204062D01*
X242797857Y-98166562D01*
X242883571Y-98134419D01*
X243012142Y-98150491D01*
X243097857Y-98204062D01*
X243140714Y-98252276D01*
X243183571Y-98343348D01*
X243183571Y-98686205D01*
X243012142Y-97379062D02*
X243612142Y-97454062D01*
X243012142Y-97764776D02*
X243483571Y-97823705D01*
X243569285Y-97791562D01*
X243612142Y-97711205D01*
X243612142Y-97582633D01*
X243569285Y-97491562D01*
X243526428Y-97443348D01*
X243612142Y-97025491D02*
X242712142Y-96912991D01*
X243055000Y-96955848D02*
X243012142Y-96864776D01*
X243012142Y-96693348D01*
X243055000Y-96612991D01*
X243097857Y-96575491D01*
X243183571Y-96543348D01*
X243440714Y-96575491D01*
X243526428Y-96629062D01*
X243569285Y-96677276D01*
X243612142Y-96768348D01*
X243612142Y-96939776D01*
X243569285Y-97020133D01*
X243612142Y-96082633D02*
X243569285Y-96162991D01*
X243483571Y-96195133D01*
X242712142Y-96098705D01*
X243612142Y-95739776D02*
X243012142Y-95664776D01*
X242712142Y-95627276D02*
X242755000Y-95675491D01*
X242797857Y-95637991D01*
X242755000Y-95589776D01*
X242712142Y-95627276D01*
X242797857Y-95637991D01*
X243569285Y-95348705D02*
X243612142Y-95268348D01*
X243612142Y-95096919D01*
X243569285Y-95005848D01*
X243483571Y-94952276D01*
X243440714Y-94946919D01*
X243355000Y-94979062D01*
X243312142Y-95059419D01*
X243312142Y-95187991D01*
X243269285Y-95268348D01*
X243183571Y-95300491D01*
X243140714Y-95295133D01*
X243055000Y-95241562D01*
X243012142Y-95150491D01*
X243012142Y-95021919D01*
X243055000Y-94941562D01*
X243612142Y-94582633D02*
X242712142Y-94470133D01*
X243612142Y-94196919D02*
X243140714Y-94137991D01*
X243055000Y-94170133D01*
X243012142Y-94250491D01*
X243012142Y-94379062D01*
X243055000Y-94470133D01*
X243097857Y-94518348D01*
X243569285Y-93420133D02*
X243612142Y-93511205D01*
X243612142Y-93682633D01*
X243569285Y-93762991D01*
X243483571Y-93795133D01*
X243140714Y-93752276D01*
X243055000Y-93698705D01*
X243012142Y-93607633D01*
X243012142Y-93436205D01*
X243055000Y-93355848D01*
X243140714Y-93323705D01*
X243226428Y-93334419D01*
X243312142Y-93773705D01*
X243612142Y-92611205D02*
X242712142Y-92498705D01*
X243569285Y-92605848D02*
X243612142Y-92696919D01*
X243612142Y-92868348D01*
X243569285Y-92948705D01*
X243526428Y-92986205D01*
X243440714Y-93018348D01*
X243183571Y-92986205D01*
X243097857Y-92932633D01*
X243055000Y-92884419D01*
X243012142Y-92793348D01*
X243012142Y-92621919D01*
X243055000Y-92541562D01*
X243012142Y-91036205D02*
X243612142Y-91111205D01*
X243012142Y-91421919D02*
X243483571Y-91480848D01*
X243569285Y-91448705D01*
X243612142Y-91368348D01*
X243612142Y-91239776D01*
X243569285Y-91148705D01*
X243526428Y-91100491D01*
X243012142Y-90607633D02*
X243612142Y-90682633D01*
X243097857Y-90618348D02*
X243055000Y-90570133D01*
X243012142Y-90479062D01*
X243012142Y-90350491D01*
X243055000Y-90270133D01*
X243140714Y-90237991D01*
X243612142Y-90296919D01*
X243612142Y-89482633D02*
X242712142Y-89370133D01*
X243569285Y-89477276D02*
X243612142Y-89568348D01*
X243612142Y-89739776D01*
X243569285Y-89820133D01*
X243526428Y-89857633D01*
X243440714Y-89889776D01*
X243183571Y-89857633D01*
X243097857Y-89804062D01*
X243055000Y-89755848D01*
X243012142Y-89664776D01*
X243012142Y-89493348D01*
X243055000Y-89412991D01*
X243569285Y-88705848D02*
X243612142Y-88796919D01*
X243612142Y-88968348D01*
X243569285Y-89048705D01*
X243483571Y-89080848D01*
X243140714Y-89037991D01*
X243055000Y-88984419D01*
X243012142Y-88893348D01*
X243012142Y-88721919D01*
X243055000Y-88641562D01*
X243140714Y-88609419D01*
X243226428Y-88620133D01*
X243312142Y-89059419D01*
X243612142Y-88282633D02*
X243012142Y-88207633D01*
X243183571Y-88229062D02*
X243097857Y-88175491D01*
X243055000Y-88127276D01*
X243012142Y-88036205D01*
X243012142Y-87950491D01*
X243012142Y-87093348D02*
X243012142Y-86750491D01*
X242712142Y-86927276D02*
X243483571Y-87023705D01*
X243569285Y-86991562D01*
X243612142Y-86911205D01*
X243612142Y-86825491D01*
X243612142Y-86525491D02*
X242712142Y-86412991D01*
X243612142Y-86139776D02*
X243140714Y-86080848D01*
X243055000Y-86112991D01*
X243012142Y-86193348D01*
X243012142Y-86321919D01*
X243055000Y-86412991D01*
X243097857Y-86461205D01*
X243569285Y-85362991D02*
X243612142Y-85454062D01*
X243612142Y-85625491D01*
X243569285Y-85705848D01*
X243483571Y-85737991D01*
X243140714Y-85695133D01*
X243055000Y-85641562D01*
X243012142Y-85550491D01*
X243012142Y-85379062D01*
X243055000Y-85298705D01*
X243140714Y-85266562D01*
X243226428Y-85277276D01*
X243312142Y-85716562D01*
X242755000Y-83675491D02*
X242712142Y-83755848D01*
X242712142Y-83884419D01*
X242755000Y-84018348D01*
X242840714Y-84114776D01*
X242926428Y-84168348D01*
X243097857Y-84232633D01*
X243226428Y-84248705D01*
X243397857Y-84227276D01*
X243483571Y-84195133D01*
X243569285Y-84120133D01*
X243612142Y-83996919D01*
X243612142Y-83911205D01*
X243569285Y-83777276D01*
X243526428Y-83729062D01*
X243226428Y-83691562D01*
X243226428Y-83862991D01*
X243612142Y-83354062D02*
X242712142Y-83241562D01*
X243612142Y-82839776D01*
X242712142Y-82727276D01*
X242712142Y-82298705D02*
X243440714Y-82389776D01*
X243526428Y-82357633D01*
X243569285Y-82320133D01*
X243612142Y-82239776D01*
X243612142Y-82068348D01*
X243569285Y-81977276D01*
X243526428Y-81929062D01*
X243440714Y-81875491D01*
X242712142Y-81784419D01*
X243612142Y-80782633D02*
X242712142Y-80670133D01*
X242712142Y-80327276D01*
X242755000Y-80246919D01*
X242797857Y-80209419D01*
X242883571Y-80177276D01*
X243012142Y-80193348D01*
X243097857Y-80246919D01*
X243140714Y-80295133D01*
X243183571Y-80386205D01*
X243183571Y-80729062D01*
X243012142Y-79421919D02*
X243612142Y-79496919D01*
X243012142Y-79807633D02*
X243483571Y-79866562D01*
X243569285Y-79834419D01*
X243612142Y-79754062D01*
X243612142Y-79625491D01*
X243569285Y-79534419D01*
X243526428Y-79486205D01*
X243612142Y-79068348D02*
X242712142Y-78955848D01*
X243055000Y-78998705D02*
X243012142Y-78907633D01*
X243012142Y-78736205D01*
X243055000Y-78655848D01*
X243097857Y-78618348D01*
X243183571Y-78586205D01*
X243440714Y-78618348D01*
X243526428Y-78671919D01*
X243569285Y-78720133D01*
X243612142Y-78811205D01*
X243612142Y-78982633D01*
X243569285Y-79062991D01*
X243612142Y-78125491D02*
X243569285Y-78205848D01*
X243483571Y-78237991D01*
X242712142Y-78141562D01*
X243612142Y-77782633D02*
X243012142Y-77707633D01*
X242712142Y-77670133D02*
X242755000Y-77718348D01*
X242797857Y-77680848D01*
X242755000Y-77632633D01*
X242712142Y-77670133D01*
X242797857Y-77680848D01*
X243569285Y-76962991D02*
X243612142Y-77054062D01*
X243612142Y-77225491D01*
X243569285Y-77305848D01*
X243526428Y-77343348D01*
X243440714Y-77375491D01*
X243183571Y-77343348D01*
X243097857Y-77289776D01*
X243055000Y-77241562D01*
X243012142Y-77150491D01*
X243012142Y-76979062D01*
X243055000Y-76898705D01*
X243612142Y-75468348D02*
X243612142Y-75896919D01*
X242712142Y-75784419D01*
X243612142Y-75168348D02*
X243012142Y-75093348D01*
X242712142Y-75055848D02*
X242755000Y-75104062D01*
X242797857Y-75066562D01*
X242755000Y-75018348D01*
X242712142Y-75055848D01*
X242797857Y-75066562D01*
X243569285Y-74348705D02*
X243612142Y-74439776D01*
X243612142Y-74611205D01*
X243569285Y-74691562D01*
X243526428Y-74729062D01*
X243440714Y-74761205D01*
X243183571Y-74729062D01*
X243097857Y-74675491D01*
X243055000Y-74627276D01*
X243012142Y-74536205D01*
X243012142Y-74364776D01*
X243055000Y-74284419D01*
X243569285Y-73620133D02*
X243612142Y-73711205D01*
X243612142Y-73882633D01*
X243569285Y-73962991D01*
X243483571Y-73995133D01*
X243140714Y-73952276D01*
X243055000Y-73898705D01*
X243012142Y-73807633D01*
X243012142Y-73636205D01*
X243055000Y-73555848D01*
X243140714Y-73523705D01*
X243226428Y-73534419D01*
X243312142Y-73973705D01*
X243012142Y-73121919D02*
X243612142Y-73196919D01*
X243097857Y-73132633D02*
X243055000Y-73084419D01*
X243012142Y-72993348D01*
X243012142Y-72864776D01*
X243055000Y-72784419D01*
X243140714Y-72752276D01*
X243612142Y-72811205D01*
X243569285Y-72420133D02*
X243612142Y-72339776D01*
X243612142Y-72168348D01*
X243569285Y-72077276D01*
X243483571Y-72023705D01*
X243440714Y-72018348D01*
X243355000Y-72050491D01*
X243312142Y-72130848D01*
X243312142Y-72259419D01*
X243269285Y-72339776D01*
X243183571Y-72371919D01*
X243140714Y-72366562D01*
X243055000Y-72312991D01*
X243012142Y-72221919D01*
X243012142Y-72093348D01*
X243055000Y-72012991D01*
X243569285Y-71305848D02*
X243612142Y-71396919D01*
X243612142Y-71568348D01*
X243569285Y-71648705D01*
X243483571Y-71680848D01*
X243140714Y-71637991D01*
X243055000Y-71584419D01*
X243012142Y-71493348D01*
X243012142Y-71321919D01*
X243055000Y-71241562D01*
X243140714Y-71209419D01*
X243226428Y-71220133D01*
X243312142Y-71659419D01*
X243012142Y-70207633D02*
X243612142Y-70068348D01*
X243012142Y-69779062D01*
X242797857Y-69452276D02*
X242755000Y-69404062D01*
X242712142Y-69312991D01*
X242712142Y-69098705D01*
X242755000Y-69018348D01*
X242797857Y-68980848D01*
X242883571Y-68948705D01*
X242969285Y-68959419D01*
X243097857Y-69018348D01*
X243612142Y-69596919D01*
X243612142Y-69039776D01*
X241450000Y-98549776D02*
X241450000Y-98121205D01*
X241707142Y-98667633D02*
X240807142Y-98255133D01*
X241707142Y-98067633D01*
X241707142Y-97767633D02*
X241107142Y-97692633D01*
X241192857Y-97703348D02*
X241150000Y-97655133D01*
X241107142Y-97564062D01*
X241107142Y-97435491D01*
X241150000Y-97355133D01*
X241235714Y-97322991D01*
X241707142Y-97381919D01*
X241235714Y-97322991D02*
X241150000Y-97269419D01*
X241107142Y-97178348D01*
X241107142Y-97049776D01*
X241150000Y-96969419D01*
X241235714Y-96937276D01*
X241707142Y-96996205D01*
X241707142Y-96567633D02*
X241107142Y-96492633D01*
X240807142Y-96455133D02*
X240850000Y-96503348D01*
X240892857Y-96465848D01*
X240850000Y-96417633D01*
X240807142Y-96455133D01*
X240892857Y-96465848D01*
X241107142Y-95678348D02*
X241835714Y-95769419D01*
X241921428Y-95822991D01*
X241964285Y-95871205D01*
X242007142Y-95962276D01*
X242007142Y-96090848D01*
X241964285Y-96171205D01*
X241664285Y-95747991D02*
X241707142Y-95839062D01*
X241707142Y-96010491D01*
X241664285Y-96090848D01*
X241621428Y-96128348D01*
X241535714Y-96160491D01*
X241278571Y-96128348D01*
X241192857Y-96074776D01*
X241150000Y-96026562D01*
X241107142Y-95935491D01*
X241107142Y-95764062D01*
X241150000Y-95683705D01*
X241707142Y-94939062D02*
X241235714Y-94880133D01*
X241150000Y-94912276D01*
X241107142Y-94992633D01*
X241107142Y-95164062D01*
X241150000Y-95255133D01*
X241664285Y-94933705D02*
X241707142Y-95024776D01*
X241707142Y-95239062D01*
X241664285Y-95319419D01*
X241578571Y-95351562D01*
X241492857Y-95340848D01*
X241407142Y-95287276D01*
X241364285Y-95196205D01*
X241364285Y-94981919D01*
X241321428Y-94890848D01*
X240807142Y-93283705D02*
X240807142Y-93712276D01*
X241235714Y-93808705D01*
X241192857Y-93760491D01*
X241150000Y-93669419D01*
X241150000Y-93455133D01*
X241192857Y-93374776D01*
X241235714Y-93337276D01*
X241321428Y-93305133D01*
X241535714Y-93331919D01*
X241621428Y-93385491D01*
X241664285Y-93433705D01*
X241707142Y-93524776D01*
X241707142Y-93739062D01*
X241664285Y-93819419D01*
X241621428Y-93856919D01*
X240807142Y-92683705D02*
X240807142Y-92597991D01*
X240850000Y-92517633D01*
X240892857Y-92480133D01*
X240978571Y-92447991D01*
X241150000Y-92426562D01*
X241364285Y-92453348D01*
X241535714Y-92517633D01*
X241621428Y-92571205D01*
X241664285Y-92619419D01*
X241707142Y-92710491D01*
X241707142Y-92796205D01*
X241664285Y-92876562D01*
X241621428Y-92914062D01*
X241535714Y-92946205D01*
X241364285Y-92967633D01*
X241150000Y-92940848D01*
X240978571Y-92876562D01*
X240892857Y-92822991D01*
X240850000Y-92774776D01*
X240807142Y-92683705D01*
X240807142Y-91826562D02*
X240807142Y-91740848D01*
X240850000Y-91660491D01*
X240892857Y-91622991D01*
X240978571Y-91590848D01*
X241150000Y-91569419D01*
X241364285Y-91596205D01*
X241535714Y-91660491D01*
X241621428Y-91714062D01*
X241664285Y-91762276D01*
X241707142Y-91853348D01*
X241707142Y-91939062D01*
X241664285Y-92019419D01*
X241621428Y-92056919D01*
X241535714Y-92089062D01*
X241364285Y-92110491D01*
X241150000Y-92083705D01*
X240978571Y-92019419D01*
X240892857Y-91965848D01*
X240850000Y-91917633D01*
X240807142Y-91826562D01*
X241621428Y-90042633D02*
X241664285Y-90090848D01*
X241707142Y-90224776D01*
X241707142Y-90310491D01*
X241664285Y-90433705D01*
X241578571Y-90508705D01*
X241492857Y-90540848D01*
X241321428Y-90562276D01*
X241192857Y-90546205D01*
X241021428Y-90481919D01*
X240935714Y-90428348D01*
X240850000Y-90331919D01*
X240807142Y-90197991D01*
X240807142Y-90112276D01*
X240850000Y-89989062D01*
X240892857Y-89951562D01*
X241707142Y-89667633D02*
X240807142Y-89555133D01*
X241235714Y-89608705D02*
X241235714Y-89094419D01*
X241707142Y-89153348D02*
X240807142Y-89040848D01*
X241707142Y-88724776D02*
X240807142Y-88612276D01*
X241707142Y-88296205D02*
X240807142Y-88183705D01*
X240807142Y-87840848D01*
X240850000Y-87760491D01*
X240892857Y-87722991D01*
X240978571Y-87690848D01*
X241107142Y-87706919D01*
X241192857Y-87760491D01*
X241235714Y-87808705D01*
X241278571Y-87899776D01*
X241278571Y-88242633D01*
X241707142Y-86196205D02*
X241278571Y-86442633D01*
X241707142Y-86710491D02*
X240807142Y-86597991D01*
X240807142Y-86255133D01*
X240850000Y-86174776D01*
X240892857Y-86137276D01*
X240978571Y-86105133D01*
X241107142Y-86121205D01*
X241192857Y-86174776D01*
X241235714Y-86222991D01*
X241278571Y-86314062D01*
X241278571Y-86656919D01*
X241450000Y-85821205D02*
X241450000Y-85392633D01*
X241707142Y-85939062D02*
X240807142Y-85526562D01*
X241707142Y-85339062D01*
X241707142Y-85039062D02*
X240807142Y-84926562D01*
X241450000Y-84706919D01*
X240807142Y-84326562D01*
X241707142Y-84439062D01*
X241707142Y-82810491D02*
X241278571Y-83056919D01*
X241707142Y-83324776D02*
X240807142Y-83212276D01*
X240807142Y-82869419D01*
X240850000Y-82789062D01*
X240892857Y-82751562D01*
X240978571Y-82719419D01*
X241107142Y-82735491D01*
X241192857Y-82789062D01*
X241235714Y-82837276D01*
X241278571Y-82928348D01*
X241278571Y-83271205D01*
X241664285Y-82076562D02*
X241707142Y-82167633D01*
X241707142Y-82339062D01*
X241664285Y-82419419D01*
X241578571Y-82451562D01*
X241235714Y-82408705D01*
X241150000Y-82355133D01*
X241107142Y-82264062D01*
X241107142Y-82092633D01*
X241150000Y-82012276D01*
X241235714Y-81980133D01*
X241321428Y-81990848D01*
X241407142Y-82430133D01*
X241107142Y-81578348D02*
X242007142Y-81690848D01*
X241150000Y-81583705D02*
X241107142Y-81492633D01*
X241107142Y-81321205D01*
X241150000Y-81240848D01*
X241192857Y-81203348D01*
X241278571Y-81171205D01*
X241535714Y-81203348D01*
X241621428Y-81256919D01*
X241664285Y-81305133D01*
X241707142Y-81396205D01*
X241707142Y-81567633D01*
X241664285Y-81647991D01*
X241707142Y-80710491D02*
X241664285Y-80790848D01*
X241578571Y-80822991D01*
X240807142Y-80726562D01*
X241707142Y-79981919D02*
X241235714Y-79922991D01*
X241150000Y-79955133D01*
X241107142Y-80035491D01*
X241107142Y-80206919D01*
X241150000Y-80297991D01*
X241664285Y-79976562D02*
X241707142Y-80067633D01*
X241707142Y-80281919D01*
X241664285Y-80362276D01*
X241578571Y-80394419D01*
X241492857Y-80383705D01*
X241407142Y-80330133D01*
X241364285Y-80239062D01*
X241364285Y-80024776D01*
X241321428Y-79933705D01*
X241664285Y-79162276D02*
X241707142Y-79253348D01*
X241707142Y-79424776D01*
X241664285Y-79505133D01*
X241621428Y-79542633D01*
X241535714Y-79574776D01*
X241278571Y-79542633D01*
X241192857Y-79489062D01*
X241150000Y-79440848D01*
X241107142Y-79349776D01*
X241107142Y-79178348D01*
X241150000Y-79097991D01*
X241664285Y-78433705D02*
X241707142Y-78524776D01*
X241707142Y-78696205D01*
X241664285Y-78776562D01*
X241578571Y-78808705D01*
X241235714Y-78765848D01*
X241150000Y-78712276D01*
X241107142Y-78621205D01*
X241107142Y-78449776D01*
X241150000Y-78369419D01*
X241235714Y-78337276D01*
X241321428Y-78347991D01*
X241407142Y-78787276D01*
X241707142Y-78010491D02*
X241107142Y-77935491D01*
X241192857Y-77946205D02*
X241150000Y-77897991D01*
X241107142Y-77806919D01*
X241107142Y-77678348D01*
X241150000Y-77597991D01*
X241235714Y-77565848D01*
X241707142Y-77624776D01*
X241235714Y-77565848D02*
X241150000Y-77512276D01*
X241107142Y-77421205D01*
X241107142Y-77292633D01*
X241150000Y-77212276D01*
X241235714Y-77180133D01*
X241707142Y-77239062D01*
X241664285Y-76462276D02*
X241707142Y-76553348D01*
X241707142Y-76724776D01*
X241664285Y-76805133D01*
X241578571Y-76837276D01*
X241235714Y-76794419D01*
X241150000Y-76740848D01*
X241107142Y-76649776D01*
X241107142Y-76478348D01*
X241150000Y-76397991D01*
X241235714Y-76365848D01*
X241321428Y-76376562D01*
X241407142Y-76815848D01*
X241107142Y-75964062D02*
X241707142Y-76039062D01*
X241192857Y-75974776D02*
X241150000Y-75926562D01*
X241107142Y-75835491D01*
X241107142Y-75706919D01*
X241150000Y-75626562D01*
X241235714Y-75594419D01*
X241707142Y-75653348D01*
X241107142Y-75278348D02*
X241107142Y-74935491D01*
X240807142Y-75112276D02*
X241578571Y-75208705D01*
X241664285Y-75176562D01*
X241707142Y-75096205D01*
X241707142Y-75010491D01*
X241235714Y-73665848D02*
X241278571Y-73542633D01*
X241321428Y-73505133D01*
X241407142Y-73472991D01*
X241535714Y-73489062D01*
X241621428Y-73542633D01*
X241664285Y-73590848D01*
X241707142Y-73681919D01*
X241707142Y-74024776D01*
X240807142Y-73912276D01*
X240807142Y-73612276D01*
X240850000Y-73531919D01*
X240892857Y-73494419D01*
X240978571Y-73462276D01*
X241064285Y-73472991D01*
X241150000Y-73526562D01*
X241192857Y-73574776D01*
X241235714Y-73665848D01*
X241235714Y-73965848D01*
X241707142Y-72996205D02*
X241664285Y-73076562D01*
X241621428Y-73114062D01*
X241535714Y-73146205D01*
X241278571Y-73114062D01*
X241192857Y-73060491D01*
X241150000Y-73012276D01*
X241107142Y-72921205D01*
X241107142Y-72792633D01*
X241150000Y-72712276D01*
X241192857Y-72674776D01*
X241278571Y-72642633D01*
X241535714Y-72674776D01*
X241621428Y-72728348D01*
X241664285Y-72776562D01*
X241707142Y-72867633D01*
X241707142Y-72996205D01*
X241707142Y-71924776D02*
X241235714Y-71865848D01*
X241150000Y-71897991D01*
X241107142Y-71978348D01*
X241107142Y-72149776D01*
X241150000Y-72240848D01*
X241664285Y-71919419D02*
X241707142Y-72010491D01*
X241707142Y-72224776D01*
X241664285Y-72305133D01*
X241578571Y-72337276D01*
X241492857Y-72326562D01*
X241407142Y-72272991D01*
X241364285Y-72181919D01*
X241364285Y-71967633D01*
X241321428Y-71876562D01*
X241707142Y-71496205D02*
X241107142Y-71421205D01*
X241278571Y-71442633D02*
X241192857Y-71389062D01*
X241150000Y-71340848D01*
X241107142Y-71249776D01*
X241107142Y-71164062D01*
X241707142Y-70553348D02*
X240807142Y-70440848D01*
X241664285Y-70547991D02*
X241707142Y-70639062D01*
X241707142Y-70810491D01*
X241664285Y-70890848D01*
X241621428Y-70928348D01*
X241535714Y-70960491D01*
X241278571Y-70928348D01*
X241192857Y-70874776D01*
X241150000Y-70826562D01*
X241107142Y-70735491D01*
X241107142Y-70564062D01*
X241150000Y-70483705D01*
D11*
X253600000Y-59400000D02*
X253600000Y-65410000D01*
X246780000Y-61650000D02*
X246780000Y-65410000D01*
X253600000Y-65410000D02*
X252340000Y-65410000D01*
X246780000Y-65410000D02*
X248040000Y-65410000D01*
X232300000Y-49485000D02*
X231140000Y-49485000D01*
X232300000Y-49105000D02*
X232300000Y-49485000D01*
X237490000Y-49105000D02*
X232300000Y-49105000D01*
X242680000Y-49105000D02*
X242680000Y-49485000D01*
X237490000Y-49105000D02*
X242680000Y-49105000D01*
X232300000Y-67735000D02*
X232300000Y-67355000D01*
X237490000Y-67735000D02*
X232300000Y-67735000D01*
X242680000Y-67735000D02*
X242680000Y-67355000D01*
X237490000Y-67735000D02*
X242680000Y-67735000D01*
X215790000Y-49485000D02*
X214630000Y-49485000D01*
X215790000Y-49105000D02*
X215790000Y-49485000D01*
X220980000Y-49105000D02*
X215790000Y-49105000D01*
X226170000Y-49105000D02*
X226170000Y-49485000D01*
X220980000Y-49105000D02*
X226170000Y-49105000D01*
X215790000Y-67735000D02*
X215790000Y-67355000D01*
X220980000Y-67735000D02*
X215790000Y-67735000D01*
X226170000Y-67735000D02*
X226170000Y-67355000D01*
X220980000Y-67735000D02*
X226170000Y-67735000D01*
X182770000Y-49485000D02*
X181610000Y-49485000D01*
X182770000Y-49105000D02*
X182770000Y-49485000D01*
X187960000Y-49105000D02*
X182770000Y-49105000D01*
X193150000Y-49105000D02*
X193150000Y-49485000D01*
X187960000Y-49105000D02*
X193150000Y-49105000D01*
X182770000Y-67735000D02*
X182770000Y-67355000D01*
X187960000Y-67735000D02*
X182770000Y-67735000D01*
X193150000Y-67735000D02*
X193150000Y-67355000D01*
X187960000Y-67735000D02*
X193150000Y-67735000D01*
X227898000Y-73032000D02*
X217618000Y-73032000D01*
X227898000Y-98672000D02*
X227898000Y-73032000D01*
X217618000Y-98672000D02*
X227898000Y-98672000D01*
X217618000Y-73032000D02*
X217618000Y-98672000D01*
X225408000Y-73092000D02*
X223758000Y-73092000D01*
X225408000Y-98612000D02*
X225408000Y-73092000D01*
X220108000Y-98612000D02*
X225408000Y-98612000D01*
X220108000Y-73092000D02*
X220108000Y-98612000D01*
X221758000Y-73092000D02*
X220108000Y-73092000D01*
X223758000Y-73092000D02*
G75*
G02X221758000Y-73092000I-1000000J0D01*
G01*
X202600000Y-73006600D02*
X192320000Y-73006600D01*
X202600000Y-98646600D02*
X202600000Y-73006600D01*
X192320000Y-98646600D02*
X202600000Y-98646600D01*
X192320000Y-73006600D02*
X192320000Y-98646600D01*
X200110000Y-73066600D02*
X198460000Y-73066600D01*
X200110000Y-98586600D02*
X200110000Y-73066600D01*
X194810000Y-98586600D02*
X200110000Y-98586600D01*
X194810000Y-73066600D02*
X194810000Y-98586600D01*
X196460000Y-73066600D02*
X194810000Y-73066600D01*
X198460000Y-73066600D02*
G75*
G02X196460000Y-73066600I-1000000J0D01*
G01*
X177352000Y-73083000D02*
X167072000Y-73083000D01*
X177352000Y-98723000D02*
X177352000Y-73083000D01*
X167072000Y-98723000D02*
X177352000Y-98723000D01*
X167072000Y-73083000D02*
X167072000Y-98723000D01*
X174862000Y-73143000D02*
X173212000Y-73143000D01*
X174862000Y-98663000D02*
X174862000Y-73143000D01*
X169562000Y-98663000D02*
X174862000Y-98663000D01*
X169562000Y-73143000D02*
X169562000Y-98663000D01*
X171212000Y-73143000D02*
X169562000Y-73143000D01*
X173212000Y-73143000D02*
G75*
G02X171212000Y-73143000I-1000000J0D01*
G01*
X151952000Y-73083000D02*
X141672000Y-73083000D01*
X151952000Y-98723000D02*
X151952000Y-73083000D01*
X141672000Y-98723000D02*
X151952000Y-98723000D01*
X141672000Y-73083000D02*
X141672000Y-98723000D01*
X149462000Y-73143000D02*
X147812000Y-73143000D01*
X149462000Y-98663000D02*
X149462000Y-73143000D01*
X144162000Y-98663000D02*
X149462000Y-98663000D01*
X144162000Y-73143000D02*
X144162000Y-98663000D01*
X145812000Y-73143000D02*
X144162000Y-73143000D01*
X147812000Y-73143000D02*
G75*
G02X145812000Y-73143000I-1000000J0D01*
G01*
X239328000Y-73032000D02*
X229048000Y-73032000D01*
X239328000Y-98672000D02*
X239328000Y-73032000D01*
X229048000Y-98672000D02*
X239328000Y-98672000D01*
X229048000Y-73032000D02*
X229048000Y-98672000D01*
X236838000Y-73092000D02*
X235188000Y-73092000D01*
X236838000Y-98612000D02*
X236838000Y-73092000D01*
X231538000Y-98612000D02*
X236838000Y-98612000D01*
X231538000Y-73092000D02*
X231538000Y-98612000D01*
X233188000Y-73092000D02*
X231538000Y-73092000D01*
X235188000Y-73092000D02*
G75*
G02X233188000Y-73092000I-1000000J0D01*
G01*
X214030000Y-73006600D02*
X203750000Y-73006600D01*
X214030000Y-98646600D02*
X214030000Y-73006600D01*
X203750000Y-98646600D02*
X214030000Y-98646600D01*
X203750000Y-73006600D02*
X203750000Y-98646600D01*
X211540000Y-73066600D02*
X209890000Y-73066600D01*
X211540000Y-98586600D02*
X211540000Y-73066600D01*
X206240000Y-98586600D02*
X211540000Y-98586600D01*
X206240000Y-73066600D02*
X206240000Y-98586600D01*
X207890000Y-73066600D02*
X206240000Y-73066600D01*
X209890000Y-73066600D02*
G75*
G02X207890000Y-73066600I-1000000J0D01*
G01*
X188782000Y-73083000D02*
X178502000Y-73083000D01*
X188782000Y-98723000D02*
X188782000Y-73083000D01*
X178502000Y-98723000D02*
X188782000Y-98723000D01*
X178502000Y-73083000D02*
X178502000Y-98723000D01*
X186292000Y-73143000D02*
X184642000Y-73143000D01*
X186292000Y-98663000D02*
X186292000Y-73143000D01*
X180992000Y-98663000D02*
X186292000Y-98663000D01*
X180992000Y-73143000D02*
X180992000Y-98663000D01*
X182642000Y-73143000D02*
X180992000Y-73143000D01*
X184642000Y-73143000D02*
G75*
G02X182642000Y-73143000I-1000000J0D01*
G01*
X163382000Y-73083000D02*
X153102000Y-73083000D01*
X163382000Y-98723000D02*
X163382000Y-73083000D01*
X153102000Y-98723000D02*
X163382000Y-98723000D01*
X153102000Y-73083000D02*
X153102000Y-98723000D01*
X160892000Y-73143000D02*
X159242000Y-73143000D01*
X160892000Y-98663000D02*
X160892000Y-73143000D01*
X155592000Y-98663000D02*
X160892000Y-98663000D01*
X155592000Y-73143000D02*
X155592000Y-98663000D01*
X157242000Y-73143000D02*
X155592000Y-73143000D01*
X159242000Y-73143000D02*
G75*
G02X157242000Y-73143000I-1000000J0D01*
G01*
X199280000Y-49485000D02*
X198120000Y-49485000D01*
X199280000Y-49105000D02*
X199280000Y-49485000D01*
X204470000Y-49105000D02*
X199280000Y-49105000D01*
X209660000Y-49105000D02*
X209660000Y-49485000D01*
X204470000Y-49105000D02*
X209660000Y-49105000D01*
X199280000Y-67735000D02*
X199280000Y-67355000D01*
X204470000Y-67735000D02*
X199280000Y-67735000D01*
X209660000Y-67735000D02*
X209660000Y-67355000D01*
X204470000Y-67735000D02*
X209660000Y-67735000D01*
X187357936Y-69575000D02*
X188562064Y-69575000D01*
X187357936Y-71395000D02*
X188562064Y-71395000D01*
X203867936Y-71395000D02*
X205072064Y-71395000D01*
X203867936Y-69575000D02*
X205072064Y-69575000D01*
X220377936Y-69575000D02*
X221582064Y-69575000D01*
X220377936Y-71395000D02*
X221582064Y-71395000D01*
X236887936Y-71395000D02*
X238092064Y-71395000D01*
X236887936Y-69575000D02*
X238092064Y-69575000D01*
D10*
X254142380Y-64261904D02*
X254951904Y-64261904D01*
X255047142Y-64214285D01*
X255094761Y-64166666D01*
X255142380Y-64071428D01*
X255142380Y-63880952D01*
X255094761Y-63785714D01*
X255047142Y-63738095D01*
X254951904Y-63690476D01*
X254142380Y-63690476D01*
X254142380Y-62738095D02*
X254142380Y-63214285D01*
X254618571Y-63261904D01*
X254570952Y-63214285D01*
X254523333Y-63119047D01*
X254523333Y-62880952D01*
X254570952Y-62785714D01*
X254618571Y-62738095D01*
X254713809Y-62690476D01*
X254951904Y-62690476D01*
X255047142Y-62738095D01*
X255094761Y-62785714D01*
X255142380Y-62880952D01*
X255142380Y-63119047D01*
X255094761Y-63214285D01*
X255047142Y-63261904D01*
X236728095Y-47712380D02*
X236728095Y-48521904D01*
X236775714Y-48617142D01*
X236823333Y-48664761D01*
X236918571Y-48712380D01*
X237109047Y-48712380D01*
X237204285Y-48664761D01*
X237251904Y-48617142D01*
X237299523Y-48521904D01*
X237299523Y-47712380D01*
X238204285Y-48045714D02*
X238204285Y-48712380D01*
X237966190Y-47664761D02*
X237728095Y-48379047D01*
X238347142Y-48379047D01*
X220218095Y-47712380D02*
X220218095Y-48521904D01*
X220265714Y-48617142D01*
X220313333Y-48664761D01*
X220408571Y-48712380D01*
X220599047Y-48712380D01*
X220694285Y-48664761D01*
X220741904Y-48617142D01*
X220789523Y-48521904D01*
X220789523Y-47712380D01*
X221170476Y-47712380D02*
X221789523Y-47712380D01*
X221456190Y-48093333D01*
X221599047Y-48093333D01*
X221694285Y-48140952D01*
X221741904Y-48188571D01*
X221789523Y-48283809D01*
X221789523Y-48521904D01*
X221741904Y-48617142D01*
X221694285Y-48664761D01*
X221599047Y-48712380D01*
X221313333Y-48712380D01*
X221218095Y-48664761D01*
X221170476Y-48617142D01*
X187198095Y-47712380D02*
X187198095Y-48521904D01*
X187245714Y-48617142D01*
X187293333Y-48664761D01*
X187388571Y-48712380D01*
X187579047Y-48712380D01*
X187674285Y-48664761D01*
X187721904Y-48617142D01*
X187769523Y-48521904D01*
X187769523Y-47712380D01*
X188769523Y-48712380D02*
X188198095Y-48712380D01*
X188483809Y-48712380D02*
X188483809Y-47712380D01*
X188388571Y-47855238D01*
X188293333Y-47950476D01*
X188198095Y-47998095D01*
X221519904Y-71544380D02*
X221519904Y-72353904D01*
X221567523Y-72449142D01*
X221615142Y-72496761D01*
X221710380Y-72544380D01*
X221900857Y-72544380D01*
X221996095Y-72496761D01*
X222043714Y-72449142D01*
X222091333Y-72353904D01*
X222091333Y-71544380D01*
X223091333Y-72544380D02*
X222519904Y-72544380D01*
X222805619Y-72544380D02*
X222805619Y-71544380D01*
X222710380Y-71687238D01*
X222615142Y-71782476D01*
X222519904Y-71830095D01*
X223948476Y-71544380D02*
X223758000Y-71544380D01*
X223662761Y-71592000D01*
X223615142Y-71639619D01*
X223519904Y-71782476D01*
X223472285Y-71972952D01*
X223472285Y-72353904D01*
X223519904Y-72449142D01*
X223567523Y-72496761D01*
X223662761Y-72544380D01*
X223853238Y-72544380D01*
X223948476Y-72496761D01*
X223996095Y-72449142D01*
X224043714Y-72353904D01*
X224043714Y-72115809D01*
X223996095Y-72020571D01*
X223948476Y-71972952D01*
X223853238Y-71925333D01*
X223662761Y-71925333D01*
X223567523Y-71972952D01*
X223519904Y-72020571D01*
X223472285Y-72115809D01*
X196221904Y-71518980D02*
X196221904Y-72328504D01*
X196269523Y-72423742D01*
X196317142Y-72471361D01*
X196412380Y-72518980D01*
X196602857Y-72518980D01*
X196698095Y-72471361D01*
X196745714Y-72423742D01*
X196793333Y-72328504D01*
X196793333Y-71518980D01*
X197793333Y-72518980D02*
X197221904Y-72518980D01*
X197507619Y-72518980D02*
X197507619Y-71518980D01*
X197412380Y-71661838D01*
X197317142Y-71757076D01*
X197221904Y-71804695D01*
X198126666Y-71518980D02*
X198793333Y-71518980D01*
X198364761Y-72518980D01*
X170973904Y-71595380D02*
X170973904Y-72404904D01*
X171021523Y-72500142D01*
X171069142Y-72547761D01*
X171164380Y-72595380D01*
X171354857Y-72595380D01*
X171450095Y-72547761D01*
X171497714Y-72500142D01*
X171545333Y-72404904D01*
X171545333Y-71595380D01*
X172545333Y-72595380D02*
X171973904Y-72595380D01*
X172259619Y-72595380D02*
X172259619Y-71595380D01*
X172164380Y-71738238D01*
X172069142Y-71833476D01*
X171973904Y-71881095D01*
X173116761Y-72023952D02*
X173021523Y-71976333D01*
X172973904Y-71928714D01*
X172926285Y-71833476D01*
X172926285Y-71785857D01*
X172973904Y-71690619D01*
X173021523Y-71643000D01*
X173116761Y-71595380D01*
X173307238Y-71595380D01*
X173402476Y-71643000D01*
X173450095Y-71690619D01*
X173497714Y-71785857D01*
X173497714Y-71833476D01*
X173450095Y-71928714D01*
X173402476Y-71976333D01*
X173307238Y-72023952D01*
X173116761Y-72023952D01*
X173021523Y-72071571D01*
X172973904Y-72119190D01*
X172926285Y-72214428D01*
X172926285Y-72404904D01*
X172973904Y-72500142D01*
X173021523Y-72547761D01*
X173116761Y-72595380D01*
X173307238Y-72595380D01*
X173402476Y-72547761D01*
X173450095Y-72500142D01*
X173497714Y-72404904D01*
X173497714Y-72214428D01*
X173450095Y-72119190D01*
X173402476Y-72071571D01*
X173307238Y-72023952D01*
X145573904Y-71595380D02*
X145573904Y-72404904D01*
X145621523Y-72500142D01*
X145669142Y-72547761D01*
X145764380Y-72595380D01*
X145954857Y-72595380D01*
X146050095Y-72547761D01*
X146097714Y-72500142D01*
X146145333Y-72404904D01*
X146145333Y-71595380D01*
X147145333Y-72595380D02*
X146573904Y-72595380D01*
X146859619Y-72595380D02*
X146859619Y-71595380D01*
X146764380Y-71738238D01*
X146669142Y-71833476D01*
X146573904Y-71881095D01*
X147621523Y-72595380D02*
X147812000Y-72595380D01*
X147907238Y-72547761D01*
X147954857Y-72500142D01*
X148050095Y-72357285D01*
X148097714Y-72166809D01*
X148097714Y-71785857D01*
X148050095Y-71690619D01*
X148002476Y-71643000D01*
X147907238Y-71595380D01*
X147716761Y-71595380D01*
X147621523Y-71643000D01*
X147573904Y-71690619D01*
X147526285Y-71785857D01*
X147526285Y-72023952D01*
X147573904Y-72119190D01*
X147621523Y-72166809D01*
X147716761Y-72214428D01*
X147907238Y-72214428D01*
X148002476Y-72166809D01*
X148050095Y-72119190D01*
X148097714Y-72023952D01*
X232949904Y-71544380D02*
X232949904Y-72353904D01*
X232997523Y-72449142D01*
X233045142Y-72496761D01*
X233140380Y-72544380D01*
X233330857Y-72544380D01*
X233426095Y-72496761D01*
X233473714Y-72449142D01*
X233521333Y-72353904D01*
X233521333Y-71544380D01*
X233949904Y-71639619D02*
X233997523Y-71592000D01*
X234092761Y-71544380D01*
X234330857Y-71544380D01*
X234426095Y-71592000D01*
X234473714Y-71639619D01*
X234521333Y-71734857D01*
X234521333Y-71830095D01*
X234473714Y-71972952D01*
X233902285Y-72544380D01*
X234521333Y-72544380D01*
X235140380Y-71544380D02*
X235235619Y-71544380D01*
X235330857Y-71592000D01*
X235378476Y-71639619D01*
X235426095Y-71734857D01*
X235473714Y-71925333D01*
X235473714Y-72163428D01*
X235426095Y-72353904D01*
X235378476Y-72449142D01*
X235330857Y-72496761D01*
X235235619Y-72544380D01*
X235140380Y-72544380D01*
X235045142Y-72496761D01*
X234997523Y-72449142D01*
X234949904Y-72353904D01*
X234902285Y-72163428D01*
X234902285Y-71925333D01*
X234949904Y-71734857D01*
X234997523Y-71639619D01*
X235045142Y-71592000D01*
X235140380Y-71544380D01*
X207651904Y-71518980D02*
X207651904Y-72328504D01*
X207699523Y-72423742D01*
X207747142Y-72471361D01*
X207842380Y-72518980D01*
X208032857Y-72518980D01*
X208128095Y-72471361D01*
X208175714Y-72423742D01*
X208223333Y-72328504D01*
X208223333Y-71518980D01*
X208651904Y-71614219D02*
X208699523Y-71566600D01*
X208794761Y-71518980D01*
X209032857Y-71518980D01*
X209128095Y-71566600D01*
X209175714Y-71614219D01*
X209223333Y-71709457D01*
X209223333Y-71804695D01*
X209175714Y-71947552D01*
X208604285Y-72518980D01*
X209223333Y-72518980D01*
X210175714Y-72518980D02*
X209604285Y-72518980D01*
X209890000Y-72518980D02*
X209890000Y-71518980D01*
X209794761Y-71661838D01*
X209699523Y-71757076D01*
X209604285Y-71804695D01*
X182403904Y-71595380D02*
X182403904Y-72404904D01*
X182451523Y-72500142D01*
X182499142Y-72547761D01*
X182594380Y-72595380D01*
X182784857Y-72595380D01*
X182880095Y-72547761D01*
X182927714Y-72500142D01*
X182975333Y-72404904D01*
X182975333Y-71595380D01*
X183403904Y-71690619D02*
X183451523Y-71643000D01*
X183546761Y-71595380D01*
X183784857Y-71595380D01*
X183880095Y-71643000D01*
X183927714Y-71690619D01*
X183975333Y-71785857D01*
X183975333Y-71881095D01*
X183927714Y-72023952D01*
X183356285Y-72595380D01*
X183975333Y-72595380D01*
X184356285Y-71690619D02*
X184403904Y-71643000D01*
X184499142Y-71595380D01*
X184737238Y-71595380D01*
X184832476Y-71643000D01*
X184880095Y-71690619D01*
X184927714Y-71785857D01*
X184927714Y-71881095D01*
X184880095Y-72023952D01*
X184308666Y-72595380D01*
X184927714Y-72595380D01*
X157003904Y-71595380D02*
X157003904Y-72404904D01*
X157051523Y-72500142D01*
X157099142Y-72547761D01*
X157194380Y-72595380D01*
X157384857Y-72595380D01*
X157480095Y-72547761D01*
X157527714Y-72500142D01*
X157575333Y-72404904D01*
X157575333Y-71595380D01*
X158003904Y-71690619D02*
X158051523Y-71643000D01*
X158146761Y-71595380D01*
X158384857Y-71595380D01*
X158480095Y-71643000D01*
X158527714Y-71690619D01*
X158575333Y-71785857D01*
X158575333Y-71881095D01*
X158527714Y-72023952D01*
X157956285Y-72595380D01*
X158575333Y-72595380D01*
X158908666Y-71595380D02*
X159527714Y-71595380D01*
X159194380Y-71976333D01*
X159337238Y-71976333D01*
X159432476Y-72023952D01*
X159480095Y-72071571D01*
X159527714Y-72166809D01*
X159527714Y-72404904D01*
X159480095Y-72500142D01*
X159432476Y-72547761D01*
X159337238Y-72595380D01*
X159051523Y-72595380D01*
X158956285Y-72547761D01*
X158908666Y-72500142D01*
X203708095Y-47712380D02*
X203708095Y-48521904D01*
X203755714Y-48617142D01*
X203803333Y-48664761D01*
X203898571Y-48712380D01*
X204089047Y-48712380D01*
X204184285Y-48664761D01*
X204231904Y-48617142D01*
X204279523Y-48521904D01*
X204279523Y-47712380D01*
X204708095Y-47807619D02*
X204755714Y-47760000D01*
X204850952Y-47712380D01*
X205089047Y-47712380D01*
X205184285Y-47760000D01*
X205231904Y-47807619D01*
X205279523Y-47902857D01*
X205279523Y-47998095D01*
X205231904Y-48140952D01*
X204660476Y-48712380D01*
X205279523Y-48712380D01*
X187793333Y-69022142D02*
X187745714Y-69069761D01*
X187602857Y-69117380D01*
X187507619Y-69117380D01*
X187364761Y-69069761D01*
X187269523Y-68974523D01*
X187221904Y-68879285D01*
X187174285Y-68688809D01*
X187174285Y-68545952D01*
X187221904Y-68355476D01*
X187269523Y-68260238D01*
X187364761Y-68165000D01*
X187507619Y-68117380D01*
X187602857Y-68117380D01*
X187745714Y-68165000D01*
X187793333Y-68212619D01*
X188745714Y-69117380D02*
X188174285Y-69117380D01*
X188460000Y-69117380D02*
X188460000Y-68117380D01*
X188364761Y-68260238D01*
X188269523Y-68355476D01*
X188174285Y-68403095D01*
X204303333Y-69022142D02*
X204255714Y-69069761D01*
X204112857Y-69117380D01*
X204017619Y-69117380D01*
X203874761Y-69069761D01*
X203779523Y-68974523D01*
X203731904Y-68879285D01*
X203684285Y-68688809D01*
X203684285Y-68545952D01*
X203731904Y-68355476D01*
X203779523Y-68260238D01*
X203874761Y-68165000D01*
X204017619Y-68117380D01*
X204112857Y-68117380D01*
X204255714Y-68165000D01*
X204303333Y-68212619D01*
X204684285Y-68212619D02*
X204731904Y-68165000D01*
X204827142Y-68117380D01*
X205065238Y-68117380D01*
X205160476Y-68165000D01*
X205208095Y-68212619D01*
X205255714Y-68307857D01*
X205255714Y-68403095D01*
X205208095Y-68545952D01*
X204636666Y-69117380D01*
X205255714Y-69117380D01*
X220813333Y-69022142D02*
X220765714Y-69069761D01*
X220622857Y-69117380D01*
X220527619Y-69117380D01*
X220384761Y-69069761D01*
X220289523Y-68974523D01*
X220241904Y-68879285D01*
X220194285Y-68688809D01*
X220194285Y-68545952D01*
X220241904Y-68355476D01*
X220289523Y-68260238D01*
X220384761Y-68165000D01*
X220527619Y-68117380D01*
X220622857Y-68117380D01*
X220765714Y-68165000D01*
X220813333Y-68212619D01*
X221146666Y-68117380D02*
X221765714Y-68117380D01*
X221432380Y-68498333D01*
X221575238Y-68498333D01*
X221670476Y-68545952D01*
X221718095Y-68593571D01*
X221765714Y-68688809D01*
X221765714Y-68926904D01*
X221718095Y-69022142D01*
X221670476Y-69069761D01*
X221575238Y-69117380D01*
X221289523Y-69117380D01*
X221194285Y-69069761D01*
X221146666Y-69022142D01*
X237323333Y-69022142D02*
X237275714Y-69069761D01*
X237132857Y-69117380D01*
X237037619Y-69117380D01*
X236894761Y-69069761D01*
X236799523Y-68974523D01*
X236751904Y-68879285D01*
X236704285Y-68688809D01*
X236704285Y-68545952D01*
X236751904Y-68355476D01*
X236799523Y-68260238D01*
X236894761Y-68165000D01*
X237037619Y-68117380D01*
X237132857Y-68117380D01*
X237275714Y-68165000D01*
X237323333Y-68212619D01*
X238180476Y-68450714D02*
X238180476Y-69117380D01*
X237942380Y-68069761D02*
X237704285Y-68784047D01*
X238323333Y-68784047D01*
M02*
